RobotoCondensed-Thin.ufo
<glyph name="exclam" format="1">
  <advance width="373"/>
  <unicode hex="0021"/>
  <outline>
    <contour>
      <point x="206" y="1456" type="line"/>
      <point x="160" y="1456" type="line"/>
      <point x="160" y="401" type="line"/>
      <point x="206" y="401" type="line"/>
    </contour>
    <contour>
      <point x="143" y="49" type="curve" smooth="yes"/>
      <point x="143" y="18"/>
      <point x="164" y="-6"/>
      <point x="190" y="-6" type="curve" smooth="yes"/>
      <point x="216" y="-6"/>
      <point x="237" y="18"/>
      <point x="237" y="49" type="curve" smooth="yes"/>
      <point x="237" y="80"/>
      <point x="216" y="105"/>
      <point x="190" y="105" type="curve" smooth="yes"/>
      <point x="164" y="105"/>
      <point x="143" y="80"/>
    </contour>
  </outline>
</glyph>
<glyph name="quotedbl" format="1">
  <advance width="521"/>
  <unicode hex="0022"/>
  <outline>
    <contour>
      <point x="210" y="1536" type="line"/>
      <point x="155" y="1536" type="line"/>
      <point x="155" y="1390" type="line"/>
      <point x="150" y="1122" type="line"/>
      <point x="200" y="1122" type="line"/>
      <point x="210" y="1393" type="line"/>
    </contour>
    <contour>
      <point x="411" y="1536" type="line"/>
      <point x="357" y="1536" type="line"/>
      <point x="357" y="1390" type="line"/>
      <point x="351" y="1122" type="line"/>
      <point x="401" y="1122" type="line"/>
      <point x="411" y="1393" type="line"/>
    </contour>
  </outline>
</glyph>
<glyph name="numbersign" format="1">
  <advance width="982"/>
  <unicode hex="0023"/>
  <outline>
    <contour>
      <point x="228" y="0" type="line"/>
      <point x="275" y="0" type="line"/>
      <point x="497" y="1456" type="line"/>
      <point x="450" y="1456" type="line"/>
    </contour>
    <contour>
      <point x="580" y="0" type="line"/>
      <point x="627" y="0" type="line"/>
      <point x="851" y="1456" type="line"/>
      <point x="804" y="1456" type="line"/>
    </contour>
    <contour>
      <point x="1000" y="986" type="line"/>
      <point x="1000" y="1040" type="line"/>
      <point x="127" y="1040" type="line"/>
      <point x="127" y="986" type="line"/>
    </contour>
    <contour>
      <point x="937" y="410" type="line"/>
      <point x="937" y="462" type="line"/>
      <point x="63" y="462" type="line"/>
      <point x="63" y="410" type="line"/>
    </contour>
  </outline>
</glyph>
<glyph name="dollar" format="1">
  <advance width="982"/>
  <unicode hex="0024"/>
  <outline>
    <contour>
      <point x="532" y="1663" type="line"/>
      <point x="485" y="1663" type="line"/>
      <point x="485" y="1437" type="line"/>
      <point x="532" y="1437" type="line"/>
    </contour>
    <contour>
      <point x="541" y="19" type="line"/>
      <point x="495" y="19" type="line"/>
      <point x="495" y="-208" type="line"/>
      <point x="541" y="-208" type="line"/>
    </contour>
    <contour>
      <point x="815" y="344" type="curve"/>
      <point x="815" y="183"/>
      <point x="703" y="32"/>
      <point x="512" y="32" type="curve" smooth="yes"/>
      <point x="353" y="32"/>
      <point x="167" y="120"/>
      <point x="167" y="409" type="curve"/>
      <point x="122" y="409" type="line"/>
      <point x="122" y="86"/>
      <point x="321" y="-21"/>
      <point x="512" y="-21" type="curve" smooth="yes"/>
      <point x="721" y="-21"/>
      <point x="861" y="120"/>
      <point x="861" y="346" type="curve"/>
      <point x="861" y="586"/>
      <point x="724" y="670"/>
      <point x="518" y="754" type="curve" smooth="yes"/>
      <point x="257" y="857"/>
      <point x="206" y="948"/>
      <point x="206" y="1112" type="curve"/>
      <point x="206" y="1270"/>
      <point x="301" y="1424"/>
      <point x="506" y="1424" type="curve" smooth="yes"/>
      <point x="703" y="1424"/>
      <point x="809" y="1262"/>
      <point x="809" y="1047" type="curve"/>
      <point x="854" y="1047" type="line"/>
      <point x="854" y="1324"/>
      <point x="723" y="1477"/>
      <point x="506" y="1477" type="curve" smooth="yes"/>
      <point x="296" y="1477"/>
      <point x="161" y="1331"/>
      <point x="161" y="1110" type="curve"/>
      <point x="161" y="870"/>
      <point x="291" y="787"/>
      <point x="504" y="702" type="curve" smooth="yes"/>
      <point x="742" y="600"/>
      <point x="815" y="518"/>
    </contour>
  </outline>
</glyph>
<glyph name="percent" format="1">
  <advance width="1323"/>
  <unicode hex="0025"/>
  <outline>
    <contour>
      <point x="116" y="1099" type="line"/>
      <point x="116" y="936"/>
      <point x="207" y="800"/>
      <point x="346" y="800" type="curve" smooth="yes"/>
      <point x="481" y="800"/>
      <point x="572" y="936"/>
      <point x="572" y="1099" type="curve" smooth="yes"/>
      <point x="572" y="1176" type="line" smooth="yes"/>
      <point x="572" y="1341"/>
      <point x="480" y="1477"/>
      <point x="344" y="1477" type="curve" smooth="yes"/>
      <point x="207" y="1477"/>
      <point x="116" y="1341"/>
      <point x="116" y="1176" type="curve" smooth="yes"/>
    </contour>
    <contour>
      <point x="162" y="1176" type="line"/>
      <point x="162" y="1299"/>
      <point x="223" y="1422"/>
      <point x="344" y="1422" type="curve" smooth="yes"/>
      <point x="467" y="1422"/>
      <point x="526" y="1299"/>
      <point x="526" y="1176" type="curve" smooth="yes"/>
      <point x="526" y="1099" type="line" smooth="yes"/>
      <point x="526" y="977"/>
      <point x="468" y="855"/>
      <point x="346" y="855" type="curve" smooth="yes"/>
      <point x="221" y="855"/>
      <point x="162" y="978"/>
      <point x="162" y="1099" type="curve" smooth="yes"/>
    </contour>
    <contour>
      <point x="751" y="279" type="line"/>
      <point x="751" y="115"/>
      <point x="842" y="-21"/>
      <point x="980" y="-21" type="curve" smooth="yes"/>
      <point x="1116" y="-21"/>
      <point x="1207" y="115"/>
      <point x="1207" y="279" type="curve" smooth="yes"/>
      <point x="1207" y="357" type="line" smooth="yes"/>
      <point x="1207" y="521"/>
      <point x="1116" y="657"/>
      <point x="978" y="657" type="curve" smooth="yes"/>
      <point x="842" y="657"/>
      <point x="751" y="521"/>
      <point x="751" y="357" type="curve" smooth="yes"/>
    </contour>
    <contour>
      <point x="797" y="357" type="line"/>
      <point x="797" y="491"/>
      <point x="858" y="602"/>
      <point x="978" y="602" type="curve" smooth="yes"/>
      <point x="1102" y="602"/>
      <point x="1161" y="491"/>
      <point x="1161" y="357" type="curve" smooth="yes"/>
      <point x="1161" y="279" type="line" smooth="yes"/>
      <point x="1161" y="156"/>
      <point x="1103" y="34"/>
      <point x="980" y="34" type="curve" smooth="yes"/>
      <point x="855" y="34"/>
      <point x="797" y="157"/>
      <point x="797" y="279" type="curve" smooth="yes"/>
    </contour>
    <contour>
      <point x="972" y="1269" type="line"/>
      <point x="934" y="1300" type="line"/>
      <point x="337" y="162" type="line"/>
      <point x="374" y="131" type="line"/>
    </contour>
  </outline>
</glyph>
<glyph name="ampersand" format="1">
  <advance width="1087"/>
  <unicode hex="0026"/>
  <outline>
    <contour>
      <point x="332" y="762" type="line"/>
      <point x="216" y="646"/>
      <point x="117" y="518"/>
      <point x="117" y="352" type="curve"/>
      <point x="117" y="124"/>
      <point x="255" y="-20"/>
      <point x="481" y="-20" type="curve"/>
      <point x="629" y="-20"/>
      <point x="747" y="65"/>
      <point x="841" y="181" type="curve" smooth="yes"/>
      <point x="850" y="192"/>
      <point x="846" y="186"/>
      <point x="854" y="199" type="curve" smooth="yes"/>
      <point x="929" y="311"/>
      <point x="977" y="450"/>
      <point x="977" y="632" type="curve"/>
      <point x="931" y="632" type="line"/>
      <point x="931" y="274"/>
      <point x="715" y="34"/>
      <point x="481" y="34" type="curve" smooth="yes"/>
      <point x="264" y="34"/>
      <point x="162" y="187"/>
      <point x="162" y="352" type="curve"/>
      <point x="162" y="440"/>
      <point x="191" y="551"/>
      <point x="358" y="723" type="curve" smooth="yes"/>
      <point x="563" y="918" type="line" smooth="yes"/>
      <point x="626" y="979"/>
      <point x="724" y="1090"/>
      <point x="724" y="1213" type="curve"/>
      <point x="724" y="1358"/>
      <point x="642" y="1477"/>
      <point x="492" y="1477" type="curve" smooth="yes"/>
      <point x="334" y="1477"/>
      <point x="236" y="1349"/>
      <point x="236" y="1167" type="curve" smooth="yes"/>
      <point x="236" y="1018"/>
      <point x="306" y="893"/>
      <point x="430" y="725" type="curve" smooth="yes"/>
      <point x="968" y="0" type="line"/>
      <point x="1025" y="0" type="line"/>
      <point x="414" y="826" type="line" smooth="yes"/>
      <point x="323" y="951"/>
      <point x="282" y="1066"/>
      <point x="282" y="1169" type="curve" smooth="yes"/>
      <point x="282" y="1307"/>
      <point x="355" y="1423"/>
      <point x="492" y="1423" type="curve" smooth="yes"/>
      <point x="613" y="1423"/>
      <point x="677" y="1323"/>
      <point x="677" y="1213" type="curve"/>
      <point x="677" y="1115"/>
      <point x="613" y="1027"/>
      <point x="542" y="960" type="curve"/>
    </contour>
  </outline>
</glyph>
<glyph name="parenleft" format="1">
  <advance width="550"/>
  <unicode hex="0028"/>
  <outline>
    <contour>
      <point x="144" y="566" type="line"/>
      <point x="144" y="80"/>
      <point x="305" y="-329"/>
      <point x="492" y="-470" type="curve"/>
      <point x="508" y="-427" type="line"/>
      <point x="342" y="-296"/>
      <point x="190" y="132"/>
      <point x="190" y="564" type="curve"/>
      <point x="190" y="590" type="line" smooth="yes"/>
      <point x="190" y="1022"/>
      <point x="342" y="1450"/>
      <point x="508" y="1580" type="curve"/>
      <point x="492" y="1623" type="line"/>
      <point x="305" y="1482"/>
      <point x="144" y="1047"/>
      <point x="144" y="586" type="curve"/>
    </contour>
  </outline>
</glyph>
<glyph name="parenright" format="1">
  <advance width="563"/>
  <unicode hex="0029"/>
  <outline>
    <contour>
      <point x="407" y="586" type="line"/>
      <point x="407" y="1047"/>
      <point x="247" y="1482"/>
      <point x="59" y="1623" type="curve"/>
      <point x="44" y="1580" type="line"/>
      <point x="210" y="1450"/>
      <point x="362" y="1022"/>
      <point x="362" y="590" type="curve" smooth="yes"/>
      <point x="362" y="564" type="line"/>
      <point x="362" y="132"/>
      <point x="210" y="-296"/>
      <point x="44" y="-427" type="curve"/>
      <point x="59" y="-470" type="line"/>
      <point x="247" y="-329"/>
      <point x="407" y="80"/>
      <point x="407" y="566" type="curve"/>
    </contour>
  </outline>
</glyph>
<glyph name="asterisk" format="1">
  <advance width="856"/>
  <unicode hex="002A"/>
  <outline>
    <contour>
      <point x="159" y="693" type="line"/>
      <point x="204" y="661" type="line"/>
      <point x="432" y="986" type="line"/>
      <point x="674" y="664" type="line"/>
      <point x="721" y="697" type="line"/>
      <point x="472" y="1014" type="line"/>
      <point x="832" y="1151" type="line"/>
      <point x="812" y="1204" type="line"/>
      <point x="460" y="1061" type="line"/>
      <point x="467" y="1456" type="line"/>
      <point x="411" y="1456" type="line"/>
      <point x="410" y="1062" type="line"/>
      <point x="48" y="1195" type="line"/>
      <point x="30" y="1141" type="line"/>
      <point x="393" y="1017" type="line"/>
    </contour>
  </outline>
</glyph>
<glyph name="plus" format="1">
  <advance width="1007"/>
  <unicode hex="002B"/>
  <outline>
    <contour>
      <point x="920" y="702" type="line"/>
      <point x="81" y="702" type="line"/>
      <point x="81" y="649" type="line"/>
      <point x="920" y="649" type="line"/>
    </contour>
    <contour>
      <point x="516" y="1206" type="line"/>
      <point x="469" y="1206" type="line"/>
      <point x="469" y="146" type="line"/>
      <point x="516" y="146" type="line"/>
    </contour>
  </outline>
</glyph>
<glyph name="comma" format="1">
  <advance width="383"/>
  <unicode hex="002C"/>
  <outline>
    <contour>
      <point x="235" y="159" type="line"/>
      <point x="181" y="159" type="line"/>
      <point x="181" y="25" type="line"/>
      <point x="181" y="-78"/>
      <point x="152" y="-145"/>
      <point x="92" y="-223" type="curve"/>
      <point x="129" y="-255" type="line"/>
      <point x="192" y="-188"/>
      <point x="235" y="-96"/>
      <point x="235" y="27" type="curve"/>
    </contour>
    <contour>
      <point x="209" y="214" type="move" name="_bottom"/>
    </contour>
    <contour>
      <point x="182" y="25" type="move" name="_right"/>
    </contour>
  </outline>
</glyph>
<glyph name="hyphen" format="1">
  <advance width="550"/>
  <unicode hex="002D"/>
  <outline>
    <contour>
      <point x="466" y="693" type="line"/>
      <point x="71" y="693" type="line"/>
      <point x="71" y="639" type="line"/>
      <point x="466" y="639" type="line"/>
    </contour>
  </outline>
</glyph>
<glyph name="zero" format="1">
  <advance width="982"/>
  <unicode hex="0030"/>
  <outline>
    <contour>
      <point x="857" y="862" type="line"/>
      <point x="857" y="1242"/>
      <point x="726" y="1477"/>
      <point x="490" y="1477" type="curve" smooth="yes"/>
      <point x="255" y="1477"/>
      <point x="125" y="1242"/>
      <point x="125" y="862" type="curve"/>
      <point x="125" y="594" type="line"/>
      <point x="125" y="214"/>
      <point x="258" y="-20"/>
      <point x="492" y="-20" type="curve" smooth="yes"/>
      <point x="729" y="-20"/>
      <point x="857" y="214"/>
      <point x="857" y="594" type="curve"/>
    </contour>
    <contour>
      <point x="811" y="596" type="line"/>
      <point x="811" y="268"/>
      <point x="709" y="34"/>
      <point x="492" y="34" type="curve" smooth="yes"/>
      <point x="276" y="34"/>
      <point x="170" y="268"/>
      <point x="170" y="596" type="curve" smooth="yes"/>
      <point x="170" y="862" type="line" smooth="yes"/>
      <point x="170" y="1196"/>
      <point x="275" y="1423"/>
      <point x="490" y="1423" type="curve" smooth="yes"/>
      <point x="707" y="1423"/>
      <point x="811" y="1196"/>
      <point x="811" y="862" type="curve"/>
    </contour>
  </outline>
</glyph>
<glyph name="one" format="1">
  <advance width="982"/>
  <unicode hex="0031"/>
  <outline>
    <contour>
      <point x="574" y="1460" type="line"/>
      <point x="564" y="1460" type="line"/>
      <point x="177" y="1290" type="line"/>
      <point x="177" y="1231" type="line"/>
      <point x="528" y="1388" type="line"/>
      <point x="528" y="0" type="line"/>
      <point x="574" y="0" type="line"/>
    </contour>
  </outline>
</glyph>
<glyph name="two" format="1">
  <advance width="982"/>
  <unicode hex="0032"/>
  <outline>
    <contour>
      <point x="880" y="54" type="line"/>
      <point x="208" y="54" type="line"/>
      <point x="563" y="546" type="line" smooth="yes"/>
      <point x="687" y="719"/>
      <point x="815" y="905"/>
      <point x="815" y="1085" type="curve" smooth="yes"/>
      <point x="815" y="1340"/>
      <point x="680" y="1476"/>
      <point x="470" y="1476" type="curve" smooth="yes"/>
      <point x="262" y="1476"/>
      <point x="118" y="1281"/>
      <point x="118" y="1045" type="curve"/>
      <point x="164" y="1045" type="line"/>
      <point x="164" y="1261"/>
      <point x="295" y="1422"/>
      <point x="470" y="1422" type="curve" smooth="yes"/>
      <point x="666" y="1422"/>
      <point x="768" y="1291"/>
      <point x="768" y="1085" type="curve" smooth="yes"/>
      <point x="768" y="956"/>
      <point x="701" y="813"/>
      <point x="549" y="604" type="curve" smooth="yes"/>
      <point x="149" y="54" type="line"/>
      <point x="149" y="0" type="line"/>
      <point x="880" y="0" type="line"/>
    </contour>
  </outline>
</glyph>
<glyph name="three" format="1">
  <advance width="982"/>
  <unicode hex="0033"/>
  <outline>
    <contour>
      <point x="370" y="770" type="line"/>
      <point x="370" y="720" type="line"/>
      <point x="467" y="720" type="line" smooth="yes"/>
      <point x="691" y="720"/>
      <point x="839" y="881"/>
      <point x="839" y="1081" type="curve" smooth="yes"/>
      <point x="839" y="1326"/>
      <point x="704" y="1476"/>
      <point x="494" y="1476" type="curve" smooth="yes"/>
      <point x="297" y="1476"/>
      <point x="133" y="1323"/>
      <point x="133" y="1074" type="curve"/>
      <point x="178" y="1074" type="line"/>
      <point x="178" y="1290"/>
      <point x="317" y="1422"/>
      <point x="494" y="1422" type="curve" smooth="yes"/>
      <point x="702" y="1422"/>
      <point x="794" y="1268"/>
      <point x="794" y="1085" type="curve" smooth="yes"/>
      <point x="794" y="917"/>
      <point x="678" y="770"/>
      <point x="464" y="770" type="curve" smooth="yes"/>
    </contour>
    <contour>
      <point x="370" y="714" type="line"/>
      <point x="464" y="714" type="line" smooth="yes"/>
      <point x="672" y="714"/>
      <point x="821" y="620"/>
      <point x="821" y="382" type="curve" smooth="yes"/>
      <point x="821" y="165"/>
      <point x="705" y="34"/>
      <point x="501" y="34" type="curve" smooth="yes"/>
      <point x="302" y="34"/>
      <point x="152" y="189"/>
      <point x="152" y="405" type="curve"/>
      <point x="107" y="405" type="line"/>
      <point x="107" y="111"/>
      <point x="317" y="-20"/>
      <point x="501" y="-20" type="curve" smooth="yes"/>
      <point x="712" y="-20"/>
      <point x="866" y="128"/>
      <point x="866" y="386" type="curve" smooth="yes"/>
      <point x="866" y="629"/>
      <point x="712" y="763"/>
      <point x="467" y="763" type="curve" smooth="yes"/>
      <point x="370" y="763" type="line"/>
    </contour>
  </outline>
</glyph>
<glyph name="four" format="1">
  <advance width="982"/>
  <unicode hex="0034"/>
  <outline>
    <contour>
      <point x="939" y="451" type="line"/>
      <point x="159" y="451" type="line"/>
      <point x="611" y="1253" type="line"/>
      <point x="715" y="1456" type="line"/>
      <point x="673" y="1456" type="line"/>
      <point x="89" y="427" type="line"/>
      <point x="89" y="397" type="line"/>
      <point x="939" y="397" type="line"/>
    </contour>
    <contour>
      <point x="727" y="1456" type="line"/>
      <point x="682" y="1456" type="line"/>
      <point x="682" y="0" type="line"/>
      <point x="727" y="0" type="line"/>
    </contour>
  </outline>
</glyph>
<glyph name="five" format="1">
  <advance width="982"/>
  <unicode hex="0035"/>
  <outline>
    <contour>
      <point x="248" y="746" type="line"/>
      <point x="312" y="817"/>
      <point x="390" y="862"/>
      <point x="520" y="862" type="curve"/>
      <point x="722" y="862"/>
      <point x="834" y="690"/>
      <point x="834" y="462" type="curve" smooth="yes"/>
      <point x="834" y="182"/>
      <point x="737" y="34"/>
      <point x="536" y="34" type="curve" smooth="yes"/>
      <point x="348" y="34"/>
      <point x="237" y="157"/>
      <point x="219" y="383" type="curve"/>
      <point x="173" y="383" type="line"/>
      <point x="191" y="110"/>
      <point x="344" y="-20"/>
      <point x="536" y="-20" type="curve" smooth="yes"/>
      <point x="783" y="-20"/>
      <point x="880" y="185"/>
      <point x="880" y="464" type="curve" smooth="yes"/>
      <point x="880" y="748"/>
      <point x="730" y="916"/>
      <point x="519" y="916" type="curve"/>
      <point x="405" y="916"/>
      <point x="303" y="860"/>
      <point x="263" y="819" type="curve"/>
      <point x="312" y="1403" type="line"/>
      <point x="868" y="1403" type="line"/>
      <point x="868" y="1456" type="line"/>
      <point x="271" y="1456" type="line"/>
      <point x="214" y="762" type="line"/>
    </contour>
  </outline>
</glyph>
<glyph name="six" format="1">
  <advance width="982"/>
  <unicode hex="0036"/>
  <outline>
    <contour>
      <point x="710" y="1476" type="line" name="hr00"/>
      <point x="392" y="1476"/>
      <point x="128" y="1241"/>
      <point x="128" y="660" type="curve" smooth="yes"/>
      <point x="128" y="492" type="line" smooth="yes"/>
      <point x="128" y="177"/>
      <point x="299" y="-20"/>
      <point x="526" y="-20" type="curve" smooth="yes"/>
      <point x="729" y="-20"/>
      <point x="871" y="197"/>
      <point x="871" y="480" type="curve" smooth="yes"/>
      <point x="871" y="754"/>
      <point x="742" y="957"/>
      <point x="517" y="957" type="curve" smooth="yes"/>
      <point x="294" y="957"/>
      <point x="133" y="762"/>
      <point x="133" y="558" type="curve"/>
      <point x="166" y="556" type="line"/>
      <point x="166" y="748"/>
      <point x="334" y="903"/>
      <point x="511" y="903" type="curve" smooth="yes"/>
      <point x="722" y="903"/>
      <point x="826" y="716"/>
      <point x="826" y="480" type="curve" smooth="yes"/>
      <point x="826" y="244"/>
      <point x="710" y="33"/>
      <point x="526" y="33" type="curve" smooth="yes"/>
      <point x="319" y="33"/>
      <point x="173" y="215"/>
      <point x="173" y="493" type="curve"/>
      <point x="173" y="681" type="line" smooth="yes"/>
      <point x="173" y="1204"/>
      <point x="419" y="1422"/>
      <point x="710" y="1422" type="curve" smooth="yes"/>
      <point x="726" y="1422" type="line"/>
      <point x="726" y="1476" type="line"/>
    </contour>
  </outline>
</glyph>
<glyph name="seven" format="1">
  <advance width="982"/>
  <unicode hex="0037"/>
  <outline>
    <contour>
      <point x="866" y="1456" type="line"/>
      <point x="85" y="1456" type="line"/>
      <point x="85" y="1402" type="line"/>
      <point x="814" y="1402" type="line"/>
      <point x="281" y="0" type="line"/>
      <point x="327" y="0" type="line"/>
      <point x="866" y="1422" type="line"/>
    </contour>
  </outline>
</glyph>
<glyph name="eight" format="1">
  <advance width="982"/>
  <unicode hex="0038"/>
  <outline>
    <contour>
      <point x="884" y="379" type="curve" smooth="yes"/>
      <point x="884" y="608"/>
      <point x="709" y="765"/>
      <point x="493" y="765" type="curve" smooth="yes"/>
      <point x="274" y="765"/>
      <point x="104" y="608"/>
      <point x="104" y="379" type="curve" smooth="yes"/>
      <point x="104" y="114"/>
      <point x="274" y="-20"/>
      <point x="495" y="-20" type="curve" smooth="yes"/>
      <point x="710" y="-20"/>
      <point x="884" y="114"/>
    </contour>
    <contour>
      <point x="837" y="374" type="curve" smooth="yes"/>
      <point x="837" y="154"/>
      <point x="685" y="34"/>
      <point x="495" y="34" type="curve" smooth="yes"/>
      <point x="299" y="34"/>
      <point x="149" y="154"/>
      <point x="149" y="374" type="curve" smooth="yes"/>
      <point x="149" y="584"/>
      <point x="299" y="718"/>
      <point x="493" y="718" type="curve" smooth="yes"/>
      <point x="684" y="718"/>
      <point x="837" y="584"/>
    </contour>
    <contour>
      <point x="848" y="1086" type="curve" smooth="yes"/>
      <point x="848" y="1339"/>
      <point x="689" y="1476"/>
      <point x="491" y="1476" type="curve" smooth="yes"/>
      <point x="291" y="1476"/>
      <point x="138" y="1339"/>
      <point x="138" y="1086" type="curve" smooth="yes"/>
      <point x="138" y="871"/>
      <point x="291" y="723"/>
      <point x="493" y="723" type="curve" smooth="yes"/>
      <point x="690" y="723"/>
      <point x="848" y="871"/>
    </contour>
    <contour>
      <point x="803" y="1091" type="curve" smooth="yes"/>
      <point x="803" y="894"/>
      <point x="665" y="772"/>
      <point x="493" y="772" type="curve" smooth="yes"/>
      <point x="316" y="772"/>
      <point x="184" y="894"/>
      <point x="184" y="1091" type="curve" smooth="yes"/>
      <point x="184" y="1297"/>
      <point x="316" y="1422"/>
      <point x="491" y="1422" type="curve" smooth="yes"/>
      <point x="663" y="1422"/>
      <point x="803" y="1285"/>
    </contour>
  </outline>
</glyph>
<glyph name="nine" format="1">
  <advance width="982"/>
  <unicode hex="0039"/>
  <outline>
    <contour>
      <point x="272" y="34" type="line"/>
      <point x="270" y="-20" type="line"/>
      <point x="299" y="-20" type="line" smooth="yes"/>
      <point x="674" y="-20"/>
      <point x="854" y="256"/>
      <point x="854" y="740" type="curve" smooth="yes"/>
      <point x="854" y="903" type="line" smooth="yes"/>
      <point x="854" y="1286"/>
      <point x="710" y="1476"/>
      <point x="466" y="1476" type="curve" smooth="yes"/>
      <point x="250" y="1476"/>
      <point x="107" y="1240"/>
      <point x="107" y="958" type="curve" smooth="yes"/>
      <point x="107" y="695"/>
      <point x="244" y="468"/>
      <point x="459" y="468" type="curve" smooth="yes"/>
      <point x="676" y="468"/>
      <point x="846" y="660"/>
      <point x="846" y="927" type="curve"/>
      <point x="819" y="925" type="line"/>
      <point x="819" y="774"/>
      <point x="705" y="522"/>
      <point x="459" y="522" type="curve" smooth="yes"/>
      <point x="265" y="522"/>
      <point x="152" y="734"/>
      <point x="152" y="958" type="curve" smooth="yes"/>
      <point x="152" y="1194"/>
      <point x="275" y="1422"/>
      <point x="469" y="1422" type="curve" smooth="yes"/>
      <point x="683" y="1422"/>
      <point x="809" y="1248"/>
      <point x="809" y="902" type="curve"/>
      <point x="809" y="718" type="line"/>
      <point x="809" y="297"/>
      <point x="650" y="34"/>
      <point x="299" y="34" type="curve" smooth="yes"/>
    </contour>
  </outline>
</glyph>
<glyph name="less" format="1">
  <advance width="925"/>
  <unicode hex="003C"/>
  <outline>
    <contour>
      <point x="118" y="683" type="line"/>
      <point x="89" y="683" type="line"/>
      <point x="89" y="641" type="line"/>
      <point x="792" y="262" type="line"/>
      <point x="792" y="321" type="line"/>
    </contour>
    <contour>
      <point x="792" y="1011" type="line"/>
      <point x="792" y="1069" type="line"/>
      <point x="89" y="691" type="line"/>
      <point x="89" y="649" type="line"/>
      <point x="119" y="649" type="line"/>
    </contour>
  </outline>
</glyph>
<glyph name="equal" format="1">
  <advance width="999"/>
  <unicode hex="003D"/>
  <outline>
    <contour>
      <point x="844" y="897" type="line"/>
      <point x="143" y="897" type="line"/>
      <point x="143" y="843" type="line"/>
      <point x="844" y="843" type="line"/>
    </contour>
    <contour>
      <point x="844" y="490" type="line"/>
      <point x="143" y="490" type="line"/>
      <point x="143" y="436" type="line"/>
      <point x="844" y="436" type="line"/>
    </contour>
  </outline>
</glyph>
<glyph name="greater" format="1">
  <advance width="925"/>
  <unicode hex="003E"/>
  <outline>
    <contour>
      <point x="787" y="650" type="line"/>
      <point x="818" y="651" type="line"/>
      <point x="818" y="694" type="line"/>
      <point x="116" y="1072" type="line"/>
      <point x="116" y="1013" type="line"/>
    </contour>
    <contour>
      <point x="116" y="324" type="line"/>
      <point x="116" y="265" type="line"/>
      <point x="818" y="644" type="line"/>
      <point x="818" y="688" type="line"/>
      <point x="789" y="688" type="line"/>
    </contour>
  </outline>
</glyph>
<glyph name="question" format="1">
  <advance width="790"/>
  <unicode hex="003F"/>
  <outline>
    <contour>
      <point x="397" y="400" type="line"/>
      <point x="397" y="515"/>
      <point x="425" y="621"/>
      <point x="508" y="698" type="curve" smooth="yes"/>
      <point x="634" y="833"/>
      <point x="693" y="934"/>
      <point x="693" y="1110" type="curve" smooth="yes"/>
      <point x="693" y="1318"/>
      <point x="592" y="1476"/>
      <point x="405" y="1476" type="curve" smooth="yes"/>
      <point x="240" y="1476"/>
      <point x="101" y="1346"/>
      <point x="98" y="1116" type="curve"/>
      <point x="143" y="1116" type="line"/>
      <point x="147" y="1296"/>
      <point x="243" y="1423"/>
      <point x="405" y="1423" type="curve" smooth="yes"/>
      <point x="567" y="1423"/>
      <point x="647" y="1291"/>
      <point x="647" y="1112" type="curve" smooth="yes"/>
      <point x="647" y="929"/>
      <point x="587" y="857"/>
      <point x="485" y="740" type="curve" smooth="yes"/>
      <point x="385" y="632"/>
      <point x="353" y="548"/>
      <point x="352" y="400" type="curve"/>
    </contour>
    <contour>
      <point x="332" y="49" type="curve" smooth="yes"/>
      <point x="332" y="18"/>
      <point x="352" y="-6"/>
      <point x="378" y="-6" type="curve" smooth="yes"/>
      <point x="404" y="-6"/>
      <point x="425" y="18"/>
      <point x="425" y="49" type="curve" smooth="yes"/>
      <point x="425" y="80"/>
      <point x="404" y="105"/>
      <point x="378" y="105" type="curve" smooth="yes"/>
      <point x="352" y="105"/>
      <point x="332" y="80"/>
    </contour>
  </outline>
</glyph>
<glyph name="at" format="1">
  <advance width="1638"/>
  <unicode hex="0040"/>
  <outline>
    <contour>
      <point x="1504" y="523" type="curve"/>
      <point x="1524" y="1067"/>
      <point x="1324" y="1411"/>
      <point x="861" y="1411" type="curve" smooth="yes"/>
      <point x="437" y="1411"/>
      <point x="149" y="1049"/>
      <point x="128" y="478" type="curve" smooth="yes"/>
      <point x="108" y="-96"/>
      <point x="355" y="-453"/>
      <point x="781" y="-453" type="curve" smooth="yes"/>
      <point x="879" y="-453"/>
      <point x="1010" y="-421"/>
      <point x="1082" y="-364" type="curve"/>
      <point x="1062" y="-318" type="line"/>
      <point x="993" y="-366"/>
      <point x="883" y="-398"/>
      <point x="784" y="-398" type="curve" smooth="yes"/>
      <point x="375" y="-398"/>
      <point x="154" y="-17"/>
      <point x="175" y="478" type="curve" smooth="yes"/>
      <point x="198" y="1017"/>
      <point x="488" y="1354"/>
      <point x="857" y="1354" type="curve" smooth="yes"/>
      <point x="1302" y="1354"/>
      <point x="1479" y="1033"/>
      <point x="1456" y="523" type="curve" smooth="yes"/>
      <point x="1446" y="243"/>
      <point x="1359" y="35"/>
      <point x="1196" y="35" type="curve" smooth="yes"/>
      <point x="1142" y="35"/>
      <point x="1025" y="61"/>
      <point x="1041" y="293" type="curve"/>
      <point x="1083" y="878" type="line"/>
      <point x="1036" y="878" type="line"/>
      <point x="995" y="293" type="line" smooth="yes"/>
      <point x="983" y="101"/>
      <point x="1062" y="-20"/>
      <point x="1193" y="-20" type="curve"/>
      <point x="1403" y="-20"/>
      <point x="1497" y="267"/>
    </contour>
    <contour>
      <point x="551" y="436" type="curve" smooth="yes"/>
      <point x="582" y="780"/>
      <point x="723" y="933"/>
      <point x="870" y="933" type="curve" smooth="yes"/>
      <point x="949" y="933"/>
      <point x="1004" y="898"/>
      <point x="1040" y="844" type="curve"/>
      <point x="1083" y="878" type="line"/>
      <point x="1028" y="935"/>
      <point x="978" y="988"/>
      <point x="873" y="988" type="curve" smooth="yes"/>
      <point x="682" y="988"/>
      <point x="532" y="773"/>
      <point x="506" y="436" type="curve" smooth="yes"/>
      <point x="485" y="162"/>
      <point x="563" y="-20"/>
      <point x="716" y="-20" type="curve" smooth="yes"/>
      <point x="871" y="-20"/>
      <point x="979" y="102"/>
      <point x="1036" y="336" type="curve"/>
      <point x="1010" y="386" type="line"/>
      <point x="940" y="91"/>
      <point x="823" y="34"/>
      <point x="715" y="34" type="curve" smooth="yes"/>
      <point x="584" y="34"/>
      <point x="531" y="213"/>
    </contour>
  </outline>
</glyph>
<glyph name="A" format="1">
  <advance width="1067"/>
  <unicode hex="0041"/>
  <outline>
    <contour>
      <point x="534" y="1612" type="move" name="top"/>
    </contour>
    <contour>
      <point x="556" y="0" type="move" name="bottom"/>
    </contour>
    <contour>
      <point x="1019" y="0" type="move" name="right"/>
    </contour>
    <contour>
      <point x="256" y="1454" type="move" name="tonos"/>
    </contour>
    <contour>
      <point x="1019" y="0" type="move" name="ogonek"/>
    </contour>
    <contour>
      <point x="1047" y="1600" type="move" name="top_dd"/>
    </contour>
    <contour>
      <point x="1047" y="-407" type="move" name="bottom_dd"/>
    </contour>
    <contour>
      <point x="1047" y="1612" type="move" name="top0315"/>
    </contour>
    <contour>
      <point x="539" y="1410" type="line"/>
      <point x="549" y="1456" type="line"/>
      <point x="506" y="1456" type="line"/>
      <point x="48" y="0" type="line"/>
      <point x="97" y="0" type="line"/>
    </contour>
    <contour>
      <point x="969" y="0" type="line"/>
      <point x="1019" y="0" type="line"/>
      <point x="561" y="1456" type="line"/>
      <point x="518" y="1456" type="line"/>
      <point x="527" y="1410" type="line"/>
    </contour>
    <contour>
      <point x="840" y="489" type="line"/>
      <point x="227" y="489" type="line"/>
      <point x="227" y="435" type="line"/>
      <point x="840" y="435" type="line"/>
    </contour>
  </outline>
</glyph>
<glyph name="B" format="1">
  <advance width="1077"/>
  <unicode hex="0042"/>
  <outline>
    <contour>
      <point x="595" y="719" type="line"/>
      <point x="667" y="749" type="line"/>
      <point x="824" y="768"/>
      <point x="910" y="903"/>
      <point x="910" y="1083" type="curve"/>
      <point x="910" y="1340"/>
      <point x="757" y="1456"/>
      <point x="510" y="1456" type="curve"/>
      <point x="188" y="1456" type="line"/>
      <point x="188" y="0" type="line"/>
      <point x="233" y="0" type="line"/>
      <point x="233" y="1402" type="line"/>
      <point x="510" y="1402" type="line"/>
      <point x="742" y="1402"/>
      <point x="863" y="1296"/>
      <point x="863" y="1087" type="curve"/>
      <point x="863" y="874"/>
      <point x="748" y="773"/>
      <point x="527" y="773" type="curve"/>
      <point x="214" y="773" type="line"/>
      <point x="216" y="719" type="line"/>
    </contour>
    <contour>
      <point x="587" y="0" type="line"/>
      <point x="810" y="0"/>
      <point x="965" y="142"/>
      <point x="965" y="401" type="curve" smooth="yes"/>
      <point x="965" y="579"/>
      <point x="847" y="732"/>
      <point x="692" y="754" type="curve"/>
      <point x="689" y="773" type="line"/>
      <point x="399" y="773" type="line"/>
      <point x="397" y="719" type="line"/>
      <point x="595" y="719" type="line" smooth="yes"/>
      <point x="812" y="719"/>
      <point x="920" y="566"/>
      <point x="920" y="399" type="curve" smooth="yes"/>
      <point x="920" y="182"/>
      <point x="793" y="54"/>
      <point x="587" y="54" type="curve" smooth="yes"/>
      <point x="228" y="54" type="line"/>
      <point x="214" y="0" type="line"/>
    </contour>
    <contour>
      <point x="490" y="1612" type="move" name="top"/>
    </contour>
    <contour>
      <point x="490" y="10" type="move" name="bottom"/>
    </contour>
    <contour>
      <point x="1057" y="1600" type="move" name="top_dd"/>
    </contour>
    <contour>
      <point x="1057" y="-407" type="move" name="bottom_dd"/>
    </contour>
    <contour>
      <point x="1057" y="1612" type="move" name="top0315"/>
    </contour>
  </outline>
</glyph>
<glyph name="C" format="1">
  <advance width="1155"/>
  <unicode hex="0043"/>
  <outline>
    <contour>
      <point x="974" y="446" type="line"/>
      <point x="949" y="119"/>
      <point x="810" y="33"/>
      <point x="584" y="33" type="curve" smooth="yes"/>
      <point x="346" y="33"/>
      <point x="195" y="218"/>
      <point x="195" y="559" type="curve" smooth="yes"/>
      <point x="195" y="919" type="line" smooth="yes"/>
      <point x="195" y="1246"/>
      <point x="346" y="1422"/>
      <point x="584" y="1422" type="curve" smooth="yes"/>
      <point x="815" y="1422"/>
      <point x="949" y="1318"/>
      <point x="974" y="1012" type="curve"/>
      <point x="1020" y="1012" type="line"/>
      <point x="994" y="1362"/>
      <point x="829" y="1476"/>
      <point x="584" y="1476" type="curve" smooth="yes"/>
      <point x="315" y="1476"/>
      <point x="149" y="1273"/>
      <point x="149" y="917" type="curve"/>
      <point x="149" y="559" type="line"/>
      <point x="149" y="191"/>
      <point x="315" y="-21"/>
      <point x="584" y="-21" type="curve" smooth="yes"/>
      <point x="829" y="-21"/>
      <point x="994" y="92"/>
      <point x="1020" y="446" type="curve"/>
    </contour>
    <contour>
      <point x="590" y="1633" type="move" name="top"/>
    </contour>
    <contour>
      <point x="590" y="-10" type="move" name="bottom"/>
    </contour>
    <contour>
      <point x="1135" y="1600" type="move" name="top_dd"/>
    </contour>
    <contour>
      <point x="1135" y="-407" type="move" name="bottom_dd"/>
    </contour>
    <contour>
      <point x="1135" y="1633" type="move" name="top0315"/>
    </contour>
  </outline>
</glyph>
<glyph name="D" format="1">
  <advance width="1166"/>
  <unicode hex="0044"/>
  <outline>
    <contour>
      <point x="527" y="0" type="line"/>
      <point x="815" y="0"/>
      <point x="1023" y="204"/>
      <point x="1023" y="559" type="curve"/>
      <point x="1023" y="897" type="line"/>
      <point x="1023" y="1252"/>
      <point x="815" y="1456"/>
      <point x="527" y="1456" type="curve"/>
      <point x="223" y="1456" type="line"/>
      <point x="223" y="1402" type="line"/>
      <point x="527" y="1402" type="line"/>
      <point x="789" y="1402"/>
      <point x="978" y="1215"/>
      <point x="978" y="900" type="curve"/>
      <point x="978" y="559" type="line" smooth="yes"/>
      <point x="978" y="241"/>
      <point x="789" y="54"/>
      <point x="527" y="54" type="curve"/>
      <point x="230" y="54" type="line"/>
      <point x="228" y="0" type="line"/>
    </contour>
    <contour>
      <point x="233" y="1456" type="line"/>
      <point x="188" y="1456" type="line"/>
      <point x="188" y="0" type="line"/>
      <point x="233" y="0" type="line"/>
    </contour>
    <contour>
      <point x="516" y="1612" type="move" name="top"/>
    </contour>
    <contour>
      <point x="322" y="738" type="move" name="cross"/>
    </contour>
    <contour>
      <point x="516" y="10" type="move" name="bottom"/>
    </contour>
    <contour>
      <point x="1146" y="1600" type="move" name="top_dd"/>
    </contour>
    <contour>
      <point x="1146" y="-407" type="move" name="bottom_dd"/>
    </contour>
    <contour>
      <point x="1146" y="1612" type="move" name="top0315"/>
    </contour>
  </outline>
</glyph>
<glyph name="E" format="1">
  <advance width="1019"/>
  <unicode hex="0045"/>
  <outline>
    <contour>
      <point x="932" y="54" type="line"/>
      <point x="204" y="54" type="line"/>
      <point x="204" y="0" type="line"/>
      <point x="932" y="0" type="line"/>
    </contour>
    <contour>
      <point x="233" y="1456" type="line"/>
      <point x="188" y="1456" type="line"/>
      <point x="188" y="0" type="line"/>
      <point x="233" y="0" type="line"/>
    </contour>
    <contour>
      <point x="847" y="776" type="line"/>
      <point x="204" y="776" type="line"/>
      <point x="204" y="722" type="line"/>
      <point x="847" y="722" type="line"/>
    </contour>
    <contour>
      <point x="932" y="1456" type="line"/>
      <point x="204" y="1456" type="line"/>
      <point x="204" y="1402" type="line"/>
      <point x="932" y="1402" type="line"/>
    </contour>
    <contour>
      <point x="540" y="1612" type="move" name="top"/>
    </contour>
    <contour>
      <point x="540" y="10" type="move" name="bottom"/>
    </contour>
    <contour>
      <point x="-39" y="1457" type="move" name="tonos"/>
    </contour>
    <contour>
      <point x="883" y="0" type="move" name="ogonek"/>
    </contour>
    <contour>
      <point x="999" y="1600" type="move" name="top_dd"/>
    </contour>
    <contour>
      <point x="999" y="-407" type="move" name="bottom_dd"/>
    </contour>
    <contour>
      <point x="999" y="1612" type="move" name="top0315"/>
    </contour>
  </outline>
</glyph>
<glyph name="F" format="1">
  <advance width="1024"/>
  <unicode hex="0046"/>
  <outline>
    <contour>
      <point x="233" y="1456" type="line"/>
      <point x="188" y="1456" type="line"/>
      <point x="188" y="0" type="line"/>
      <point x="233" y="0" type="line"/>
    </contour>
    <contour>
      <point x="860" y="772" type="line"/>
      <point x="201" y="772" type="line"/>
      <point x="201" y="716" type="line"/>
      <point x="860" y="716" type="line"/>
    </contour>
    <contour>
      <point x="946" y="1456" type="line"/>
      <point x="201" y="1456" type="line"/>
      <point x="201" y="1402" type="line"/>
      <point x="946" y="1402" type="line"/>
    </contour>
    <contour>
      <point x="298" y="337" type="move" name="cross"/>
    </contour>
    <contour>
      <point x="540" y="1612" type="move" name="top"/>
    </contour>
    <contour>
      <point x="466" y="10" type="move" name="bottom"/>
    </contour>
    <contour>
      <point x="1004" y="1600" type="move" name="top_dd"/>
    </contour>
    <contour>
      <point x="1004" y="-407" type="move" name="bottom_dd"/>
    </contour>
    <contour>
      <point x="1004" y="1612" type="move" name="top0315"/>
    </contour>
  </outline>
</glyph>
<glyph name="G" format="1">
  <advance width="1221"/>
  <unicode hex="0047"/>
  <outline>
    <contour>
      <point x="1050" y="660" type="line"/>
      <point x="631" y="660" type="line"/>
      <point x="631" y="605" type="line"/>
      <point x="1004" y="605" type="line"/>
      <point x="1004" y="181" type="line"/>
      <point x="967" y="138"/>
      <point x="832" y="33"/>
      <point x="632" y="33" type="curve" smooth="yes"/>
      <point x="374" y="33"/>
      <point x="215" y="221"/>
      <point x="215" y="540" type="curve" smooth="yes"/>
      <point x="215" y="940" type="line" smooth="yes"/>
      <point x="215" y="1244"/>
      <point x="369" y="1422"/>
      <point x="618" y="1422" type="curve" smooth="yes"/>
      <point x="873" y="1422"/>
      <point x="978" y="1285"/>
      <point x="1003" y="1062" type="curve"/>
      <point x="1048" y="1062" type="line"/>
      <point x="1025" y="1328"/>
      <point x="883" y="1476"/>
      <point x="618" y="1476" type="curve" smooth="yes"/>
      <point x="348" y="1476"/>
      <point x="170" y="1281"/>
      <point x="170" y="938" type="curve" smooth="yes"/>
      <point x="170" y="540" type="line" smooth="yes"/>
      <point x="170" y="184"/>
      <point x="353" y="-21"/>
      <point x="632" y="-21" type="curve" smooth="yes"/>
      <point x="871" y="-21"/>
      <point x="1010" y="105"/>
      <point x="1050" y="156" type="curve"/>
    </contour>
    <contour>
      <point x="611" y="1633" type="move" name="top"/>
    </contour>
    <contour>
      <point x="632" y="0" type="move" name="bottom"/>
    </contour>
    <contour>
      <point x="1201" y="1600" type="move" name="top_dd"/>
    </contour>
    <contour>
      <point x="1201" y="-407" type="move" name="bottom_dd"/>
    </contour>
    <contour>
      <point x="1201" y="1633" type="move" name="top0315"/>
    </contour>
  </outline>
</glyph>
<glyph name="H" format="1">
  <advance width="1248"/>
  <unicode hex="0048"/>
  <outline>
    <contour>
      <point x="1034" y="776" type="line"/>
      <point x="211" y="776" type="line"/>
      <point x="211" y="722" type="line"/>
      <point x="1034" y="722" type="line"/>
    </contour>
    <contour>
      <point x="233" y="1456" type="line"/>
      <point x="188" y="1456" type="line"/>
      <point x="188" y="0" type="line"/>
      <point x="233" y="0" type="line"/>
    </contour>
    <contour>
      <point x="1060" y="1456" type="line"/>
      <point x="1015" y="1456" type="line"/>
      <point x="1015" y="0" type="line"/>
      <point x="1060" y="0" type="line"/>
    </contour>
    <contour>
      <point x="621" y="1612" type="move" name="top"/>
    </contour>
    <contour>
      <point x="1060" y="0" type="move" name="right"/>
    </contour>
    <contour>
      <point x="-29" y="1457" type="move" name="tonos"/>
    </contour>
    <contour>
      <point x="621" y="10" type="move" name="bottom"/>
    </contour>
    <contour>
      <point x="1228" y="1600" type="move" name="top_dd"/>
    </contour>
    <contour>
      <point x="1228" y="-407" type="move" name="bottom_dd"/>
    </contour>
    <contour>
      <point x="1228" y="1612" type="move" name="top0315"/>
    </contour>
  </outline>
</glyph>
<glyph name="I" format="1">
  <advance width="489"/>
  <unicode hex="0049"/>
  <outline>
    <contour>
      <point x="267" y="1456" type="line"/>
      <point x="222" y="1456" type="line"/>
      <point x="222" y="0" type="line"/>
      <point x="267" y="0" type="line"/>
    </contour>
    <contour>
      <point x="245" y="1612" type="move" name="top"/>
    </contour>
    <contour>
      <point x="245" y="0" type="move" name="bottom"/>
    </contour>
    <contour>
      <point x="-7" y="1451" type="move" name="tonos"/>
    </contour>
    <contour>
      <point x="267" y="0" type="move" name="right"/>
    </contour>
    <contour>
      <point x="262" y="0" type="move" name="ogonek"/>
    </contour>
    <contour>
      <point x="469" y="1600" type="move" name="top_dd"/>
    </contour>
    <contour>
      <point x="469" y="-407" type="move" name="bottom_dd"/>
    </contour>
    <contour>
      <point x="469" y="1612" type="move" name="top0315"/>
    </contour>
  </outline>
</glyph>
<glyph name="J" format="1">
  <advance width="985"/>
  <unicode hex="004A"/>
  <outline>
    <contour>
      <point x="756" y="442" type="line"/>
      <point x="756" y="173"/>
      <point x="616" y="34"/>
      <point x="448" y="34" type="curve" smooth="yes"/>
      <point x="244" y="34"/>
      <point x="141" y="165"/>
      <point x="141" y="401" type="curve"/>
      <point x="96" y="401" type="line"/>
      <point x="96" y="116"/>
      <point x="233" y="-20"/>
      <point x="448" y="-20" type="curve" smooth="yes"/>
      <point x="647" y="-20"/>
      <point x="801" y="143"/>
      <point x="801" y="442" type="curve"/>
      <point x="801" y="1456" type="line"/>
      <point x="756" y="1456" type="line"/>
    </contour>
    <contour>
      <point x="778" y="1582" type="move" name="top"/>
    </contour>
    <contour>
      <point x="450" y="-10" type="move" name="bottom"/>
    </contour>
    <contour>
      <point x="965" y="1600" type="move" name="top_dd"/>
    </contour>
    <contour>
      <point x="965" y="-407" type="move" name="bottom_dd"/>
    </contour>
    <contour>
      <point x="965" y="1582" type="move" name="top0315"/>
    </contour>
  </outline>
</glyph>
<glyph name="K" format="1">
  <advance width="1132"/>
  <unicode hex="004B"/>
  <outline>
    <contour>
      <point x="233" y="1456" type="line"/>
      <point x="188" y="1456" type="line"/>
      <point x="188" y="0" type="line"/>
      <point x="233" y="0" type="line"/>
    </contour>
    <contour>
      <point x="1008" y="1456" type="line"/>
      <point x="942" y="1456" type="line"/>
      <point x="433" y="847" type="line"/>
      <point x="222" y="601" type="line"/>
      <point x="215" y="531" type="line"/>
      <point x="461" y="801" type="line"/>
    </contour>
    <contour>
      <point x="991" y="0" type="line"/>
      <point x="1050" y="0" type="line"/>
      <point x="443" y="832" type="line"/>
      <point x="415" y="785" type="line"/>
    </contour>
    <contour>
      <point x="543" y="110" type="move" name="bottom"/>
    </contour>
    <contour>
      <point x="1011" y="-30" type="move" name="right"/>
    </contour>
    <contour>
      <point x="249" y="1229" type="move" name="cross"/>
    </contour>
    <contour>
      <point x="526" y="1524" type="move" name="top"/>
    </contour>
    <contour>
      <point x="1112" y="1600" type="move" name="top_dd"/>
    </contour>
    <contour>
      <point x="1112" y="-407" type="move" name="bottom_dd"/>
    </contour>
    <contour>
      <point x="1112" y="1524" type="move" name="top0315"/>
    </contour>
  </outline>
</glyph>
<glyph name="L" format="1">
  <advance width="928"/>
  <unicode hex="004C"/>
  <outline>
    <contour>
      <point x="862" y="54" type="line"/>
      <point x="205" y="54" type="line"/>
      <point x="205" y="0" type="line"/>
      <point x="862" y="0" type="line"/>
    </contour>
    <contour>
      <point x="234" y="1456" type="line"/>
      <point x="188" y="1456" type="line"/>
      <point x="188" y="0" type="line"/>
      <point x="234" y="0" type="line"/>
    </contour>
    <contour>
      <point x="215" y="1549" type="move" name="top"/>
    </contour>
    <contour>
      <point x="545" y="10" type="move" name="bottom"/>
    </contour>
    <contour>
      <point x="497" y="1455" type="move" name="caron"/>
    </contour>
    <contour>
      <point x="525" y="755" type="move" name="dot"/>
    </contour>
    <contour>
      <point x="908" y="1600" type="move" name="top_dd"/>
    </contour>
    <contour>
      <point x="908" y="-407" type="move" name="bottom_dd"/>
    </contour>
    <contour>
      <point x="908" y="1549" type="move" name="top0315"/>
    </contour>
  </outline>
</glyph>
<glyph name="M" format="1">
  <advance width="1515"/>
  <unicode hex="004D"/>
  <outline>
    <contour>
      <point x="201" y="1456" type="line"/>
      <point x="738" y="0" type="line"/>
      <point x="774" y="0" type="line"/>
      <point x="1311" y="1456" type="line"/>
      <point x="1261" y="1456" type="line"/>
      <point x="756" y="79" type="line"/>
      <point x="253" y="1456" type="line"/>
    </contour>
    <contour>
      <point x="188" y="1456" type="line"/>
      <point x="188" y="0" type="line"/>
      <point x="233" y="0" type="line"/>
      <point x="233" y="703" type="line"/>
      <point x="233" y="1456" type="line"/>
    </contour>
    <contour>
      <point x="1282" y="1456" type="line"/>
      <point x="1282" y="703" type="line"/>
      <point x="1282" y="0" type="line"/>
      <point x="1327" y="0" type="line"/>
      <point x="1327" y="1456" type="line"/>
    </contour>
    <contour>
      <point x="768" y="1612" type="move" name="top"/>
    </contour>
    <contour>
      <point x="1327" y="0" type="move" name="right"/>
    </contour>
    <contour>
      <point x="758" y="10" type="move" name="bottom"/>
    </contour>
    <contour>
      <point x="1495" y="1600" type="move" name="top_dd"/>
    </contour>
    <contour>
      <point x="1495" y="-407" type="move" name="bottom_dd"/>
    </contour>
    <contour>
      <point x="1495" y="1612" type="move" name="top0315"/>
    </contour>
  </outline>
</glyph>
<glyph name="N" format="1">
  <advance width="1257"/>
  <unicode hex="004E"/>
  <outline>
    <contour>
      <point x="1069" y="1456" type="line"/>
      <point x="1024" y="1456" type="line"/>
      <point x="1024" y="95" type="line"/>
      <point x="234" y="1456" type="line"/>
      <point x="188" y="1456" type="line"/>
      <point x="188" y="0" type="line"/>
      <point x="234" y="0" type="line"/>
      <point x="234" y="1364" type="line"/>
      <point x="1024" y="0" type="line"/>
      <point x="1069" y="0" type="line"/>
    </contour>
    <contour>
      <point x="630" y="1612" type="move" name="top"/>
    </contour>
    <contour>
      <point x="630" y="10" type="move" name="bottom"/>
    </contour>
    <contour>
      <point x="1069" y="0" type="move" name="right"/>
    </contour>
    <contour>
      <point x="1237" y="1600" type="move" name="top_dd"/>
    </contour>
    <contour>
      <point x="1237" y="-407" type="move" name="bottom_dd"/>
    </contour>
    <contour>
      <point x="1237" y="1612" type="move" name="top0315"/>
    </contour>
  </outline>
</glyph>
<glyph name="P" format="1">
  <advance width="1073"/>
  <unicode hex="0050"/>
  <outline>
    <contour>
      <point x="13" y="1454" type="move" name="tonos"/>
    </contour>
    <contour>
      <point x="490" y="1612" type="move" name="top"/>
    </contour>
    <contour>
      <point x="465" y="10" type="move" name="bottom"/>
    </contour>
    <contour>
      <point x="1053" y="1600" type="move" name="top_dd"/>
    </contour>
    <contour>
      <point x="1053" y="-407" type="move" name="bottom_dd"/>
    </contour>
    <contour>
      <point x="1053" y="1612" type="move" name="top0315"/>
    </contour>
    <contour>
      <point x="570" y="615" type="line"/>
      <point x="831" y="615"/>
      <point x="965" y="774"/>
      <point x="965" y="1031" type="curve"/>
      <point x="965" y="1287"/>
      <point x="831" y="1456"/>
      <point x="570" y="1456" type="curve"/>
      <point x="188" y="1456" type="line"/>
      <point x="188" y="0" type="line"/>
      <point x="233" y="0" type="line"/>
      <point x="233" y="1402" type="line"/>
      <point x="570" y="1402" type="line"/>
      <point x="817" y="1402"/>
      <point x="920" y="1235"/>
      <point x="920" y="1029" type="curve"/>
      <point x="920" y="831"/>
      <point x="817" y="669"/>
      <point x="570" y="669" type="curve"/>
      <point x="199" y="669" type="line"/>
      <point x="199" y="615" type="line"/>
    </contour>
  </outline>
</glyph>
<glyph name="Q" format="1">
  <advance width="1186"/>
  <unicode hex="0051"/>
  <outline>
    <contour>
      <point x="771" y="59" type="line"/>
      <point x="737" y="21" type="line"/>
      <point x="988" y="-263" type="line"/>
      <point x="1020" y="-228" type="line"/>
    </contour>
    <contour>
      <point x="1046" y="917" type="line"/>
      <point x="1046" y="1273"/>
      <point x="873" y="1476"/>
      <point x="592" y="1476" type="curve" smooth="yes"/>
      <point x="311" y="1476"/>
      <point x="140" y="1273"/>
      <point x="140" y="917" type="curve"/>
      <point x="140" y="539" type="line"/>
      <point x="140" y="183"/>
      <point x="313" y="-21"/>
      <point x="594" y="-21" type="curve" smooth="yes"/>
      <point x="875" y="-21"/>
      <point x="1046" y="183"/>
      <point x="1046" y="539" type="curve"/>
    </contour>
    <contour>
      <point x="1000" y="539" type="line"/>
      <point x="1000" y="220"/>
      <point x="857" y="33"/>
      <point x="594" y="33" type="curve" smooth="yes"/>
      <point x="332" y="33"/>
      <point x="186" y="220"/>
      <point x="186" y="539" type="curve" smooth="yes"/>
      <point x="186" y="919" type="line" smooth="yes"/>
      <point x="186" y="1236"/>
      <point x="330" y="1422"/>
      <point x="592" y="1422" type="curve" smooth="yes"/>
      <point x="856" y="1422"/>
      <point x="1000" y="1236"/>
      <point x="1000" y="919" type="curve"/>
    </contour>
    <contour>
      <point x="608" y="1600" type="move" name="top"/>
    </contour>
    <contour>
      <point x="606" y="-10" type="move" name="bottom"/>
    </contour>
    <contour>
      <point x="1166" y="1600" type="move" name="top_dd"/>
    </contour>
    <contour>
      <point x="1166" y="-407" type="move" name="bottom_dd"/>
    </contour>
    <contour>
      <point x="1166" y="1600" type="move" name="top0315"/>
    </contour>
  </outline>
</glyph>
<glyph name="R" format="1">
  <advance width="1166"/>
  <unicode hex="0052"/>
  <outline>
    <contour>
      <point x="184" y="1456" type="line"/>
      <point x="184" y="0" type="line"/>
      <point x="229" y="0" type="line"/>
      <point x="229" y="1402" type="line"/>
      <point x="574" y="1402" type="line" smooth="yes"/>
      <point x="790" y="1402"/>
      <point x="930" y="1265"/>
      <point x="930" y="1036" type="curve" smooth="yes"/>
      <point x="930" y="855"/>
      <point x="824" y="677"/>
      <point x="615" y="677" type="curve" smooth="yes"/>
      <point x="193" y="677" type="line"/>
      <point x="195" y="623" type="line"/>
      <point x="663" y="623" type="line"/>
      <point x="689" y="635" type="line"/>
      <point x="847" y="663"/>
      <point x="975" y="824"/>
      <point x="975" y="1036" type="curve" smooth="yes"/>
      <point x="975" y="1307"/>
      <point x="807" y="1456"/>
      <point x="574" y="1456" type="curve" smooth="yes"/>
    </contour>
    <contour>
      <point x="978" y="0" type="line"/>
      <point x="1026" y="0" type="line"/>
      <point x="1026" y="14" type="line"/>
      <point x="696" y="644" type="line"/>
      <point x="643" y="642" type="line"/>
    </contour>
    <contour>
      <point x="529" y="1612" type="move" name="top"/>
    </contour>
    <contour>
      <point x="529" y="10" type="move" name="bottom"/>
    </contour>
    <contour>
      <point x="1146" y="1600" type="move" name="top_dd"/>
    </contour>
    <contour>
      <point x="1146" y="-407" type="move" name="bottom_dd"/>
    </contour>
    <contour>
      <point x="1146" y="1612" type="move" name="top0315"/>
    </contour>
  </outline>
</glyph>
<glyph name="S" format="1">
  <advance width="1057"/>
  <unicode hex="0053"/>
  <outline>
    <contour>
      <point x="920" y="349" type="curve" smooth="yes"/>
      <point x="920" y="162"/>
      <point x="767" y="34"/>
      <point x="552" y="34" type="curve" smooth="yes"/>
      <point x="375" y="34"/>
      <point x="146" y="120"/>
      <point x="146" y="411" type="curve"/>
      <point x="101" y="411" type="line"/>
      <point x="101" y="85"/>
      <point x="343" y="-20"/>
      <point x="552" y="-20" type="curve" smooth="yes"/>
      <point x="780" y="-20"/>
      <point x="967" y="113"/>
      <point x="967" y="351" type="curve"/>
      <point x="967" y="596"/>
      <point x="797" y="695"/>
      <point x="556" y="770" type="curve"/>
      <point x="264" y="860"/>
      <point x="185" y="967"/>
      <point x="185" y="1122" type="curve"/>
      <point x="185" y="1280"/>
      <point x="315" y="1422"/>
      <point x="546" y="1422" type="curve" smooth="yes"/>
      <point x="763" y="1422"/>
      <point x="908" y="1261"/>
      <point x="908" y="1046" type="curve"/>
      <point x="953" y="1046" type="line"/>
      <point x="953" y="1303"/>
      <point x="784" y="1476"/>
      <point x="546" y="1476" type="curve" smooth="yes"/>
      <point x="315" y="1476"/>
      <point x="140" y="1342"/>
      <point x="140" y="1120" type="curve"/>
      <point x="140" y="886"/>
      <point x="294" y="799"/>
      <point x="543" y="718" type="curve"/>
      <point x="821" y="628"/>
      <point x="920" y="533"/>
    </contour>
    <contour>
      <point x="551" y="1633" type="move" name="top"/>
    </contour>
    <contour>
      <point x="551" y="-10" type="move" name="bottom"/>
    </contour>
    <contour>
      <point x="1037" y="1600" type="move" name="top_dd"/>
    </contour>
    <contour>
      <point x="1037" y="-407" type="move" name="bottom_dd"/>
    </contour>
    <contour>
      <point x="1037" y="1633" type="move" name="top0315"/>
    </contour>
  </outline>
</glyph>
<glyph name="T" format="1">
  <advance width="1068"/>
  <unicode hex="0054"/>
  <outline>
    <contour>
      <point x="557" y="1456" type="line"/>
      <point x="511" y="1456" type="line"/>
      <point x="511" y="0" type="line"/>
      <point x="557" y="0" type="line"/>
    </contour>
    <contour>
      <point x="1002" y="1456" type="line"/>
      <point x="66" y="1456" type="line"/>
      <point x="66" y="1402" type="line"/>
      <point x="1002" y="1402" type="line"/>
    </contour>
    <contour>
      <point x="532" y="1604" type="move" name="top"/>
    </contour>
    <contour>
      <point x="534" y="0" type="move" name="bottom"/>
    </contour>
    <contour>
      <point x="557" y="0" type="move" name="right"/>
    </contour>
    <contour>
      <point x="524" y="872" type="move" name="cross"/>
    </contour>
    <contour>
      <point x="1048" y="1600" type="move" name="top_dd"/>
    </contour>
    <contour>
      <point x="1048" y="-407" type="move" name="bottom_dd"/>
    </contour>
    <contour>
      <point x="1048" y="1604" type="move" name="top0315"/>
    </contour>
  </outline>
</glyph>
<glyph name="U" format="1">
  <advance width="1187"/>
  <unicode hex="0055"/>
  <outline>
    <contour>
      <point x="966" y="1456" type="line"/>
      <point x="966" y="429" type="line" smooth="yes"/>
      <point x="966" y="148"/>
      <point x="805" y="33"/>
      <point x="594" y="33" type="curve" smooth="yes"/>
      <point x="382" y="33"/>
      <point x="221" y="148"/>
      <point x="221" y="429" type="curve" smooth="yes"/>
      <point x="221" y="1456" type="line"/>
      <point x="175" y="1456" type="line"/>
      <point x="175" y="429" type="line"/>
      <point x="175" y="102"/>
      <point x="355" y="-21"/>
      <point x="594" y="-21" type="curve" smooth="yes"/>
      <point x="832" y="-21"/>
      <point x="1011" y="102"/>
      <point x="1011" y="429" type="curve"/>
      <point x="1011" y="1456" type="line"/>
    </contour>
    <contour>
      <point x="605" y="1612" type="move" name="top"/>
    </contour>
    <contour>
      <point x="594" y="0" type="move" name="bottom"/>
    </contour>
    <contour>
      <point x="691" y="0" type="move" name="right"/>
    </contour>
    <contour>
      <point x="806" y="33" type="move" name="ogonek"/>
    </contour>
    <contour>
      <point x="1167" y="1600" type="move" name="top_dd"/>
    </contour>
    <contour>
      <point x="1167" y="-407" type="move" name="bottom_dd"/>
    </contour>
    <contour>
      <point x="1167" y="1612" type="move" name="top0315"/>
    </contour>
  </outline>
</glyph>
<glyph name="V" format="1">
  <advance width="1067"/>
  <unicode hex="0056"/>
  <outline>
    <contour>
      <point x="533" y="1612" type="move" name="top"/>
    </contour>
    <contour>
      <point x="536" y="10" type="move" name="bottom"/>
    </contour>
    <contour>
      <point x="1047" y="1600" type="move" name="top_dd"/>
    </contour>
    <contour>
      <point x="1047" y="-407" type="move" name="bottom_dd"/>
    </contour>
    <contour>
      <point x="1047" y="1612" type="move" name="top0315"/>
    </contour>
    <contour>
      <point x="558" y="142" type="line"/>
      <point x="519" y="0" type="line"/>
      <point x="562" y="0" type="line"/>
      <point x="1019" y="1456" type="line"/>
      <point x="969" y="1456" type="line"/>
    </contour>
    <contour>
      <point x="99" y="1456" type="line"/>
      <point x="49" y="1456" type="line"/>
      <point x="506" y="0" type="line"/>
      <point x="549" y="0" type="line"/>
      <point x="510" y="142" type="line"/>
    </contour>
  </outline>
</glyph>
<glyph name="W" format="1">
  <advance width="1598"/>
  <unicode hex="0057"/>
  <outline>
    <contour>
      <point x="798" y="1612" type="move" name="top"/>
    </contour>
    <contour>
      <point x="798" y="10" type="move" name="bottom"/>
    </contour>
    <contour>
      <point x="1578" y="1600" type="move" name="top_dd"/>
    </contour>
    <contour>
      <point x="1578" y="-407" type="move" name="bottom_dd"/>
    </contour>
    <contour>
      <point x="1578" y="1612" type="move" name="top0315"/>
    </contour>
    <contour>
      <point x="486" y="330" type="line"/>
      <point x="410" y="0" type="line"/>
      <point x="453" y="0" type="line"/>
      <point x="758" y="1214" type="line"/>
      <point x="824" y="1456" type="line"/>
      <point x="775" y="1456" type="line"/>
    </contour>
    <contour>
      <point x="122" y="1456" type="line"/>
      <point x="71" y="1456" type="line"/>
      <point x="401" y="0" type="line"/>
      <point x="452" y="0" type="line"/>
      <point x="375" y="330" type="line"/>
    </contour>
    <contour>
      <point x="1225" y="330" type="line"/>
      <point x="1146" y="0" type="line"/>
      <point x="1197" y="0" type="line"/>
      <point x="1526" y="1456" type="line"/>
      <point x="1477" y="1456" type="line"/>
    </contour>
    <contour>
      <point x="826" y="1456" type="line"/>
      <point x="776" y="1456" type="line"/>
      <point x="842" y="1214" type="line"/>
      <point x="1146" y="0" type="line"/>
      <point x="1188" y="0" type="line"/>
      <point x="1113" y="330" type="line"/>
    </contour>
  </outline>
</glyph>
<glyph name="X" format="1">
  <advance width="1067"/>
  <unicode hex="0058"/>
  <outline>
    <contour>
      <point x="138" y="1456" type="line"/>
      <point x="81" y="1456" type="line"/>
      <point x="505" y="743" type="line"/>
      <point x="65" y="0" type="line"/>
      <point x="120" y="0" type="line"/>
      <point x="533" y="701" type="line"/>
      <point x="945" y="0" type="line"/>
      <point x="1001" y="0" type="line"/>
      <point x="562" y="743" type="line"/>
      <point x="985" y="1456" type="line"/>
      <point x="928" y="1456" type="line"/>
      <point x="533" y="785" type="line"/>
    </contour>
    <contour>
      <point x="570" y="10" type="move" name="bottom"/>
    </contour>
    <contour>
      <point x="961" y="0" type="move" name="right"/>
    </contour>
    <contour>
      <point x="534" y="748" type="move" name="cross"/>
    </contour>
    <contour>
      <point x="577" y="1612" type="move" name="top"/>
    </contour>
    <contour>
      <point x="1047" y="1600" type="move" name="top_dd"/>
    </contour>
    <contour>
      <point x="1047" y="-407" type="move" name="bottom_dd"/>
    </contour>
    <contour>
      <point x="1047" y="1612" type="move" name="top0315"/>
    </contour>
  </outline>
</glyph>
<glyph name="Y" format="1">
  <advance width="1067"/>
  <unicode hex="0059"/>
  <outline>
    <contour>
      <point x="531" y="1601" type="move" name="top"/>
    </contour>
    <contour>
      <point x="534" y="10" type="move" name="bottom"/>
    </contour>
    <contour>
      <point x="532" y="583" type="move" name="cross"/>
    </contour>
    <contour>
      <point x="-40" y="1454" type="move" name="tonos"/>
    </contour>
    <contour>
      <point x="1047" y="1600" type="move" name="top_dd"/>
    </contour>
    <contour>
      <point x="1047" y="-407" type="move" name="bottom_dd"/>
    </contour>
    <contour>
      <point x="1047" y="1601" type="move" name="top0315"/>
    </contour>
    <contour>
      <point x="108" y="1456" type="line"/>
      <point x="48" y="1456" type="line"/>
      <point x="509" y="553" type="line"/>
      <point x="509" y="0" type="line"/>
      <point x="554" y="0" type="line"/>
      <point x="554" y="553" type="line"/>
      <point x="1015" y="1456" type="line"/>
      <point x="960" y="1456" type="line"/>
      <point x="532" y="602" type="line"/>
    </contour>
  </outline>
</glyph>
<glyph name="Z" format="1">
  <advance width="1068"/>
  <unicode hex="005A"/>
  <outline>
    <contour>
      <point x="969" y="54" type="line"/>
      <point x="113" y="54" type="line"/>
      <point x="113" y="0" type="line"/>
      <point x="969" y="0" type="line"/>
    </contour>
    <contour>
      <point x="942" y="1418" type="line"/>
      <point x="942" y="1456" type="line"/>
      <point x="910" y="1456" type="line"/>
      <point x="99" y="44" type="line"/>
      <point x="99" y="0" type="line"/>
      <point x="130" y="0" type="line"/>
    </contour>
    <contour>
      <point x="920" y="1456" type="line"/>
      <point x="133" y="1456" type="line"/>
      <point x="133" y="1403" type="line"/>
      <point x="920" y="1403" type="line"/>
    </contour>
    <contour>
      <point x="532" y="1612" type="move" name="top"/>
    </contour>
    <contour>
      <point x="560" y="10" type="move" name="bottom"/>
    </contour>
    <contour>
      <point x="1048" y="1600" type="move" name="top_dd"/>
    </contour>
    <contour>
      <point x="1048" y="-407" type="move" name="bottom_dd"/>
    </contour>
    <contour>
      <point x="1048" y="1612" type="move" name="top0315"/>
    </contour>
  </outline>
</glyph>
<glyph name="bracketleft" format="1">
  <advance width="409"/>
  <unicode hex="005B"/>
  <outline>
    <contour>
      <point x="410" y="1664" type="line"/>
      <point x="172" y="1664" type="line"/>
      <point x="172" y="-312" type="line"/>
      <point x="410" y="-312" type="line"/>
      <point x="410" y="-258" type="line"/>
      <point x="217" y="-258" type="line"/>
      <point x="217" y="1610" type="line"/>
      <point x="410" y="1610" type="line"/>
    </contour>
  </outline>
</glyph>
<glyph name="bracketright" format="1">
  <advance width="409"/>
  <unicode hex="005D"/>
  <outline>
    <contour>
      <point x="13" y="1610" type="line"/>
      <point x="205" y="1610" type="line"/>
      <point x="205" y="-258" type="line"/>
      <point x="13" y="-258" type="line"/>
      <point x="13" y="-312" type="line"/>
      <point x="251" y="-312" type="line"/>
      <point x="251" y="1664" type="line"/>
      <point x="13" y="1664" type="line"/>
    </contour>
  </outline>
</glyph>
<glyph name="asciicircum" format="1">
  <advance width="753"/>
  <unicode hex="005E"/>
  <outline>
    <contour>
      <point x="381" y="1417" type="line"/>
      <point x="388" y="1456" type="line"/>
      <point x="348" y="1456" type="line"/>
      <point x="96" y="729" type="line"/>
      <point x="146" y="729" type="line"/>
    </contour>
    <contour>
      <point x="591" y="729" type="line"/>
      <point x="642" y="729" type="line"/>
      <point x="391" y="1456" type="line"/>
      <point x="350" y="1456" type="line"/>
      <point x="358" y="1417" type="line"/>
    </contour>
  </outline>
</glyph>
<glyph name="underscore" format="1">
  <advance width="750"/>
  <unicode hex="005F"/>
  <outline>
    <contour>
      <point x="730" y="0" type="line"/>
      <point x="19" y="0" type="line"/>
      <point x="19" y="-54" type="line"/>
      <point x="730" y="-54" type="line"/>
    </contour>
    <contour>
      <point x="371" y="157" type="move" name="_bottom"/>
    </contour>
  </outline>
</glyph>
<glyph name="grave" format="1">
  <advance width="537"/>
  <unicode hex="0060"/>
  <outline>
    <contour>
      <point x="215" y="1536" type="line"/>
      <point x="149" y="1536" type="line"/>
      <point x="344" y="1270" type="line"/>
      <point x="403" y="1270" type="line"/>
    </contour>
    <contour>
      <point x="360" y="1293" type="move" name="_top"/>
    </contour>
    <contour>
      <point x="360" y="1543" type="move" name="mkmktop_acc"/>
    </contour>
  </outline>
</glyph>
<glyph name="a" format="1">
  <advance width="948"/>
  <unicode hex="0061"/>
  <outline>
    <contour>
      <point x="735" y="203" type="line"/>
      <point x="735" y="132"/>
      <point x="740" y="52"/>
      <point x="752" y="0" type="curve"/>
      <point x="804" y="0" type="line"/>
      <point x="804" y="9" type="line"/>
      <point x="789" y="53"/>
      <point x="780" y="140"/>
      <point x="780" y="218" type="curve" smooth="yes"/>
      <point x="780" y="790" type="line"/>
      <point x="780" y="1018"/>
      <point x="647" y="1102"/>
      <point x="458" y="1102" type="curve" smooth="yes"/>
      <point x="262" y="1102"/>
      <point x="122" y="966"/>
      <point x="122" y="786" type="curve"/>
      <point x="167" y="784" type="line"/>
      <point x="167" y="946"/>
      <point x="293" y="1048"/>
      <point x="458" y="1048" type="curve" smooth="yes"/>
      <point x="635" y="1048"/>
      <point x="735" y="972"/>
      <point x="735" y="792" type="curve"/>
    </contour>
    <contour>
      <point x="755" y="604" type="line"/>
      <point x="492" y="604" type="line"/>
      <point x="231" y="604"/>
      <point x="97" y="467"/>
      <point x="97" y="274" type="curve" smooth="yes"/>
      <point x="97" y="75"/>
      <point x="207" y="-21"/>
      <point x="377" y="-21" type="curve" smooth="yes"/>
      <point x="603" y="-21"/>
      <point x="728" y="128"/>
      <point x="770" y="267" type="curve"/>
      <point x="750" y="317" type="line"/>
      <point x="696" y="144"/>
      <point x="569" y="32"/>
      <point x="377" y="32" type="curve" smooth="yes"/>
      <point x="239" y="32"/>
      <point x="143" y="112"/>
      <point x="143" y="270" type="curve" smooth="yes"/>
      <point x="143" y="434"/>
      <point x="247" y="549"/>
      <point x="495" y="549" type="curve"/>
      <point x="757" y="549" type="line"/>
    </contour>
    <contour>
      <point x="505" y="1292" type="move" name="top"/>
    </contour>
    <contour>
      <point x="446" y="0" type="move" name="bottom"/>
    </contour>
    <contour>
      <point x="804" y="0" type="move" name="ogonek"/>
    </contour>
    <contour>
      <point x="608" y="1263" type="move" name="rhalfring"/>
    </contour>
    <contour>
      <point x="928" y="1600" type="move" name="top_dd"/>
    </contour>
    <contour>
      <point x="928" y="-407" type="move" name="bottom_dd"/>
    </contour>
    <contour>
      <point x="758" y="654" type="move" name="rhotichook"/>
    </contour>
    <contour>
      <point x="928" y="1292" type="move" name="top0315"/>
    </contour>
  </outline>
</glyph>
<glyph name="b" format="1">
  <advance width="982"/>
  <unicode hex="0062"/>
  <outline>
    <contour>
      <point x="163" y="1536" type="line"/>
      <point x="163" y="0" type="line"/>
      <point x="208" y="0" type="line"/>
      <point x="208" y="210" type="line"/>
      <point x="208" y="1536" type="line"/>
    </contour>
    <contour>
      <point x="859" y="592" type="line"/>
      <point x="859" y="961"/>
      <point x="732" y="1102"/>
      <point x="516" y="1102" type="curve" smooth="yes"/>
      <point x="319" y="1102"/>
      <point x="204" y="966"/>
      <point x="164" y="785" type="curve"/>
      <point x="164" y="264" type="line"/>
      <point x="193" y="115"/>
      <point x="313" y="-21"/>
      <point x="518" y="-21" type="curve" smooth="yes"/>
      <point x="733" y="-21"/>
      <point x="859" y="135"/>
      <point x="859" y="491" type="curve" smooth="yes"/>
    </contour>
    <contour>
      <point x="812" y="491" type="line"/>
      <point x="812" y="177"/>
      <point x="717" y="33"/>
      <point x="519" y="33" type="curve" smooth="yes"/>
      <point x="328" y="33"/>
      <point x="225" y="148"/>
      <point x="195" y="289" type="curve"/>
      <point x="195" y="749" type="line"/>
      <point x="219" y="867"/>
      <point x="289" y="1048"/>
      <point x="517" y="1048" type="curve" smooth="yes"/>
      <point x="717" y="1048"/>
      <point x="812" y="905"/>
      <point x="812" y="592" type="curve" smooth="yes"/>
    </contour>
    <contour>
      <point x="505" y="1612" type="move" name="top"/>
    </contour>
    <contour>
      <point x="511" y="-10" type="move" name="bottom"/>
    </contour>
    <contour>
      <point x="962" y="1600" type="move" name="top_dd"/>
    </contour>
    <contour>
      <point x="962" y="-407" type="move" name="bottom_dd"/>
    </contour>
    <contour>
      <point x="962" y="1612" type="move" name="top0315"/>
    </contour>
  </outline>
</glyph>
<glyph name="c" format="1">
  <advance width="913"/>
  <unicode hex="0063"/>
  <outline>
    <contour>
      <point x="473" y="33" type="curve" smooth="yes"/>
      <point x="248" y="33"/>
      <point x="147" y="183"/>
      <point x="147" y="480" type="curve" smooth="yes"/>
      <point x="147" y="602" type="line" smooth="yes"/>
      <point x="147" y="897"/>
      <point x="248" y="1048"/>
      <point x="471" y="1048" type="curve"/>
      <point x="621" y="1048"/>
      <point x="756" y="970"/>
      <point x="764" y="725" type="curve"/>
      <point x="810" y="725" type="line"/>
      <point x="801" y="1003"/>
      <point x="647" y="1102"/>
      <point x="471" y="1102" type="curve" smooth="yes"/>
      <point x="237" y="1102"/>
      <point x="101" y="945"/>
      <point x="101" y="602" type="curve" smooth="yes"/>
      <point x="101" y="480" type="line" smooth="yes"/>
      <point x="101" y="137"/>
      <point x="237" y="-21"/>
      <point x="473" y="-21" type="curve"/>
      <point x="650" y="-21"/>
      <point x="800" y="80"/>
      <point x="810" y="328" type="curve"/>
      <point x="764" y="328" type="line"/>
      <point x="753" y="89"/>
      <point x="615" y="33"/>
    </contour>
    <contour>
      <point x="479" y="1290" type="move" name="top"/>
    </contour>
    <contour>
      <point x="479" y="-10" type="move" name="bottom"/>
    </contour>
    <contour>
      <point x="479" y="1290" type="move" name="marktop"/>
    </contour>
    <contour>
      <point x="893" y="1600" type="move" name="top_dd"/>
    </contour>
    <contour>
      <point x="893" y="-407" type="move" name="bottom_dd"/>
    </contour>
    <contour>
      <point x="893" y="1290" type="move" name="top0315"/>
    </contour>
  </outline>
</glyph>
<glyph name="d" format="1">
  <advance width="982"/>
  <unicode hex="0064"/>
  <outline>
    <contour>
      <point x="773" y="210" type="line"/>
      <point x="773" y="0" type="line"/>
      <point x="819" y="0" type="line"/>
      <point x="819" y="1536" type="line"/>
      <point x="773" y="1536" type="line"/>
    </contour>
    <contour>
      <point x="122" y="491" type="line"/>
      <point x="122" y="135"/>
      <point x="248" y="-21"/>
      <point x="464" y="-21" type="curve" smooth="yes"/>
      <point x="668" y="-21"/>
      <point x="787" y="115"/>
      <point x="815" y="264" type="curve"/>
      <point x="815" y="785" type="line"/>
      <point x="776" y="966"/>
      <point x="663" y="1102"/>
      <point x="465" y="1102" type="curve" smooth="yes"/>
      <point x="249" y="1102"/>
      <point x="122" y="961"/>
      <point x="122" y="592" type="curve" smooth="yes"/>
    </contour>
    <contour>
      <point x="170" y="592" type="line"/>
      <point x="170" y="905"/>
      <point x="264" y="1048"/>
      <point x="464" y="1048" type="curve" smooth="yes"/>
      <point x="693" y="1048"/>
      <point x="764" y="867"/>
      <point x="789" y="749" type="curve"/>
      <point x="789" y="289" type="line"/>
      <point x="758" y="148"/>
      <point x="653" y="33"/>
      <point x="463" y="33" type="curve" smooth="yes"/>
      <point x="264" y="33"/>
      <point x="170" y="177"/>
      <point x="170" y="491" type="curve" smooth="yes"/>
    </contour>
    <contour>
      <point x="946" y="1536" type="move" name="caron"/>
    </contour>
    <contour>
      <point x="711" y="1306" type="move" name="cross"/>
    </contour>
    <contour>
      <point x="521" y="0" type="move" name="bottom"/>
    </contour>
    <contour>
      <point x="470" y="1620" type="move" name="top"/>
    </contour>
    <contour>
      <point x="962" y="1600" type="move" name="top_dd"/>
    </contour>
    <contour>
      <point x="962" y="-407" type="move" name="bottom_dd"/>
    </contour>
    <contour>
      <point x="962" y="1620" type="move" name="top0315"/>
    </contour>
  </outline>
</glyph>
<glyph name="e" format="1">
  <advance width="915"/>
  <unicode hex="0065"/>
  <outline>
    <contour>
      <point x="496" y="1291" type="move" name="top"/>
    </contour>
    <contour>
      <point x="495" y="4" type="move" name="bottom"/>
    </contour>
    <contour>
      <point x="719" y="58" type="move" name="ogonek"/>
    </contour>
    <contour>
      <point x="887" y="1600" type="move" name="top_dd"/>
    </contour>
    <contour>
      <point x="887" y="-407" type="move" name="bottom_dd"/>
    </contour>
    <contour>
      <point x="798" y="654" type="move" name="rhotichook"/>
    </contour>
    <contour>
      <point x="887" y="1291" type="move" name="top0315"/>
    </contour>
    <contour>
      <point x="491" y="-21" type="curve"/>
      <point x="635" y="-21"/>
      <point x="726" y="31"/>
      <point x="784" y="107" type="curve"/>
      <point x="761" y="142" type="line"/>
      <point x="685" y="57"/>
      <point x="595" y="32"/>
      <point x="491" y="32" type="curve" smooth="yes"/>
      <point x="291" y="32"/>
      <point x="138" y="182"/>
      <point x="138" y="478" type="curve" smooth="yes"/>
      <point x="138" y="602" type="line" smooth="yes"/>
      <point x="138" y="896"/>
      <point x="274" y="1048"/>
      <point x="474" y="1048" type="curve"/>
      <point x="657" y="1048"/>
      <point x="774" y="920"/>
      <point x="774" y="664" type="curve"/>
      <point x="774" y="631" type="line"/>
      <point x="122" y="631" type="line"/>
      <point x="122" y="577" type="line"/>
      <point x="820" y="577" type="line"/>
      <point x="820" y="660" type="line" smooth="yes"/>
      <point x="820" y="977"/>
      <point x="676" y="1102"/>
      <point x="474" y="1102" type="curve" smooth="yes"/>
      <point x="264" y="1102"/>
      <point x="93" y="944"/>
      <point x="93" y="602" type="curve" smooth="yes"/>
      <point x="93" y="478" type="line" smooth="yes"/>
      <point x="93" y="138"/>
      <point x="270" y="-21"/>
    </contour>
  </outline>
</glyph>
<glyph name="f" format="1">
  <advance width="582"/>
  <unicode hex="0066"/>
  <outline>
    <contour>
      <point x="279" y="0" type="line"/>
      <point x="279" y="1236" type="line"/>
      <point x="279" y="1405"/>
      <point x="353" y="1503"/>
      <point x="472" y="1503" type="curve" smooth="yes"/>
      <point x="517" y="1503"/>
      <point x="540" y="1498"/>
      <point x="572" y="1488" type="curve"/>
      <point x="579" y="1540" type="line"/>
      <point x="543" y="1553"/>
      <point x="506" y="1557"/>
      <point x="471" y="1557" type="curve" smooth="yes"/>
      <point x="323" y="1557"/>
      <point x="233" y="1443"/>
      <point x="233" y="1236" type="curve"/>
      <point x="233" y="0" type="line"/>
    </contour>
    <contour>
      <point x="519" y="1082" type="line"/>
      <point x="75" y="1082" type="line"/>
      <point x="75" y="1027" type="line"/>
      <point x="519" y="1027" type="line"/>
    </contour>
    <contour>
      <point x="455" y="1680" type="move" name="top"/>
    </contour>
    <contour>
      <point x="297" y="10" type="move" name="bottom"/>
    </contour>
    <contour>
      <point x="562" y="1600" type="move" name="top_dd"/>
    </contour>
    <contour>
      <point x="562" y="-407" type="move" name="bottom_dd"/>
    </contour>
    <contour>
      <point x="562" y="1680" type="move" name="top0315"/>
    </contour>
  </outline>
</glyph>
<glyph name="g" format="1">
  <advance width="983"/>
  <unicode hex="0067"/>
  <outline>
    <contour>
      <point x="772" y="1082" type="line"/>
      <point x="772" y="844" type="line"/>
      <point x="772" y="-45" type="line" smooth="yes"/>
      <point x="772" y="-288"/>
      <point x="679" y="-383"/>
      <point x="481" y="-383" type="curve" smooth="yes"/>
      <point x="369" y="-383"/>
      <point x="280" y="-331"/>
      <point x="209" y="-238" type="curve"/>
      <point x="177" y="-274" type="line"/>
      <point x="243" y="-369"/>
      <point x="350" y="-436"/>
      <point x="483" y="-436" type="curve" smooth="yes"/>
      <point x="697" y="-436"/>
      <point x="818" y="-322"/>
      <point x="818" y="-45" type="curve" smooth="yes"/>
      <point x="818" y="1082" type="line"/>
    </contour>
    <contour>
      <point x="122" y="491" type="line"/>
      <point x="122" y="135"/>
      <point x="248" y="-21"/>
      <point x="463" y="-21" type="curve" smooth="yes"/>
      <point x="668" y="-21"/>
      <point x="786" y="115"/>
      <point x="815" y="264" type="curve"/>
      <point x="815" y="785" type="line"/>
      <point x="775" y="966"/>
      <point x="662" y="1102"/>
      <point x="464" y="1102" type="curve" smooth="yes"/>
      <point x="248" y="1102"/>
      <point x="122" y="961"/>
      <point x="122" y="592" type="curve" smooth="yes"/>
    </contour>
    <contour>
      <point x="168" y="592" type="line"/>
      <point x="168" y="905"/>
      <point x="264" y="1048"/>
      <point x="464" y="1048" type="curve" smooth="yes"/>
      <point x="692" y="1048"/>
      <point x="760" y="867"/>
      <point x="784" y="749" type="curve"/>
      <point x="784" y="289" type="line"/>
      <point x="754" y="148"/>
      <point x="653" y="33"/>
      <point x="462" y="33" type="curve" smooth="yes"/>
      <point x="264" y="33"/>
      <point x="168" y="177"/>
      <point x="168" y="491" type="curve" smooth="yes"/>
    </contour>
    <contour>
      <point x="496" y="1290" type="move" name="top"/>
    </contour>
    <contour>
      <point x="485" y="-447" type="move" name="bottom"/>
    </contour>
    <contour>
      <point x="963" y="1600" type="move" name="top_dd"/>
    </contour>
    <contour>
      <point x="963" y="-407" type="move" name="bottom_dd"/>
    </contour>
    <contour>
      <point x="963" y="1290" type="move" name="top0315"/>
    </contour>
  </outline>
</glyph>
<glyph name="h" format="1">
  <advance width="982"/>
  <unicode hex="0068"/>
  <outline>
    <contour>
      <point x="210" y="1536" type="line"/>
      <point x="164" y="1536" type="line"/>
      <point x="164" y="0" type="line"/>
      <point x="210" y="0" type="line"/>
    </contour>
    <contour>
      <point x="202" y="634" type="line"/>
      <point x="210" y="763"/>
      <point x="301" y="1049"/>
      <point x="530" y="1049" type="curve" smooth="yes"/>
      <point x="674" y="1049"/>
      <point x="776" y="975"/>
      <point x="776" y="700" type="curve" smooth="yes"/>
      <point x="776" y="0" type="line"/>
      <point x="821" y="0" type="line"/>
      <point x="821" y="700" type="line" smooth="yes"/>
      <point x="821" y="987"/>
      <point x="716" y="1102"/>
      <point x="532" y="1102" type="curve" smooth="yes"/>
      <point x="335" y="1102"/>
      <point x="201" y="904"/>
      <point x="178" y="691" type="curve"/>
    </contour>
    <contour>
      <point x="417" y="1611" type="move" name="top"/>
    </contour>
    <contour>
      <point x="297" y="1306" type="move" name="cross"/>
    </contour>
    <contour>
      <point x="500" y="10" type="move" name="bottom"/>
    </contour>
    <contour>
      <point x="822" y="0" type="move" name="right"/>
    </contour>
    <contour>
      <point x="962" y="1600" type="move" name="top_dd"/>
    </contour>
    <contour>
      <point x="962" y="-407" type="move" name="bottom_dd"/>
    </contour>
    <contour>
      <point x="962" y="1611" type="move" name="top0315"/>
    </contour>
  </outline>
</glyph>
<glyph name="i" format="1">
  <advance width="394"/>
  <unicode hex="0069"/>
  <outline>
    <contour>
      <point x="196" y="10" type="move" name="bottom"/>
    </contour>
    <contour>
      <point x="220" y="0" type="move" name="ogonek"/>
    </contour>
    <contour>
      <point x="203" y="1600" type="move" name="top"/>
    </contour>
    <contour>
      <point x="374" y="1600" type="move" name="top_dd"/>
    </contour>
    <contour>
      <point x="374" y="-407" type="move" name="bottom_dd"/>
    </contour>
    <contour>
      <point x="198" y="654" type="move" name="rhotichook"/>
    </contour>
    <contour>
      <point x="374" y="1600" type="move" name="top0315"/>
    </contour>
    <contour>
      <point x="221" y="1082" type="line"/>
      <point x="175" y="1082" type="line"/>
      <point x="175" y="0" type="line"/>
      <point x="221" y="0" type="line"/>
    </contour>
    <contour>
      <point x="152" y="1420" type="curve" smooth="yes"/>
      <point x="152" y="1389"/>
      <point x="172" y="1365"/>
      <point x="198" y="1365" type="curve"/>
      <point x="224" y="1365"/>
      <point x="245" y="1389"/>
      <point x="245" y="1420" type="curve"/>
      <point x="245" y="1451"/>
      <point x="224" y="1476"/>
      <point x="198" y="1476" type="curve"/>
      <point x="172" y="1476"/>
      <point x="152" y="1451"/>
    </contour>
  </outline>
</glyph>
<glyph name="j" format="1">
  <advance width="414"/>
  <unicode hex="006A"/>
  <outline>
    <contour>
      <point x="176" y="1082" type="line"/>
      <point x="176" y="-129" type="line"/>
      <point x="176" y="-290"/>
      <point x="107" y="-383"/>
      <point x="-18" y="-383" type="curve" smooth="yes"/>
      <point x="-49" y="-383"/>
      <point x="-80" y="-373"/>
      <point x="-98" y="-365" type="curve"/>
      <point x="-100" y="-417" type="line"/>
      <point x="-73" y="-430"/>
      <point x="-46" y="-437"/>
      <point x="-18" y="-437" type="curve" smooth="yes"/>
      <point x="133" y="-437"/>
      <point x="222" y="-328"/>
      <point x="222" y="-129" type="curve"/>
      <point x="222" y="1082" type="line"/>
    </contour>
    <contour>
      <point x="157" y="1420" type="curve" smooth="yes"/>
      <point x="157" y="1389"/>
      <point x="177" y="1365"/>
      <point x="203" y="1365" type="curve" smooth="yes"/>
      <point x="229" y="1365"/>
      <point x="250" y="1389"/>
      <point x="250" y="1420" type="curve" smooth="yes"/>
      <point x="250" y="1451"/>
      <point x="229" y="1476"/>
      <point x="203" y="1476" type="curve" smooth="yes"/>
      <point x="177" y="1476"/>
      <point x="157" y="1451"/>
    </contour>
    <contour>
      <point x="207" y="1600" type="move" name="top"/>
    </contour>
    <contour>
      <point x="180" y="-459" type="move" name="bottom"/>
    </contour>
    <contour>
      <point x="394" y="1600" type="move" name="top_dd"/>
    </contour>
    <contour>
      <point x="394" y="-407" type="move" name="bottom_dd"/>
    </contour>
    <contour>
      <point x="394" y="1600" type="move" name="top0315"/>
    </contour>
  </outline>
</glyph>
<glyph name="k" format="1">
  <advance width="854"/>
  <unicode hex="006B"/>
  <outline>
    <contour>
      <point x="455" y="114" type="move" name="bottom"/>
    </contour>
    <contour>
      <point x="307" y="1289" type="move" name="cross"/>
    </contour>
    <contour>
      <point x="477" y="1612" type="move" name="top"/>
    </contour>
    <contour>
      <point x="477" y="1612" type="move" name="marktop"/>
    </contour>
    <contour>
      <point x="834" y="1600" type="move" name="top_dd"/>
    </contour>
    <contour>
      <point x="834" y="-407" type="move" name="bottom_dd"/>
    </contour>
    <contour>
      <point x="725" y="1612" type="move" name="top0315"/>
    </contour>
    <contour>
      <point x="210" y="1536" type="line"/>
      <point x="164" y="1536" type="line"/>
      <point x="164" y="0" type="line"/>
      <point x="210" y="0" type="line"/>
    </contour>
    <contour>
      <point x="794" y="1082" type="line"/>
      <point x="730" y="1082" type="line"/>
      <point x="317" y="627" type="line"/>
      <point x="185" y="479" type="line"/>
      <point x="201" y="440" type="line"/>
      <point x="342" y="583" type="line"/>
    </contour>
    <contour>
      <point x="762" y="0" type="line"/>
      <point x="821" y="0" type="line"/>
      <point x="357" y="650" type="line"/>
      <point x="327" y="608" type="line"/>
    </contour>
  </outline>
</glyph>
<glyph name="l" format="1">
  <advance width="394"/>
  <unicode hex="006C"/>
  <outline>
    <contour>
      <point x="221" y="1536" type="line"/>
      <point x="175" y="1536" type="line"/>
      <point x="175" y="0" type="line"/>
      <point x="221" y="0" type="line"/>
    </contour>
    <contour>
      <point x="200" y="1673" type="move" name="top"/>
    </contour>
    <contour>
      <point x="200" y="10" type="move" name="bottom"/>
    </contour>
    <contour>
      <point x="370" y="1536" type="move" name="caron"/>
    </contour>
    <contour>
      <point x="353" y="794" type="move" name="dot"/>
    </contour>
    <contour>
      <point x="418" y="1503" type="move" name="marktop"/>
    </contour>
    <contour>
      <point x="374" y="1600" type="move" name="top_dd"/>
    </contour>
    <contour>
      <point x="374" y="-407" type="move" name="bottom_dd"/>
    </contour>
    <contour>
      <point x="374" y="1673" type="move" name="top0315"/>
    </contour>
  </outline>
</glyph>
<glyph name="m" format="1">
  <advance width="1582"/>
  <unicode hex="006D"/>
  <outline>
    <contour>
      <point x="201" y="850" type="line"/>
      <point x="201" y="1082" type="line"/>
      <point x="155" y="1082" type="line"/>
      <point x="155" y="0" type="line"/>
      <point x="201" y="0" type="line"/>
    </contour>
    <contour>
      <point x="196" y="634" type="line"/>
      <point x="203" y="763"/>
      <point x="292" y="1049"/>
      <point x="521" y="1049" type="curve" smooth="yes"/>
      <point x="665" y="1049"/>
      <point x="769" y="979"/>
      <point x="769" y="720" type="curve"/>
      <point x="769" y="0" type="line"/>
      <point x="815" y="0" type="line"/>
      <point x="815" y="720" type="line"/>
      <point x="815" y="993"/>
      <point x="707" y="1102"/>
      <point x="523" y="1102" type="curve" smooth="yes"/>
      <point x="326" y="1102"/>
      <point x="194" y="904"/>
      <point x="171" y="691" type="curve"/>
    </contour>
    <contour>
      <point x="815" y="720" type="line"/>
      <point x="823" y="836"/>
      <point x="923" y="1046"/>
      <point x="1137" y="1049" type="curve" smooth="yes"/>
      <point x="1282" y="1051"/>
      <point x="1386" y="975"/>
      <point x="1386" y="700" type="curve" smooth="yes"/>
      <point x="1386" y="0" type="line"/>
      <point x="1431" y="0" type="line"/>
      <point x="1431" y="700" type="line" smooth="yes"/>
      <point x="1431" y="987"/>
      <point x="1324" y="1102"/>
      <point x="1140" y="1102" type="curve" smooth="yes"/>
      <point x="942" y="1102"/>
      <point x="806" y="936"/>
      <point x="784" y="753" type="curve"/>
    </contour>
    <contour>
      <point x="789" y="1290" type="move" name="top"/>
    </contour>
    <contour>
      <point x="791" y="10" type="move" name="bottom"/>
    </contour>
    <contour>
      <point x="789" y="1290" type="move" name="marktop"/>
    </contour>
    <contour>
      <point x="1562" y="1600" type="move" name="top_dd"/>
    </contour>
    <contour>
      <point x="1562" y="-407" type="move" name="bottom_dd"/>
    </contour>
    <contour>
      <point x="1562" y="1290" type="move" name="top0315"/>
    </contour>
  </outline>
</glyph>
<glyph name="n" format="1">
  <advance width="982"/>
  <unicode hex="006E"/>
  <outline>
    <contour>
      <point x="506" y="1290" type="move" name="top"/>
    </contour>
    <contour>
      <point x="506" y="10" type="move" name="bottom"/>
    </contour>
    <contour>
      <point x="20" y="1536" type="move" name="caron"/>
    </contour>
    <contour>
      <point x="821" y="0" type="move" name="right"/>
    </contour>
    <contour>
      <point x="506" y="1290" type="move" name="marktop"/>
    </contour>
    <contour>
      <point x="962" y="1600" type="move" name="top_dd"/>
    </contour>
    <contour>
      <point x="962" y="-407" type="move" name="bottom_dd"/>
    </contour>
    <contour>
      <point x="962" y="1290" type="move" name="top0315"/>
    </contour>
    <contour>
      <point x="210" y="851" type="line"/>
      <point x="210" y="1082" type="line"/>
      <point x="164" y="1082" type="line"/>
      <point x="164" y="0" type="line"/>
      <point x="210" y="0" type="line"/>
    </contour>
    <contour>
      <point x="202" y="634" type="line"/>
      <point x="210" y="763"/>
      <point x="301" y="1049"/>
      <point x="530" y="1049" type="curve" smooth="yes"/>
      <point x="674" y="1049"/>
      <point x="776" y="975"/>
      <point x="776" y="700" type="curve" smooth="yes"/>
      <point x="776" y="0" type="line"/>
      <point x="821" y="0" type="line"/>
      <point x="821" y="700" type="line" smooth="yes"/>
      <point x="821" y="987"/>
      <point x="716" y="1102"/>
      <point x="532" y="1102" type="curve" smooth="yes"/>
      <point x="335" y="1102"/>
      <point x="201" y="904"/>
      <point x="178" y="691" type="curve"/>
    </contour>
  </outline>
</glyph>
<glyph name="o" format="1">
  <advance width="982"/>
  <unicode hex="006F"/>
  <outline>
    <contour>
      <point x="496" y="1290" type="move" name="top"/>
    </contour>
    <contour>
      <point x="496" y="-10" type="move" name="bottom"/>
    </contour>
    <contour>
      <point x="967" y="1600" type="move" name="top_dd"/>
    </contour>
    <contour>
      <point x="967" y="-407" type="move" name="bottom_dd"/>
    </contour>
    <contour>
      <point x="863" y="654" type="move" name="rhotichook"/>
    </contour>
    <contour>
      <point x="967" y="1290" type="move" name="top0315"/>
    </contour>
    <contour>
      <point x="118" y="480" type="line"/>
      <point x="118" y="164"/>
      <point x="255" y="-21"/>
      <point x="492" y="-21" type="curve" smooth="yes"/>
      <point x="728" y="-21"/>
      <point x="863" y="164"/>
      <point x="863" y="480" type="curve"/>
      <point x="863" y="602" type="line"/>
      <point x="863" y="918"/>
      <point x="728" y="1102"/>
      <point x="490" y="1102" type="curve" smooth="yes"/>
      <point x="255" y="1102"/>
      <point x="118" y="918"/>
      <point x="118" y="602" type="curve"/>
    </contour>
    <contour>
      <point x="164" y="602" type="line"/>
      <point x="164" y="852"/>
      <point x="269" y="1048"/>
      <point x="490" y="1048" type="curve" smooth="yes"/>
      <point x="713" y="1048"/>
      <point x="818" y="852"/>
      <point x="818" y="602" type="curve"/>
      <point x="818" y="480" type="line"/>
      <point x="818" y="224"/>
      <point x="713" y="33"/>
      <point x="492" y="33" type="curve" smooth="yes"/>
      <point x="269" y="33"/>
      <point x="164" y="224"/>
      <point x="164" y="480" type="curve"/>
    </contour>
  </outline>
</glyph>
<glyph name="p" format="1">
  <advance width="982"/>
  <unicode hex="0070"/>
  <outline>
    <contour>
      <point x="208" y="874" type="line"/>
      <point x="208" y="1082" type="line"/>
      <point x="163" y="1082" type="line"/>
      <point x="163" y="-416" type="line"/>
      <point x="208" y="-416" type="line"/>
    </contour>
    <contour>
      <point x="859" y="592" type="line"/>
      <point x="859" y="961"/>
      <point x="732" y="1102"/>
      <point x="516" y="1102" type="curve" smooth="yes"/>
      <point x="319" y="1102"/>
      <point x="202" y="966"/>
      <point x="163" y="785" type="curve"/>
      <point x="163" y="265" type="line"/>
      <point x="191" y="114"/>
      <point x="313" y="-21"/>
      <point x="518" y="-21" type="curve" smooth="yes"/>
      <point x="733" y="-21"/>
      <point x="859" y="135"/>
      <point x="859" y="491" type="curve" smooth="yes"/>
    </contour>
    <contour>
      <point x="813" y="491" type="line"/>
      <point x="813" y="177"/>
      <point x="717" y="33"/>
      <point x="519" y="33" type="curve" smooth="yes"/>
      <point x="328" y="33"/>
      <point x="223" y="148"/>
      <point x="193" y="290" type="curve"/>
      <point x="193" y="749" type="line"/>
      <point x="217" y="867"/>
      <point x="289" y="1048"/>
      <point x="517" y="1048" type="curve" smooth="yes"/>
      <point x="717" y="1048"/>
      <point x="813" y="905"/>
      <point x="813" y="592" type="curve" smooth="yes"/>
    </contour>
    <contour>
      <point x="510" y="1280" type="move" name="top"/>
    </contour>
    <contour>
      <point x="184" y="-407" type="move" name="bottom"/>
    </contour>
    <contour>
      <point x="510" y="1280" type="move" name="marktop"/>
    </contour>
    <contour>
      <point x="962" y="1600" type="move" name="top_dd"/>
    </contour>
    <contour>
      <point x="962" y="-407" type="move" name="bottom_dd"/>
    </contour>
    <contour>
      <point x="962" y="1280" type="move" name="top0315"/>
    </contour>
  </outline>
</glyph>
<glyph name="q" format="1">
  <advance width="982"/>
  <unicode hex="0071"/>
  <outline>
    <contour>
      <point x="773" y="-416" type="line"/>
      <point x="819" y="-416" type="line"/>
      <point x="819" y="1082" type="line"/>
      <point x="773" y="1082" type="line"/>
      <point x="773" y="874" type="line"/>
    </contour>
    <contour>
      <point x="122" y="491" type="line"/>
      <point x="122" y="135"/>
      <point x="248" y="-21"/>
      <point x="464" y="-21" type="curve" smooth="yes"/>
      <point x="668" y="-21"/>
      <point x="790" y="115"/>
      <point x="819" y="264" type="curve"/>
      <point x="819" y="785" type="line"/>
      <point x="779" y="966"/>
      <point x="663" y="1102"/>
      <point x="465" y="1102" type="curve" smooth="yes"/>
      <point x="249" y="1102"/>
      <point x="122" y="961"/>
      <point x="122" y="592" type="curve" smooth="yes"/>
    </contour>
    <contour>
      <point x="170" y="592" type="line"/>
      <point x="170" y="905"/>
      <point x="264" y="1048"/>
      <point x="464" y="1048" type="curve" smooth="yes"/>
      <point x="690" y="1048"/>
      <point x="767" y="860"/>
      <point x="789" y="749" type="curve"/>
      <point x="789" y="289" type="line"/>
      <point x="758" y="148"/>
      <point x="653" y="33"/>
      <point x="463" y="33" type="curve" smooth="yes"/>
      <point x="264" y="33"/>
      <point x="170" y="177"/>
      <point x="170" y="491" type="curve" smooth="yes"/>
    </contour>
    <contour>
      <point x="471" y="1290" type="move" name="top"/>
    </contour>
    <contour>
      <point x="798" y="-407" type="move" name="bottom"/>
    </contour>
    <contour>
      <point x="471" y="1290" type="move" name="marktop"/>
    </contour>
    <contour>
      <point x="962" y="1600" type="move" name="top_dd"/>
    </contour>
    <contour>
      <point x="962" y="-407" type="move" name="bottom_dd"/>
    </contour>
    <contour>
      <point x="962" y="1290" type="move" name="top0315"/>
    </contour>
  </outline>
</glyph>
<glyph name="r" format="1">
  <advance width="615"/>
  <unicode hex="0072"/>
  <outline>
    <contour>
      <point x="210" y="894" type="line"/>
      <point x="210" y="1082" type="line"/>
      <point x="164" y="1082" type="line"/>
      <point x="164" y="0" type="line"/>
      <point x="210" y="0" type="line"/>
    </contour>
    <contour>
      <point x="570" y="1091" type="line"/>
      <point x="556" y="1097"/>
      <point x="534" y="1102"/>
      <point x="506" y="1102" type="curve"/>
      <point x="280" y="1102"/>
      <point x="170" y="881"/>
      <point x="170" y="577" type="curve"/>
      <point x="201" y="580" type="line"/>
      <point x="201" y="835"/>
      <point x="302" y="1049"/>
      <point x="506" y="1049" type="curve"/>
      <point x="527" y="1049"/>
      <point x="548" y="1046"/>
      <point x="565" y="1043" type="curve"/>
    </contour>
    <contour>
      <point x="367" y="1290" type="move" name="top"/>
    </contour>
    <contour>
      <point x="187" y="19" type="move" name="bottom"/>
    </contour>
    <contour>
      <point x="595" y="1600" type="move" name="top_dd"/>
    </contour>
    <contour>
      <point x="595" y="-407" type="move" name="bottom_dd"/>
    </contour>
    <contour>
      <point x="595" y="1290" type="move" name="top0315"/>
    </contour>
  </outline>
</glyph>
<glyph name="s" format="1">
  <advance width="896"/>
  <unicode hex="0073"/>
  <outline>
    <contour>
      <point x="721" y="255" type="curve" smooth="yes"/>
      <point x="721" y="142"/>
      <point x="626" y="34"/>
      <point x="448" y="34" type="curve" smooth="yes"/>
      <point x="316" y="34"/>
      <point x="164" y="79"/>
      <point x="153" y="265" type="curve"/>
      <point x="107" y="265" type="line"/>
      <point x="107" y="106"/>
      <point x="227" y="-20"/>
      <point x="448" y="-20" type="curve" smooth="yes"/>
      <point x="643" y="-20"/>
      <point x="767" y="87"/>
      <point x="767" y="254" type="curve"/>
      <point x="767" y="425"/>
      <point x="640" y="485"/>
      <point x="461" y="574" type="curve" smooth="yes"/>
      <point x="236" y="689"/>
      <point x="182" y="739"/>
      <point x="182" y="836" type="curve"/>
      <point x="182" y="937"/>
      <point x="257" y="1048"/>
      <point x="441" y="1048" type="curve" smooth="yes"/>
      <point x="621" y="1048"/>
      <point x="720" y="932"/>
      <point x="720" y="798" type="curve"/>
      <point x="766" y="798" type="line"/>
      <point x="766" y="982"/>
      <point x="644" y="1102"/>
      <point x="441" y="1102" type="curve" smooth="yes"/>
      <point x="251" y="1102"/>
      <point x="137" y="985"/>
      <point x="137" y="834" type="curve"/>
      <point x="137" y="684"/>
      <point x="248" y="622"/>
      <point x="441" y="529" type="curve" smooth="yes"/>
      <point x="653" y="425"/>
      <point x="721" y="353"/>
    </contour>
    <contour>
      <point x="450" y="1290" type="move" name="top"/>
    </contour>
    <contour>
      <point x="450" y="-5" type="move" name="bottom"/>
    </contour>
    <contour>
      <point x="876" y="1600" type="move" name="top_dd"/>
    </contour>
    <contour>
      <point x="876" y="-407" type="move" name="bottom_dd"/>
    </contour>
    <contour>
      <point x="876" y="1290" type="move" name="top0315"/>
    </contour>
  </outline>
</glyph>
<glyph name="t" format="1">
  <advance width="584"/>
  <unicode hex="0074"/>
  <outline>
    <contour>
      <point x="473" y="1082" type="line"/>
      <point x="52" y="1082" type="line"/>
      <point x="52" y="1027" type="line"/>
      <point x="473" y="1027" type="line"/>
    </contour>
    <contour>
      <point x="220" y="1374" type="line"/>
      <point x="220" y="259" type="line"/>
      <point x="220" y="42"/>
      <point x="290" y="-20"/>
      <point x="406" y="-20" type="curve" smooth="yes"/>
      <point x="429" y="-20"/>
      <point x="476" y="-18"/>
      <point x="500" y="-8" type="curve"/>
      <point x="493" y="43" type="line"/>
      <point x="462" y="38"/>
      <point x="437" y="34"/>
      <point x="403" y="34" type="curve" smooth="yes"/>
      <point x="330" y="34"/>
      <point x="266" y="69"/>
      <point x="266" y="259" type="curve"/>
      <point x="266" y="1374" type="line"/>
    </contour>
    <contour>
      <point x="367" y="0" type="move" name="bottom"/>
    </contour>
    <contour>
      <point x="422" y="1560" type="move" name="caron"/>
    </contour>
    <contour>
      <point x="306" y="659" type="move" name="cross"/>
    </contour>
    <contour>
      <point x="243" y="1540" type="move" name="top"/>
    </contour>
    <contour>
      <point x="445" y="1290" type="move" name="marktop"/>
    </contour>
    <contour>
      <point x="564" y="1600" type="move" name="top_dd"/>
    </contour>
    <contour>
      <point x="564" y="-407" type="move" name="bottom_dd"/>
    </contour>
    <contour>
      <point x="564" y="1540" type="move" name="top0315"/>
    </contour>
  </outline>
</glyph>
<glyph name="u" format="1">
  <advance width="982"/>
  <unicode hex="0075"/>
  <outline>
    <contour>
      <point x="507" y="1293" type="move" name="top"/>
    </contour>
    <contour>
      <point x="819" y="0" type="move" name="ogonek"/>
    </contour>
    <contour>
      <point x="452" y="0" type="move" name="bottomu"/>
    </contour>
    <contour>
      <point x="962" y="1600" type="move" name="top_dd"/>
    </contour>
    <contour>
      <point x="962" y="-407" type="move" name="bottom_dd"/>
    </contour>
    <contour>
      <point x="796" y="654" type="move" name="rhotichook"/>
    </contour>
    <contour>
      <point x="962" y="1293" type="move" name="top0315"/>
    </contour>
    <contour>
      <point x="490" y="0" type="move" name="bottom"/>
    </contour>
    <contour>
      <point x="773" y="250" type="line"/>
      <point x="773" y="0" type="line"/>
      <point x="820" y="0" type="line"/>
      <point x="820" y="1082" type="line"/>
      <point x="773" y="1082" type="line"/>
    </contour>
    <contour>
      <point x="781" y="423" type="line"/>
      <point x="781" y="226"/>
      <point x="704" y="34"/>
      <point x="458" y="34" type="curve" smooth="yes"/>
      <point x="313" y="34"/>
      <point x="206" y="128"/>
      <point x="206" y="393" type="curve"/>
      <point x="206" y="1082" type="line"/>
      <point x="161" y="1082" type="line"/>
      <point x="161" y="395" type="line"/>
      <point x="161" y="93"/>
      <point x="282" y="-20"/>
      <point x="460" y="-20" type="curve" smooth="yes"/>
      <point x="710" y="-20"/>
      <point x="820" y="169"/>
      <point x="820" y="425" type="curve"/>
    </contour>
  </outline>
</glyph>
<glyph name="v" format="1">
  <advance width="862"/>
  <unicode hex="0076"/>
  <outline>
    <contour>
      <point x="424" y="64" type="line"/>
      <point x="411" y="0" type="line"/>
      <point x="453" y="0" type="line"/>
      <point x="807" y="1082" type="line"/>
      <point x="758" y="1082" type="line"/>
    </contour>
    <contour>
      <point x="105" y="1082" type="line"/>
      <point x="56" y="1082" type="line"/>
      <point x="409" y="0" type="line"/>
      <point x="453" y="0" type="line"/>
      <point x="439" y="63" type="line"/>
    </contour>
    <contour>
      <point x="435" y="1280" type="move" name="top"/>
    </contour>
    <contour>
      <point x="431" y="10" type="move" name="bottom"/>
    </contour>
    <contour>
      <point x="842" y="1600" type="move" name="top_dd"/>
    </contour>
    <contour>
      <point x="842" y="-407" type="move" name="bottom_dd"/>
    </contour>
    <contour>
      <point x="842" y="1280" type="move" name="top0315"/>
    </contour>
  </outline>
</glyph>
<glyph name="w" format="1">
  <advance width="1342"/>
  <unicode hex="0077"/>
  <outline>
    <contour>
      <point x="439" y="313" type="line"/>
      <point x="356" y="0" type="line"/>
      <point x="399" y="0" type="line"/>
      <point x="620" y="813" type="line"/>
      <point x="684" y="1082" type="line"/>
      <point x="643" y="1082" type="line"/>
    </contour>
    <contour>
      <point x="142" y="1082" type="line"/>
      <point x="90" y="1082" type="line"/>
      <point x="353" y="0" type="line"/>
      <point x="395" y="0" type="line"/>
      <point x="327" y="313" type="line"/>
    </contour>
    <contour>
      <point x="1005" y="313" type="line"/>
      <point x="937" y="0" type="line"/>
      <point x="978" y="0" type="line"/>
      <point x="1243" y="1082" type="line"/>
      <point x="1190" y="1082" type="line"/>
    </contour>
    <contour>
      <point x="689" y="1082" type="line"/>
      <point x="649" y="1082" type="line"/>
      <point x="709" y="813" type="line"/>
      <point x="933" y="0" type="line"/>
      <point x="976" y="0" type="line"/>
      <point x="893" y="313" type="line"/>
    </contour>
    <contour>
      <point x="664" y="1293" type="move" name="top"/>
    </contour>
    <contour>
      <point x="666" y="10" type="move" name="bottom"/>
    </contour>
    <contour>
      <point x="664" y="1293" type="move" name="marktop"/>
    </contour>
    <contour>
      <point x="1322" y="1600" type="move" name="top_dd"/>
    </contour>
    <contour>
      <point x="1322" y="-407" type="move" name="bottom_dd"/>
    </contour>
    <contour>
      <point x="1322" y="1293" type="move" name="top0315"/>
    </contour>
  </outline>
</glyph>
<glyph name="x" format="1">
  <advance width="862"/>
  <unicode hex="0078"/>
  <outline>
    <contour>
      <point x="140" y="1082" type="line"/>
      <point x="83" y="1082" type="line"/>
      <point x="402" y="555" type="line"/>
      <point x="66" y="0" type="line"/>
      <point x="122" y="0" type="line"/>
      <point x="430" y="508" type="line"/>
      <point x="738" y="0" type="line"/>
      <point x="794" y="0" type="line"/>
      <point x="458" y="555" type="line"/>
      <point x="778" y="1082" type="line"/>
      <point x="721" y="1082" type="line"/>
      <point x="431" y="602" type="line"/>
    </contour>
    <contour>
      <point x="452" y="10" type="move" name="bottom"/>
    </contour>
    <contour>
      <point x="768" y="0" type="move" name="right"/>
    </contour>
    <contour>
      <point x="439" y="553" type="move" name="cross"/>
    </contour>
    <contour>
      <point x="446" y="1280" type="move" name="top"/>
    </contour>
    <contour>
      <point x="842" y="1600" type="move" name="top_dd"/>
    </contour>
    <contour>
      <point x="842" y="-407" type="move" name="bottom_dd"/>
    </contour>
    <contour>
      <point x="842" y="1280" type="move" name="top0315"/>
    </contour>
  </outline>
</glyph>
<glyph name="y" format="1">
  <advance width="862"/>
  <unicode hex="0079"/>
  <outline>
    <contour>
      <point x="448" y="104" type="line"/>
      <point x="364" y="-170" type="line" smooth="yes"/>
      <point x="325" y="-295"/>
      <point x="275" y="-384"/>
      <point x="163" y="-384" type="curve" smooth="yes"/>
      <point x="152" y="-384"/>
      <point x="118" y="-380"/>
      <point x="101" y="-375" type="curve"/>
      <point x="102" y="-426" type="line"/>
      <point x="116" y="-433"/>
      <point x="151" y="-437"/>
      <point x="170" y="-437" type="curve" smooth="yes"/>
      <point x="336" y="-437"/>
      <point x="380" y="-271"/>
      <point x="409" y="-180" type="curve" smooth="yes"/>
      <point x="813" y="1082" type="line"/>
      <point x="763" y="1082" type="line"/>
    </contour>
    <contour>
      <point x="106" y="1082" type="line"/>
      <point x="56" y="1082" type="line"/>
      <point x="427" y="-21" type="line"/>
      <point x="464" y="10" type="line"/>
      <point x="449" y="64" type="line"/>
    </contour>
    <contour>
      <point x="456" y="1293" type="move" name="top"/>
    </contour>
    <contour>
      <point x="622" y="-158" type="move" name="bottom"/>
    </contour>
    <contour>
      <point x="456" y="1293" type="move" name="marktop"/>
    </contour>
    <contour>
      <point x="842" y="1600" type="move" name="top_dd"/>
    </contour>
    <contour>
      <point x="842" y="-407" type="move" name="bottom_dd"/>
    </contour>
    <contour>
      <point x="649" y="654" type="move" name="rhotichook"/>
    </contour>
    <contour>
      <point x="842" y="1293" type="move" name="top0315"/>
    </contour>
  </outline>
</glyph>
<glyph name="z" format="1">
  <advance width="862"/>
  <unicode hex="007A"/>
  <outline>
    <contour>
      <point x="801" y="54" type="line"/>
      <point x="106" y="54" type="line"/>
      <point x="106" y="0" type="line"/>
      <point x="801" y="0" type="line"/>
    </contour>
    <contour>
      <point x="752" y="1034" type="line"/>
      <point x="752" y="1082" type="line"/>
      <point x="724" y="1082" type="line"/>
      <point x="93" y="44" type="line"/>
      <point x="93" y="0" type="line"/>
      <point x="122" y="0" type="line"/>
    </contour>
    <contour>
      <point x="731" y="1082" type="line"/>
      <point x="119" y="1082" type="line"/>
      <point x="119" y="1027" type="line"/>
      <point x="731" y="1027" type="line"/>
    </contour>
    <contour>
      <point x="448" y="1293" type="move" name="top"/>
    </contour>
    <contour>
      <point x="473" y="10" type="move" name="bottom"/>
    </contour>
    <contour>
      <point x="842" y="1600" type="move" name="top_dd"/>
    </contour>
    <contour>
      <point x="842" y="-407" type="move" name="bottom_dd"/>
    </contour>
    <contour>
      <point x="842" y="1293" type="move" name="top0315"/>
    </contour>
  </outline>
</glyph>
<glyph name="braceleft" format="1">
  <advance width="594"/>
  <unicode hex="007B"/>
  <outline>
    <contour>
      <point x="559" y="1597" type="line"/>
      <point x="354" y="1520"/>
      <point x="291" y="1342"/>
      <point x="291" y="1132" type="curve"/>
      <point x="291" y="885" type="line"/>
      <point x="291" y="717"/>
      <point x="230" y="609"/>
      <point x="81" y="609" type="curve"/>
      <point x="81" y="566" type="line"/>
      <point x="264" y="566"/>
      <point x="337" y="706"/>
      <point x="337" y="885" type="curve"/>
      <point x="337" y="1132" type="line"/>
      <point x="337" y="1331"/>
      <point x="406" y="1489"/>
      <point x="572" y="1552" type="curve"/>
    </contour>
    <contour>
      <point x="576" y="-395" type="line"/>
      <point x="411" y="-329"/>
      <point x="337" y="-181"/>
      <point x="337" y="20" type="curve" smooth="yes"/>
      <point x="337" y="265" type="line" smooth="yes"/>
      <point x="337" y="444"/>
      <point x="264" y="586"/>
      <point x="81" y="586" type="curve"/>
      <point x="81" y="543" type="line"/>
      <point x="230" y="543"/>
      <point x="291" y="434"/>
      <point x="291" y="265" type="curve" smooth="yes"/>
      <point x="291" y="20" type="line" smooth="yes"/>
      <point x="291" y="-190"/>
      <point x="354" y="-364"/>
      <point x="559" y="-441" type="curve"/>
    </contour>
  </outline>
</glyph>
<glyph name="braceright" format="1">
  <advance width="594"/>
  <unicode hex="007D"/>
  <outline>
    <contour>
      <point x="24" y="1552" type="line"/>
      <point x="190" y="1489"/>
      <point x="259" y="1331"/>
      <point x="259" y="1132" type="curve" smooth="yes"/>
      <point x="259" y="885" type="line" smooth="yes"/>
      <point x="259" y="706"/>
      <point x="332" y="566"/>
      <point x="514" y="566" type="curve"/>
      <point x="514" y="609" type="line"/>
      <point x="366" y="609"/>
      <point x="304" y="717"/>
      <point x="304" y="885" type="curve" smooth="yes"/>
      <point x="304" y="1132" type="line" smooth="yes"/>
      <point x="304" y="1342"/>
      <point x="242" y="1520"/>
      <point x="36" y="1597" type="curve"/>
    </contour>
    <contour>
      <point x="36" y="-441" type="line"/>
      <point x="242" y="-364"/>
      <point x="304" y="-190"/>
      <point x="304" y="20" type="curve" smooth="yes"/>
      <point x="304" y="265" type="line" smooth="yes"/>
      <point x="304" y="434"/>
      <point x="366" y="543"/>
      <point x="514" y="543" type="curve"/>
      <point x="514" y="586" type="line"/>
      <point x="332" y="586"/>
      <point x="259" y="444"/>
      <point x="259" y="265" type="curve" smooth="yes"/>
      <point x="259" y="20" type="line" smooth="yes"/>
      <point x="259" y="-181"/>
      <point x="184" y="-329"/>
      <point x="20" y="-395" type="curve"/>
    </contour>
  </outline>
</glyph>
<glyph name="asciitilde" format="1">
  <advance width="1226"/>
  <unicode hex="007E"/>
  <outline>
    <contour>
      <point x="1020" y="753" type="line"/>
      <point x="1020" y="596"/>
      <point x="957" y="496"/>
      <point x="841" y="496" type="curve" smooth="yes"/>
      <point x="768" y="496"/>
      <point x="716" y="531"/>
      <point x="632" y="624" type="curve" smooth="yes"/>
      <point x="543" y="717"/>
      <point x="481" y="774"/>
      <point x="380" y="774" type="curve" smooth="yes"/>
      <point x="224" y="774"/>
      <point x="154" y="631"/>
      <point x="154" y="462" type="curve"/>
      <point x="201" y="462" type="line"/>
      <point x="201" y="632"/>
      <point x="268" y="720"/>
      <point x="380" y="720" type="curve" smooth="yes"/>
      <point x="460" y="720"/>
      <point x="507" y="682"/>
      <point x="590" y="593" type="curve" smooth="yes"/>
      <point x="681" y="496"/>
      <point x="740" y="443"/>
      <point x="841" y="443" type="curve" smooth="yes"/>
      <point x="993" y="443"/>
      <point x="1067" y="589"/>
      <point x="1067" y="752" type="curve"/>
    </contour>
  </outline>
</glyph>
<glyph name="exclamdown" format="1">
  <advance width="381"/>
  <unicode hex="00A1"/>
  <outline>
    <contour>
      <point x="170" y="-359" type="line"/>
      <point x="216" y="-359" type="line"/>
      <point x="216" y="696" type="line"/>
      <point x="170" y="696" type="line"/>
    </contour>
    <contour>
      <point x="233" y="1048" type="curve" smooth="yes"/>
      <point x="233" y="1079"/>
      <point x="212" y="1103"/>
      <point x="186" y="1103" type="curve" smooth="yes"/>
      <point x="160" y="1103"/>
      <point x="139" y="1079"/>
      <point x="139" y="1048" type="curve" smooth="yes"/>
      <point x="139" y="1017"/>
      <point x="160" y="992"/>
      <point x="186" y="992" type="curve" smooth="yes"/>
      <point x="212" y="992"/>
      <point x="233" y="1017"/>
    </contour>
  </outline>
</glyph>
<glyph name="cent" format="1">
  <advance width="972"/>
  <unicode hex="00A2"/>
  <outline>
    <contour>
      <point x="527" y="1318" type="line"/>
      <point x="481" y="1318" type="line"/>
      <point x="481" y="1070" type="line"/>
      <point x="527" y="1070" type="line"/>
    </contour>
    <contour>
      <point x="527" y="2" type="line"/>
      <point x="481" y="2" type="line"/>
      <point x="481" y="-245" type="line"/>
      <point x="527" y="-245" type="line"/>
    </contour>
    <contour>
      <point x="504" y="34" type="curve" smooth="yes"/>
      <point x="280" y="34"/>
      <point x="178" y="249"/>
      <point x="178" y="520" type="curve" smooth="yes"/>
      <point x="178" y="562" type="line" smooth="yes"/>
      <point x="178" y="831"/>
      <point x="280" y="1048"/>
      <point x="502" y="1048" type="curve"/>
      <point x="652" y="1048"/>
      <point x="787" y="940"/>
      <point x="795" y="725" type="curve"/>
      <point x="841" y="725" type="line"/>
      <point x="832" y="973"/>
      <point x="678" y="1102"/>
      <point x="502" y="1102" type="curve" smooth="yes"/>
      <point x="268" y="1102"/>
      <point x="133" y="879"/>
      <point x="133" y="562" type="curve" smooth="yes"/>
      <point x="133" y="520" type="line" smooth="yes"/>
      <point x="133" y="203"/>
      <point x="268" y="-20"/>
      <point x="504" y="-20" type="curve"/>
      <point x="681" y="-20"/>
      <point x="831" y="108"/>
      <point x="841" y="328" type="curve"/>
      <point x="795" y="328" type="line"/>
      <point x="784" y="121"/>
      <point x="646" y="34"/>
    </contour>
  </outline>
</glyph>
<glyph name="yen" format="1">
  <advance width="912"/>
  <unicode hex="00A5"/>
  <outline>
    <contour>
      <point x="805" y="676" type="line"/>
      <point x="103" y="676" type="line"/>
      <point x="103" y="621" type="line"/>
      <point x="805" y="621" type="line"/>
    </contour>
    <contour>
      <point x="805" y="381" type="line"/>
      <point x="103" y="381" type="line"/>
      <point x="103" y="326" type="line"/>
      <point x="805" y="326" type="line"/>
    </contour>
    <contour>
      <point x="479" y="738" type="line"/>
      <point x="433" y="629" type="line"/>
      <point x="475" y="629" type="line"/>
      <point x="860" y="1456" type="line"/>
      <point x="808" y="1456" type="line"/>
    </contour>
    <contour>
      <point x="100" y="1456" type="line"/>
      <point x="48" y="1456" type="line"/>
      <point x="432" y="629" type="line"/>
      <point x="474" y="629" type="line"/>
      <point x="429" y="738" type="line"/>
    </contour>
    <contour>
      <point x="476" y="687" type="line"/>
      <point x="431" y="687" type="line"/>
      <point x="431" y="0" type="line"/>
      <point x="476" y="0" type="line"/>
    </contour>
  </outline>
</glyph>
<glyph name="section" format="1">
  <advance width="1067"/>
  <unicode hex="00A7"/>
  <outline>
    <contour>
      <point x="595" y="157" type="line"/>
      <point x="804" y="157"/>
      <point x="939" y="267"/>
      <point x="939" y="431" type="curve"/>
      <point x="939" y="656"/>
      <point x="788" y="729"/>
      <point x="537" y="804" type="curve" smooth="yes"/>
      <point x="269" y="896"/>
      <point x="205" y="968"/>
      <point x="205" y="1132" type="curve"/>
      <point x="205" y="1292"/>
      <point x="308" y="1422"/>
      <point x="539" y="1422" type="curve" smooth="yes"/>
      <point x="757" y="1422"/>
      <point x="875" y="1253"/>
      <point x="875" y="1045" type="curve"/>
      <point x="920" y="1045" type="line"/>
      <point x="920" y="1323"/>
      <point x="777" y="1476"/>
      <point x="539" y="1476" type="curve" smooth="yes"/>
      <point x="308" y="1476"/>
      <point x="159" y="1339"/>
      <point x="159" y="1129" type="curve"/>
      <point x="159" y="916"/>
      <point x="292" y="833"/>
      <point x="516" y="766" type="curve" smooth="yes"/>
      <point x="805" y="671"/>
      <point x="894" y="593"/>
      <point x="894" y="428" type="curve"/>
      <point x="894" y="301"/>
      <point x="786" y="196"/>
      <point x="595" y="196" type="curve"/>
    </contour>
    <contour>
      <point x="450" y="830" type="line"/>
      <point x="249" y="830"/>
      <point x="122" y="723"/>
      <point x="122" y="551" type="curve" smooth="yes"/>
      <point x="122" y="325"/>
      <point x="285" y="236"/>
      <point x="530" y="166" type="curve"/>
      <point x="793" y="84"/>
      <point x="856" y="2"/>
      <point x="856" y="-151" type="curve" smooth="yes"/>
      <point x="856" y="-319"/>
      <point x="737" y="-441"/>
      <point x="524" y="-441" type="curve" smooth="yes"/>
      <point x="356" y="-441"/>
      <point x="162" y="-353"/>
      <point x="162" y="-62" type="curve"/>
      <point x="117" y="-64" type="line"/>
      <point x="117" y="-388"/>
      <point x="323" y="-495"/>
      <point x="524" y="-495" type="curve" smooth="yes"/>
      <point x="752" y="-495"/>
      <point x="902" y="-367"/>
      <point x="902" y="-149" type="curve" smooth="yes"/>
      <point x="902" y="65"/>
      <point x="772" y="144"/>
      <point x="544" y="215" type="curve" smooth="yes"/>
      <point x="241" y="317"/>
      <point x="167" y="379"/>
      <point x="167" y="553" type="curve" smooth="yes"/>
      <point x="167" y="689"/>
      <point x="255" y="797"/>
      <point x="450" y="797" type="curve"/>
    </contour>
  </outline>
</glyph>
<glyph name="dieresis" format="1">
  <advance width="906"/>
  <unicode hex="00A8"/>
  <outline>
    <contour>
      <point x="174" y="1421" type="curve" smooth="yes"/>
      <point x="174" y="1390"/>
      <point x="198" y="1366"/>
      <point x="229" y="1366" type="curve" smooth="yes"/>
      <point x="260" y="1366"/>
      <point x="285" y="1390"/>
      <point x="285" y="1421" type="curve" smooth="yes"/>
      <point x="285" y="1452"/>
      <point x="260" y="1477"/>
      <point x="229" y="1477" type="curve" smooth="yes"/>
      <point x="198" y="1477"/>
      <point x="174" y="1452"/>
    </contour>
    <contour>
      <point x="619" y="1421" type="curve" smooth="yes"/>
      <point x="619" y="1390"/>
      <point x="643" y="1366"/>
      <point x="674" y="1366" type="curve" smooth="yes"/>
      <point x="705" y="1366"/>
      <point x="730" y="1390"/>
      <point x="730" y="1421" type="curve" smooth="yes"/>
      <point x="730" y="1452"/>
      <point x="705" y="1477"/>
      <point x="674" y="1477" type="curve" smooth="yes"/>
      <point x="643" y="1477"/>
      <point x="619" y="1452"/>
    </contour>
    <contour>
      <point x="450" y="1293" type="move" name="_top"/>
    </contour>
    <contour>
      <point x="451" y="1540" type="move" name="mkmktop_acc"/>
    </contour>
  </outline>
</glyph>
<glyph name="copyright" format="1">
  <advance width="1666"/>
  <unicode hex="00A9"/>
  <outline>
    <contour>
      <point x="1072" y="616" type="line"/>
      <point x="1072" y="437"/>
      <point x="984" y="357"/>
      <point x="826" y="357" type="curve" smooth="yes"/>
      <point x="657" y="357"/>
      <point x="561" y="502"/>
      <point x="561" y="689" type="curve" smooth="yes"/>
      <point x="561" y="769" type="line" smooth="yes"/>
      <point x="561" y="954"/>
      <point x="657" y="1102"/>
      <point x="826" y="1102" type="curve" smooth="yes"/>
      <point x="984" y="1102"/>
      <point x="1073" y="1016"/>
      <point x="1073" y="842" type="curve"/>
      <point x="1125" y="842" type="line"/>
      <point x="1125" y="1051"/>
      <point x="1007" y="1155"/>
      <point x="826" y="1155" type="curve" smooth="yes"/>
      <point x="635" y="1155"/>
      <point x="506" y="997"/>
      <point x="506" y="768" type="curve"/>
      <point x="506" y="689" type="line"/>
      <point x="506" y="459"/>
      <point x="635" y="302"/>
      <point x="826" y="302" type="curve" smooth="yes"/>
      <point x="1007" y="302"/>
      <point x="1124" y="406"/>
      <point x="1124" y="616" type="curve"/>
    </contour>
    <contour>
      <point x="179" y="729" type="curve"/>
      <point x="179" y="1117"/>
      <point x="474" y="1421"/>
      <point x="833" y="1421" type="curve" smooth="yes"/>
      <point x="1191" y="1421"/>
      <point x="1487" y="1117"/>
      <point x="1487" y="729" type="curve" smooth="yes"/>
      <point x="1487" y="341"/>
      <point x="1191" y="34"/>
      <point x="833" y="34" type="curve" smooth="yes"/>
      <point x="474" y="34"/>
      <point x="179" y="341"/>
    </contour>
    <contour>
      <point x="123" y="729" type="curve"/>
      <point x="123" y="306"/>
      <point x="442" y="-21"/>
      <point x="833" y="-21" type="curve" smooth="yes"/>
      <point x="1225" y="-21"/>
      <point x="1543" y="306"/>
      <point x="1543" y="729" type="curve" smooth="yes"/>
      <point x="1543" y="1152"/>
      <point x="1225" y="1476"/>
      <point x="833" y="1476" type="curve" smooth="yes"/>
      <point x="442" y="1476"/>
      <point x="123" y="1152"/>
    </contour>
  </outline>
</glyph>
<glyph name="ordfeminine" format="1">
  <advance width="794"/>
  <unicode hex="00AA"/>
  <outline>
    <contour>
      <point x="572" y="861" type="line"/>
      <point x="572" y="806"/>
      <point x="579" y="752"/>
      <point x="591" y="705" type="curve"/>
      <point x="640" y="705" type="line"/>
      <point x="626" y="763"/>
      <point x="618" y="821"/>
      <point x="618" y="886" type="curve" smooth="yes"/>
      <point x="618" y="1200" type="line"/>
      <point x="618" y="1383"/>
      <point x="530" y="1476"/>
      <point x="405" y="1476" type="curve" smooth="yes"/>
      <point x="258" y="1476"/>
      <point x="160" y="1378"/>
      <point x="160" y="1243" type="curve"/>
      <point x="206" y="1243" type="line"/>
      <point x="206" y="1364"/>
      <point x="283" y="1422"/>
      <point x="405" y="1422" type="curve" smooth="yes"/>
      <point x="516" y="1422"/>
      <point x="572" y="1339"/>
      <point x="572" y="1201" type="curve"/>
    </contour>
    <contour>
      <point x="586" y="1132" type="line"/>
      <point x="429" y="1132" type="line"/>
      <point x="259" y="1132"/>
      <point x="161" y="1045"/>
      <point x="161" y="900" type="curve" smooth="yes"/>
      <point x="161" y="774"/>
      <point x="235" y="691"/>
      <point x="370" y="691" type="curve" smooth="yes"/>
      <point x="485" y="691"/>
      <point x="571" y="792"/>
      <point x="595" y="877" type="curve"/>
      <point x="576" y="928" type="line"/>
      <point x="576" y="850"/>
      <point x="470" y="746"/>
      <point x="371" y="746" type="curve" smooth="yes"/>
      <point x="254" y="746"/>
      <point x="206" y="810"/>
      <point x="206" y="904" type="curve" smooth="yes"/>
      <point x="206" y="1024"/>
      <point x="288" y="1078"/>
      <point x="430" y="1078" type="curve"/>
      <point x="587" y="1078" type="line"/>
    </contour>
  </outline>
</glyph>
<glyph name="logicalnot" format="1">
  <advance width="965"/>
  <unicode hex="00AC"/>
  <outline>
    <contour>
      <point x="789" y="753" type="line"/>
      <point x="122" y="753" type="line"/>
      <point x="122" y="700" type="line"/>
      <point x="789" y="700" type="line"/>
    </contour>
    <contour>
      <point x="789" y="706" type="line"/>
      <point x="743" y="706" type="line"/>
      <point x="743" y="396" type="line"/>
      <point x="789" y="396" type="line"/>
    </contour>
  </outline>
</glyph>
<glyph name="registered" format="1">
  <advance width="1674"/>
  <unicode hex="00AE"/>
  <outline>
    <contour>
      <point x="870" y="678" type="line"/>
      <point x="909" y="678"/>
      <point x="890" y="678"/>
      <point x="925" y="699" type="curve" smooth="yes"/>
      <point x="929" y="699"/>
      <point x="934" y="699"/>
      <point x="938" y="700" type="curve" smooth="yes"/>
      <point x="1052" y="736"/>
      <point x="1121" y="807"/>
      <point x="1121" y="916" type="curve"/>
      <point x="1121" y="1074"/>
      <point x="1024" y="1156"/>
      <point x="832" y="1156" type="curve"/>
      <point x="593" y="1156" type="line"/>
      <point x="593" y="326" type="line"/>
      <point x="648" y="326" type="line"/>
      <point x="648" y="1101" type="line"/>
      <point x="832" y="1101" type="line"/>
      <point x="1009" y="1101"/>
      <point x="1066" y="1042"/>
      <point x="1066" y="917" type="curve"/>
      <point x="1066" y="797"/>
      <point x="969" y="734"/>
      <point x="853" y="734" type="curve"/>
      <point x="612" y="734" type="line"/>
      <point x="614" y="678" type="line"/>
    </contour>
    <contour>
      <point x="860" y="678" type="line"/>
      <point x="995" y="678"/>
      <point x="1044" y="629"/>
      <point x="1044" y="504" type="curve"/>
      <point x="1044" y="470" type="line"/>
      <point x="1044" y="441"/>
      <point x="1044" y="360"/>
      <point x="1058" y="326" type="curve"/>
      <point x="1117" y="326" type="line"/>
      <point x="1117" y="342" type="line"/>
      <point x="1106" y="372"/>
      <point x="1100" y="419"/>
      <point x="1100" y="469" type="curve"/>
      <point x="1100" y="505" type="line"/>
      <point x="1100" y="624"/>
      <point x="1048" y="723"/>
      <point x="871" y="723" type="curve"/>
    </contour>
    <contour>
      <point x="170" y="729" type="curve" smooth="yes"/>
      <point x="170" y="1117"/>
      <point x="466" y="1421"/>
      <point x="825" y="1421" type="curve" smooth="yes"/>
      <point x="1183" y="1421"/>
      <point x="1479" y="1117"/>
      <point x="1479" y="729" type="curve" smooth="yes"/>
      <point x="1479" y="341"/>
      <point x="1183" y="34"/>
      <point x="825" y="34" type="curve" smooth="yes"/>
      <point x="466" y="34"/>
      <point x="170" y="341"/>
    </contour>
    <contour>
      <point x="115" y="729" type="curve" smooth="yes"/>
      <point x="115" y="306"/>
      <point x="433" y="-21"/>
      <point x="825" y="-21" type="curve" smooth="yes"/>
      <point x="1217" y="-21"/>
      <point x="1535" y="306"/>
      <point x="1535" y="729" type="curve" smooth="yes"/>
      <point x="1535" y="1152"/>
      <point x="1217" y="1476"/>
      <point x="825" y="1476" type="curve" smooth="yes"/>
      <point x="433" y="1476"/>
      <point x="115" y="1152"/>
    </contour>
  </outline>
</glyph>
<glyph name="macron" format="1">
  <advance width="721"/>
  <unicode hex="00AF"/>
  <outline>
    <contour>
      <point x="607" y="1436" type="line"/>
      <point x="131" y="1436" type="line"/>
      <point x="131" y="1383" type="line"/>
      <point x="607" y="1383" type="line"/>
    </contour>
    <contour>
      <point x="367" y="1282" type="move" name="_top"/>
    </contour>
    <contour>
      <point x="367" y="1540" type="move" name="mkmktop_acc"/>
    </contour>
  </outline>
</glyph>
<glyph name="degree" format="1">
  <advance width="783"/>
  <unicode hex="00B0"/>
  <outline>
    <contour>
      <point x="156" y="1236" type="curve"/>
      <point x="156" y="1103"/>
      <point x="262" y="999"/>
      <point x="392" y="999" type="curve" smooth="yes"/>
      <point x="519" y="999"/>
      <point x="624" y="1103"/>
      <point x="624" y="1236" type="curve" smooth="yes"/>
      <point x="624" y="1367"/>
      <point x="519" y="1476"/>
      <point x="392" y="1476" type="curve" smooth="yes"/>
      <point x="262" y="1476"/>
      <point x="156" y="1367"/>
    </contour>
    <contour>
      <point x="211" y="1236" type="curve"/>
      <point x="211" y="1343"/>
      <point x="289" y="1421"/>
      <point x="392" y="1421" type="curve" smooth="yes"/>
      <point x="494" y="1421"/>
      <point x="568" y="1343"/>
      <point x="568" y="1236" type="curve" smooth="yes"/>
      <point x="568" y="1131"/>
      <point x="494" y="1055"/>
      <point x="392" y="1055" type="curve" smooth="yes"/>
      <point x="289" y="1055"/>
      <point x="211" y="1131"/>
    </contour>
  </outline>
</glyph>
<glyph name="plusminus" format="1">
  <advance width="945"/>
  <unicode hex="00B1"/>
  <outline>
    <contour>
      <point x="850" y="805" type="line"/>
      <point x="80" y="805" type="line"/>
      <point x="80" y="751" type="line"/>
      <point x="850" y="751" type="line"/>
    </contour>
    <contour>
      <point x="498" y="1267" type="line"/>
      <point x="453" y="1267" type="line"/>
      <point x="453" y="289" type="line"/>
      <point x="498" y="289" type="line"/>
    </contour>
    <component base="minus" xOffset="-34" yOffset="-722"/>
  </outline>
</glyph>
<glyph name="acute" format="1">
  <advance width="511"/>
  <unicode hex="00B4"/>
  <outline>
    <contour>
      <point x="126" y="1270" type="line"/>
      <point x="186" y="1270" type="line"/>
      <point x="381" y="1536" type="line"/>
      <point x="315" y="1536" type="line"/>
    </contour>
    <contour>
      <point x="166" y="1293" type="move" name="_top"/>
    </contour>
    <contour>
      <point x="166" y="1543" type="move" name="mkmktop_acc"/>
    </contour>
  </outline>
</glyph>
<glyph name="mu" format="1">
  <advance width="982"/>
  <unicode hex="00B5"/>
  <outline>
    <contour>
      <point x="775" y="1082" type="line"/>
      <point x="775" y="250" type="line"/>
      <point x="778" y="0" type="line"/>
      <point x="821" y="0" type="line"/>
      <point x="821" y="1082" type="line"/>
    </contour>
    <contour>
      <point x="778" y="503" type="line"/>
      <point x="778" y="242"/>
      <point x="723" y="34"/>
      <point x="464" y="34" type="curve" smooth="yes"/>
      <point x="332" y="34"/>
      <point x="207" y="118"/>
      <point x="207" y="440" type="curve"/>
      <point x="175" y="440" type="line"/>
      <point x="166" y="372" type="line"/>
      <point x="187" y="70"/>
      <point x="329" y="-20"/>
      <point x="472" y="-20" type="curve" smooth="yes"/>
      <point x="722" y="-20"/>
      <point x="821" y="202"/>
      <point x="821" y="505" type="curve"/>
    </contour>
    <contour>
      <point x="164" y="1082" type="line"/>
      <point x="164" y="-416" type="line"/>
      <point x="207" y="-416" type="line"/>
      <point x="207" y="1082" type="line"/>
    </contour>
  </outline>
</glyph>
<glyph name="paragraph" format="1">
  <advance width="835"/>
  <unicode hex="00B6"/>
  <outline>
    <contour>
      <point x="667" y="0" type="line"/>
      <point x="667" y="1456" type="line"/>
      <point x="516" y="1456" type="line" smooth="yes"/>
      <point x="248" y="1456"/>
      <point x="103" y="1256"/>
      <point x="103" y="988" type="curve" smooth="yes"/>
      <point x="103" y="718"/>
      <point x="248" y="520"/>
      <point x="516" y="520" type="curve" smooth="yes"/>
      <point x="621" y="520" type="line"/>
      <point x="621" y="0" type="line"/>
    </contour>
  </outline>
</glyph>
<glyph name="periodcentered" format="1">
  <advance width="436"/>
  <unicode hex="00B7"/>
  <outline>
    <contour>
      <point x="170" y="706" type="curve" smooth="yes"/>
      <point x="170" y="675"/>
      <point x="191" y="651"/>
      <point x="217" y="651" type="curve" smooth="yes"/>
      <point x="243" y="651"/>
      <point x="264" y="675"/>
      <point x="264" y="706" type="curve" smooth="yes"/>
      <point x="264" y="737"/>
      <point x="243" y="762"/>
      <point x="217" y="762" type="curve" smooth="yes"/>
      <point x="191" y="762"/>
      <point x="170" y="737"/>
    </contour>
  </outline>
</glyph>
<glyph name="cedilla" format="1">
  <advance width="452"/>
  <unicode hex="00B8"/>
  <outline>
    <contour>
      <point x="149" y="0" type="line"/>
      <point x="128" y="-121" type="line"/>
      <point x="233" y="-134"/>
      <point x="287" y="-157"/>
      <point x="287" y="-245" type="curve" smooth="yes"/>
      <point x="287" y="-344"/>
      <point x="178" y="-386"/>
      <point x="88" y="-386" type="curve"/>
      <point x="94" y="-435" type="line"/>
      <point x="242" y="-435"/>
      <point x="333" y="-359"/>
      <point x="333" y="-245" type="curve" smooth="yes"/>
      <point x="333" y="-124"/>
      <point x="259" y="-85"/>
      <point x="185" y="-76" type="curve"/>
      <point x="194" y="0" type="line"/>
    </contour>
    <contour>
      <point x="170" y="0" type="move" name="_bottom"/>
    </contour>
    <contour>
      <point x="170" y="-435" type="move" name="mkmkbottom_acc"/>
    </contour>
  </outline>
</glyph>
<glyph name="ordmasculine" format="1">
  <advance width="808"/>
  <unicode hex="00BA"/>
  <outline>
    <contour>
      <point x="144" y="1024" type="line"/>
      <point x="144" y="829"/>
      <point x="242" y="690"/>
      <point x="401" y="690" type="curve" smooth="yes"/>
      <point x="559" y="690"/>
      <point x="656" y="829"/>
      <point x="656" y="1024" type="curve"/>
      <point x="656" y="1141" type="line"/>
      <point x="656" y="1336"/>
      <point x="559" y="1476"/>
      <point x="400" y="1476" type="curve" smooth="yes"/>
      <point x="242" y="1476"/>
      <point x="144" y="1336"/>
      <point x="144" y="1141" type="curve"/>
    </contour>
    <contour>
      <point x="190" y="1141" type="line"/>
      <point x="190" y="1295"/>
      <point x="259" y="1422"/>
      <point x="400" y="1422" type="curve" smooth="yes"/>
      <point x="542" y="1422"/>
      <point x="611" y="1295"/>
      <point x="611" y="1141" type="curve"/>
      <point x="611" y="1024" type="line"/>
      <point x="611" y="869"/>
      <point x="542" y="744"/>
      <point x="401" y="744" type="curve" smooth="yes"/>
      <point x="254" y="744"/>
      <point x="190" y="869"/>
      <point x="190" y="1024" type="curve"/>
    </contour>
  </outline>
</glyph>
<glyph name="questiondown" format="1">
  <advance width="806"/>
  <unicode hex="00BF"/>
  <outline>
    <contour>
      <point x="406" y="695" type="line"/>
      <point x="406" y="580"/>
      <point x="406" y="522"/>
      <point x="323" y="445" type="curve"/>
      <point x="197" y="310"/>
      <point x="111" y="188"/>
      <point x="111" y="-15" type="curve" smooth="yes"/>
      <point x="111" y="-232"/>
      <point x="220" y="-381"/>
      <point x="407" y="-381" type="curve" smooth="yes"/>
      <point x="572" y="-381"/>
      <point x="703" y="-263"/>
      <point x="705" y="-21" type="curve"/>
      <point x="660" y="-21" type="line"/>
      <point x="657" y="-201"/>
      <point x="569" y="-328"/>
      <point x="407" y="-328" type="curve" smooth="yes"/>
      <point x="245" y="-328"/>
      <point x="156" y="-211"/>
      <point x="156" y="-17" type="curve" smooth="yes"/>
      <point x="156" y="193"/>
      <point x="244" y="286"/>
      <point x="347" y="403" type="curve" smooth="yes"/>
      <point x="446" y="511"/>
      <point x="450" y="547"/>
      <point x="452" y="695" type="curve"/>
    </contour>
    <contour>
      <point x="472" y="1046" type="curve" smooth="yes"/>
      <point x="472" y="1077"/>
      <point x="452" y="1101"/>
      <point x="426" y="1101" type="curve" smooth="yes"/>
      <point x="400" y="1101"/>
      <point x="379" y="1077"/>
      <point x="379" y="1046" type="curve" smooth="yes"/>
      <point x="379" y="1015"/>
      <point x="400" y="990"/>
      <point x="426" y="990" type="curve" smooth="yes"/>
      <point x="452" y="990"/>
      <point x="472" y="1015"/>
    </contour>
  </outline>
</glyph>
<glyph name="Aacute" format="1">
  <advance width="1067"/>
  <unicode hex="00C1"/>
  <outline>
    <component base="A"/>
    <component base="acute" xOffset="375" yOffset="319"/>
    <contour>
      <point x="534" y="1612" type="move" name="parent_top"/>
    </contour>
    <contour>
      <point x="556" y="0" type="move" name="bottom"/>
    </contour>
    <contour>
      <point x="1047" y="1600" type="move" name="top_dd"/>
    </contour>
    <contour>
      <point x="1047" y="-407" type="move" name="bottom_dd"/>
    </contour>
    <contour>
      <point x="1047" y="1612" type="move" name="top0315"/>
    </contour>
    <contour>
      <point x="534" y="1862" type="move" name="top"/>
    </contour>
  </outline>
</glyph>
<glyph name="Atilde" format="1">
  <advance width="1067"/>
  <unicode hex="00C3"/>
  <outline>
    <component base="A"/>
    <component base="tilde" xOffset="177" yOffset="334"/>
    <contour>
      <point x="534" y="1612" type="move" name="parent_top"/>
    </contour>
    <contour>
      <point x="556" y="0" type="move" name="bottom"/>
    </contour>
    <contour>
      <point x="1047" y="1600" type="move" name="top_dd"/>
    </contour>
    <contour>
      <point x="1047" y="-407" type="move" name="bottom_dd"/>
    </contour>
    <contour>
      <point x="1047" y="1612" type="move" name="top0315"/>
    </contour>
    <contour>
      <point x="532" y="1844" type="move" name="top"/>
    </contour>
  </outline>
</glyph>
<glyph name="Adieresis" format="1">
  <advance width="1067"/>
  <unicode hex="00C4"/>
  <outline>
    <component base="A"/>
    <component base="dieresis" xOffset="136" yOffset="319"/>
    <contour>
      <point x="534" y="1612" type="move" name="parent_top"/>
    </contour>
    <contour>
      <point x="556" y="0" type="move" name="bottom"/>
    </contour>
    <contour>
      <point x="1047" y="1600" type="move" name="top_dd"/>
    </contour>
    <contour>
      <point x="1047" y="-407" type="move" name="bottom_dd"/>
    </contour>
    <contour>
      <point x="1047" y="1612" type="move" name="top0315"/>
    </contour>
    <contour>
      <point x="535" y="1859" type="move" name="top"/>
    </contour>
  </outline>
</glyph>
<glyph name="Aring" format="1">
  <advance width="1067"/>
  <unicode hex="00C5"/>
  <outline>
    <contour>
      <point x="534" y="1612" type="move" name="parent_top"/>
    </contour>
    <contour>
      <point x="556" y="0" type="move" name="bottom"/>
    </contour>
    <contour>
      <point x="1047" y="1600" type="move" name="top_dd"/>
    </contour>
    <contour>
      <point x="1047" y="-407" type="move" name="bottom_dd"/>
    </contour>
    <contour>
      <point x="1047" y="1612" type="move" name="top0315"/>
    </contour>
    <contour>
      <point x="534" y="1936" type="move" name="top"/>
    </contour>
    <component base="A"/>
    <component base="ring" xOffset="276" yOffset="319"/>
  </outline>
</glyph>
<glyph name="AE" format="1">
  <advance width="1565"/>
  <unicode hex="00C6"/>
  <outline>
    <contour>
      <point x="829" y="1408" type="line"/>
      <point x="843" y="1456" type="line"/>
      <point x="802" y="1456" type="line"/>
      <point x="62" y="0" type="line"/>
      <point x="117" y="0" type="line"/>
    </contour>
    <contour>
      <point x="863" y="478" type="line"/>
      <point x="317" y="478" type="line"/>
      <point x="317" y="425" type="line"/>
      <point x="863" y="425" type="line"/>
    </contour>
    <contour>
      <point x="1505" y="54" type="line"/>
      <point x="889" y="54" type="line"/>
      <point x="889" y="0" type="line"/>
      <point x="1505" y="0" type="line"/>
    </contour>
    <contour>
      <point x="868" y="1456" type="line"/>
      <point x="822" y="1456" type="line"/>
      <point x="873" y="0" type="line"/>
      <point x="919" y="0" type="line"/>
    </contour>
    <contour>
      <point x="1385" y="786" type="line"/>
      <point x="856" y="786" type="line"/>
      <point x="856" y="732" type="line"/>
      <point x="1385" y="732" type="line"/>
    </contour>
    <contour>
      <point x="1454" y="1456" type="line"/>
      <point x="838" y="1456" type="line"/>
      <point x="838" y="1402" type="line"/>
      <point x="1454" y="1402" type="line"/>
    </contour>
    <contour>
      <point x="836" y="1612" type="move" name="top"/>
    </contour>
    <contour>
      <point x="1545" y="1600" type="move" name="top_dd"/>
    </contour>
    <contour>
      <point x="1545" y="1612" type="move" name="top0315"/>
    </contour>
  </outline>
</glyph>
<glyph name="Ccedilla" format="1">
  <advance width="1155"/>
  <unicode hex="00C7"/>
  <outline>
    <component base="C"/>
    <component base="cedilla" xOffset="419" yOffset="-10"/>
    <contour>
      <point x="590" y="1633" type="move" name="parent_top"/>
    </contour>
    <contour>
      <point x="1135" y="1600" type="move" name="top_dd"/>
    </contour>
    <contour>
      <point x="1135" y="-407" type="move" name="bottom_dd"/>
    </contour>
    <contour>
      <point x="1135" y="1633" type="move" name="top0315"/>
    </contour>
    <contour>
      <point x="590" y="1633" type="move" name="top"/>
    </contour>
    <contour>
      <point x="590" y="-445" type="move" name="bottom"/>
    </contour>
  </outline>
</glyph>
<glyph name="Eacute" format="1">
  <advance width="1019"/>
  <unicode hex="00C9"/>
  <outline>
    <component base="E"/>
    <component base="acute" xOffset="381" yOffset="319"/>
    <contour>
      <point x="540" y="1612" type="move" name="parent_top"/>
    </contour>
    <contour>
      <point x="540" y="10" type="move" name="bottom"/>
    </contour>
    <contour>
      <point x="999" y="1600" type="move" name="top_dd"/>
    </contour>
    <contour>
      <point x="999" y="-407" type="move" name="bottom_dd"/>
    </contour>
    <contour>
      <point x="999" y="1612" type="move" name="top0315"/>
    </contour>
    <contour>
      <point x="540" y="1862" type="move" name="top"/>
    </contour>
  </outline>
</glyph>
<glyph name="Ecircumflex" format="1">
  <advance width="1019"/>
  <unicode hex="00CA"/>
  <outline>
    <component base="E"/>
    <component base="circumflex" xOffset="182" yOffset="319"/>
    <contour>
      <point x="540" y="1612" type="move" name="parent_top"/>
    </contour>
    <contour>
      <point x="540" y="10" type="move" name="bottom"/>
    </contour>
    <contour>
      <point x="999" y="1600" type="move" name="top_dd"/>
    </contour>
    <contour>
      <point x="999" y="-407" type="move" name="bottom_dd"/>
    </contour>
    <contour>
      <point x="999" y="1612" type="move" name="top0315"/>
    </contour>
    <contour>
      <point x="540" y="1925" type="move" name="top"/>
    </contour>
  </outline>
</glyph>
<glyph name="Igrave" format="1">
  <advance width="489"/>
  <unicode hex="00CC"/>
  <outline>
    <component base="I"/>
    <component base="grave" xOffset="-77" yOffset="319"/>
    <contour>
      <point x="245" y="1612" type="move" name="parent_top"/>
    </contour>
    <contour>
      <point x="245" y="0" type="move" name="bottom"/>
    </contour>
    <contour>
      <point x="469" y="1600" type="move" name="top_dd"/>
    </contour>
    <contour>
      <point x="469" y="-407" type="move" name="bottom_dd"/>
    </contour>
    <contour>
      <point x="469" y="1612" type="move" name="top0315"/>
    </contour>
    <contour>
      <point x="245" y="1862" type="move" name="top"/>
    </contour>
  </outline>
</glyph>
<glyph name="Iacute" format="1">
  <advance width="489"/>
  <unicode hex="00CD"/>
  <outline>
    <component base="I"/>
    <component base="acute" xOffset="86" yOffset="319"/>
    <contour>
      <point x="245" y="1612" type="move" name="parent_top"/>
    </contour>
    <contour>
      <point x="245" y="0" type="move" name="bottom"/>
    </contour>
    <contour>
      <point x="469" y="1600" type="move" name="top_dd"/>
    </contour>
    <contour>
      <point x="469" y="-407" type="move" name="bottom_dd"/>
    </contour>
    <contour>
      <point x="469" y="1612" type="move" name="top0315"/>
    </contour>
    <contour>
      <point x="245" y="1862" type="move" name="top"/>
    </contour>
  </outline>
</glyph>
<glyph name="Icircumflex" format="1">
  <advance width="489"/>
  <unicode hex="00CE"/>
  <outline>
    <contour>
      <point x="245" y="1612" type="move" name="parent_top"/>
    </contour>
    <contour>
      <point x="245" y="0" type="move" name="bottom"/>
    </contour>
    <contour>
      <point x="469" y="1600" type="move" name="top_dd"/>
    </contour>
    <contour>
      <point x="469" y="-407" type="move" name="bottom_dd"/>
    </contour>
    <contour>
      <point x="469" y="1612" type="move" name="top0315"/>
    </contour>
    <contour>
      <point x="245" y="1925" type="move" name="top"/>
    </contour>
    <component base="I"/>
    <component base="circumflex" xOffset="-113" yOffset="319"/>
  </outline>
</glyph>
<glyph name="Ntilde" format="1">
  <advance width="1257"/>
  <unicode hex="00D1"/>
  <outline>
    <contour>
      <point x="630" y="1612" type="move" name="parent_top"/>
    </contour>
    <contour>
      <point x="630" y="10" type="move" name="bottom"/>
    </contour>
    <contour>
      <point x="1237" y="1600" type="move" name="top_dd"/>
    </contour>
    <contour>
      <point x="1237" y="-407" type="move" name="bottom_dd"/>
    </contour>
    <contour>
      <point x="1237" y="1612" type="move" name="top0315"/>
    </contour>
    <contour>
      <point x="627" y="1844" type="move" name="top"/>
    </contour>
    <component base="N"/>
    <component base="tilde" xOffset="273" yOffset="334"/>
  </outline>
</glyph>
<glyph name="Ocircumflex" format="1">
  <advance width="1186"/>
  <unicode hex="00D4"/>
  <outline>
    <component base="O"/>
    <component base="circumflex" xOffset="230" yOffset="340"/>
    <contour>
      <point x="588" y="1633" type="move" name="parent_top"/>
    </contour>
    <contour>
      <point x="594" y="-2" type="move" name="bottom"/>
    </contour>
    <contour>
      <point x="1166" y="1600" type="move" name="top_dd"/>
    </contour>
    <contour>
      <point x="1166" y="-407" type="move" name="bottom_dd"/>
    </contour>
    <contour>
      <point x="1166" y="1633" type="move" name="top0315"/>
    </contour>
    <contour>
      <point x="588" y="1946" type="move" name="top"/>
    </contour>
  </outline>
</glyph>
<glyph name="Otilde" format="1">
  <advance width="1186"/>
  <unicode hex="00D5"/>
  <outline>
    <component base="O"/>
    <component base="tilde" xOffset="231" yOffset="355"/>
    <contour>
      <point x="588" y="1633" type="move" name="parent_top"/>
    </contour>
    <contour>
      <point x="594" y="-2" type="move" name="bottom"/>
    </contour>
    <contour>
      <point x="1166" y="1600" type="move" name="top_dd"/>
    </contour>
    <contour>
      <point x="1166" y="-407" type="move" name="bottom_dd"/>
    </contour>
    <contour>
      <point x="1166" y="1633" type="move" name="top0315"/>
    </contour>
    <contour>
      <point x="585" y="1865" type="move" name="top"/>
    </contour>
  </outline>
</glyph>
<glyph name="Odieresis" format="1">
  <advance width="1186"/>
  <unicode hex="00D6"/>
  <outline>
    <component base="O"/>
    <component base="dieresis" xOffset="190" yOffset="340"/>
    <contour>
      <point x="588" y="1633" type="move" name="parent_top"/>
    </contour>
    <contour>
      <point x="594" y="-2" type="move" name="bottom"/>
    </contour>
    <contour>
      <point x="1166" y="1600" type="move" name="top_dd"/>
    </contour>
    <contour>
      <point x="1166" y="-407" type="move" name="bottom_dd"/>
    </contour>
    <contour>
      <point x="1166" y="1633" type="move" name="top0315"/>
    </contour>
    <contour>
      <point x="589" y="1880" type="move" name="top"/>
    </contour>
  </outline>
</glyph>
<glyph name="multiply" format="1">
  <advance width="924"/>
  <unicode hex="00D7"/>
  <outline>
    <contour>
      <point x="135" y="-1" type="line"/>
      <point x="789" y="793" type="line"/>
      <point x="757" y="832" type="line"/>
      <point x="102" y="36" type="line"/>
    </contour>
    <contour>
      <point x="780" y="-1" type="line"/>
      <point x="813" y="36" type="line"/>
      <point x="158" y="832" type="line"/>
      <point x="125" y="793" type="line"/>
    </contour>
  </outline>
</glyph>
<glyph name="Oslash" format="1">
  <advance width="1186"/>
  <unicode hex="00D8"/>
  <outline>
    <contour>
      <point x="618" y="1674" type="move" name="top"/>
    </contour>
    <contour>
      <point x="1166" y="1600" type="move" name="top_dd"/>
    </contour>
    <contour>
      <point x="1166" y="1674" type="move" name="top0315"/>
    </contour>
    <contour>
      <point x="1062" y="1495" type="line"/>
      <point x="1006" y="1495" type="line"/>
      <point x="169" y="-75" type="line"/>
      <point x="224" y="-75" type="line"/>
    </contour>
    <contour>
      <point x="1054" y="837" type="line"/>
      <point x="1054" y="1217"/>
      <point x="873" y="1476"/>
      <point x="592" y="1476" type="curve" smooth="yes"/>
      <point x="311" y="1476"/>
      <point x="132" y="1217"/>
      <point x="132" y="837" type="curve"/>
      <point x="132" y="619" type="line"/>
      <point x="132" y="239"/>
      <point x="313" y="-20"/>
      <point x="594" y="-20" type="curve" smooth="yes"/>
      <point x="875" y="-20"/>
      <point x="1054" y="239"/>
      <point x="1054" y="619" type="curve"/>
    </contour>
    <contour>
      <point x="1009" y="619" type="line"/>
      <point x="1009" y="276"/>
      <point x="857" y="34"/>
      <point x="594" y="34" type="curve" smooth="yes"/>
      <point x="332" y="34"/>
      <point x="178" y="276"/>
      <point x="178" y="619" type="curve" smooth="yes"/>
      <point x="178" y="839" type="line" smooth="yes"/>
      <point x="178" y="1180"/>
      <point x="330" y="1422"/>
      <point x="592" y="1422" type="curve" smooth="yes"/>
      <point x="856" y="1422"/>
      <point x="1009" y="1180"/>
      <point x="1009" y="839" type="curve"/>
    </contour>
  </outline>
</glyph>
<glyph name="Ugrave" format="1">
  <advance width="1187"/>
  <unicode hex="00D9"/>
  <outline>
    <component base="U"/>
    <component base="grave" xOffset="283" yOffset="319"/>
    <contour>
      <point x="605" y="1612" type="move" name="parent_top"/>
    </contour>
    <contour>
      <point x="594" y="0" type="move" name="bottom"/>
    </contour>
    <contour>
      <point x="1167" y="1600" type="move" name="top_dd"/>
    </contour>
    <contour>
      <point x="1167" y="-407" type="move" name="bottom_dd"/>
    </contour>
    <contour>
      <point x="1167" y="1612" type="move" name="top0315"/>
    </contour>
    <contour>
      <point x="605" y="1862" type="move" name="top"/>
    </contour>
  </outline>
</glyph>
<glyph name="Uacute" format="1">
  <advance width="1187"/>
  <unicode hex="00DA"/>
  <outline>
    <component base="U"/>
    <component base="acute" xOffset="446" yOffset="319"/>
    <contour>
      <point x="605" y="1612" type="move" name="parent_top"/>
    </contour>
    <contour>
      <point x="594" y="0" type="move" name="bottom"/>
    </contour>
    <contour>
      <point x="1167" y="1600" type="move" name="top_dd"/>
    </contour>
    <contour>
      <point x="1167" y="-407" type="move" name="bottom_dd"/>
    </contour>
    <contour>
      <point x="1167" y="1612" type="move" name="top0315"/>
    </contour>
    <contour>
      <point x="605" y="1862" type="move" name="top"/>
    </contour>
  </outline>
</glyph>
<glyph name="Udieresis" format="1">
  <advance width="1187"/>
  <unicode hex="00DC"/>
  <outline>
    <component base="U"/>
    <component base="dieresis" xOffset="207" yOffset="319"/>
    <contour>
      <point x="605" y="1612" type="move" name="parent_top"/>
    </contour>
    <contour>
      <point x="594" y="0" type="move" name="bottom"/>
    </contour>
    <contour>
      <point x="1167" y="1600" type="move" name="top_dd"/>
    </contour>
    <contour>
      <point x="1167" y="-407" type="move" name="bottom_dd"/>
    </contour>
    <contour>
      <point x="1167" y="1612" type="move" name="top0315"/>
    </contour>
    <contour>
      <point x="606" y="1859" type="move" name="top"/>
    </contour>
  </outline>
</glyph>
<glyph name="Yacute" format="1">
  <advance width="1067"/>
  <unicode hex="00DD"/>
  <outline>
    <component base="Y"/>
    <component base="acute" xOffset="371" yOffset="308"/>
    <contour>
      <point x="531" y="1601" type="move" name="parent_top"/>
    </contour>
    <contour>
      <point x="534" y="10" type="move" name="bottom"/>
    </contour>
    <contour>
      <point x="1047" y="1600" type="move" name="top_dd"/>
    </contour>
    <contour>
      <point x="1047" y="-407" type="move" name="bottom_dd"/>
    </contour>
    <contour>
      <point x="1047" y="1601" type="move" name="top0315"/>
    </contour>
    <contour>
      <point x="531" y="1851" type="move" name="top"/>
    </contour>
  </outline>
</glyph>
<glyph name="Thorn" format="1">
  <advance width="1064"/>
  <unicode hex="00DE"/>
  <outline>
    <contour>
      <point x="188" y="1456" type="line"/>
      <point x="188" y="0" type="line"/>
      <point x="233" y="0" type="line"/>
      <point x="233" y="1456" type="line"/>
    </contour>
    <contour>
      <point x="203" y="1143" type="line"/>
      <point x="215" y="1089" type="line"/>
      <point x="545" y="1089" type="line" smooth="yes"/>
      <point x="781" y="1089"/>
      <point x="878" y="909"/>
      <point x="878" y="736" type="curve" smooth="yes"/>
      <point x="878" y="571"/>
      <point x="781" y="388"/>
      <point x="545" y="388" type="curve" smooth="yes"/>
      <point x="199" y="388" type="line"/>
      <point x="199" y="334" type="line"/>
      <point x="545" y="334" type="line" smooth="yes"/>
      <point x="789" y="334"/>
      <point x="923" y="505"/>
      <point x="923" y="738" type="curve" smooth="yes"/>
      <point x="923" y="970"/>
      <point x="789" y="1143"/>
      <point x="545" y="1143" type="curve" smooth="yes"/>
    </contour>
  </outline>
</glyph>
<glyph name="germandbls" format="1">
  <advance width="1034"/>
  <unicode hex="00DF"/>
  <outline>
    <contour>
      <point x="203" y="1143" type="line" name="hr00"/>
      <point x="203" y="1389"/>
      <point x="298" y="1481"/>
      <point x="443" y="1481" type="curve" smooth="yes"/>
      <point x="545" y="1481"/>
      <point x="645" y="1384"/>
      <point x="645" y="1259" type="curve" smooth="yes"/>
      <point x="645" y="1080"/>
      <point x="550" y="1036"/>
      <point x="550" y="831" type="curve" smooth="yes"/>
      <point x="550" y="585"/>
      <point x="867" y="536"/>
      <point x="867" y="306" type="curve" smooth="yes"/>
      <point x="867" y="159"/>
      <point x="755" y="32"/>
      <point x="597" y="32" type="curve" smooth="yes"/>
      <point x="508" y="32"/>
      <point x="407" y="75"/>
      <point x="363" y="117" type="curve"/>
      <point x="342" y="68" type="line"/>
      <point x="387" y="20"/>
      <point x="506" y="-21"/>
      <point x="604" y="-21" type="curve" smooth="yes"/>
      <point x="742" y="-21"/>
      <point x="912" y="95"/>
      <point x="912" y="297" type="curve" smooth="yes"/>
      <point x="912" y="569"/>
      <point x="595" y="621"/>
      <point x="595" y="829" type="curve" smooth="yes"/>
      <point x="595" y="1037"/>
      <point x="695" y="1068"/>
      <point x="695" y="1257" type="curve" smooth="yes"/>
      <point x="695" y="1425"/>
      <point x="567" y="1535"/>
      <point x="434" y="1535" type="curve" smooth="yes"/>
      <point x="256" y="1535"/>
      <point x="158" y="1396"/>
      <point x="158" y="1143" type="curve" smooth="yes"/>
      <point x="158" y="0" type="line"/>
      <point x="203" y="0" type="line"/>
    </contour>
  </outline>
</glyph>
<glyph name="agrave" format="1">
  <advance width="948"/>
  <unicode hex="00E0"/>
  <outline>
    <component base="a"/>
    <component base="grave" xOffset="182" yOffset="-1"/>
    <contour>
      <point x="505" y="1292" type="move" name="parent_top"/>
    </contour>
    <contour>
      <point x="446" y="0" type="move" name="bottom"/>
    </contour>
    <contour>
      <point x="928" y="1600" type="move" name="top_dd"/>
    </contour>
    <contour>
      <point x="928" y="-407" type="move" name="bottom_dd"/>
    </contour>
    <contour>
      <point x="928" y="1292" type="move" name="top0315"/>
    </contour>
    <contour>
      <point x="505" y="1542" type="move" name="top"/>
    </contour>
  </outline>
</glyph>
<glyph name="acircumflex" format="1">
  <advance width="948"/>
  <unicode hex="00E2"/>
  <outline>
    <contour>
      <point x="505" y="1292" type="move" name="parent_top"/>
    </contour>
    <contour>
      <point x="446" y="0" type="move" name="bottom"/>
    </contour>
    <contour>
      <point x="928" y="1600" type="move" name="top_dd"/>
    </contour>
    <contour>
      <point x="928" y="-407" type="move" name="bottom_dd"/>
    </contour>
    <contour>
      <point x="928" y="1292" type="move" name="top0315"/>
    </contour>
    <contour>
      <point x="505" y="1605" type="move" name="top"/>
    </contour>
    <component base="a"/>
    <component base="circumflex" xOffset="147" yOffset="-1"/>
  </outline>
</glyph>
<glyph name="atilde" format="1">
  <advance width="948"/>
  <unicode hex="00E3"/>
  <outline>
    <component base="a"/>
    <component base="tilde" xOffset="148" yOffset="14"/>
    <contour>
      <point x="505" y="1292" type="move" name="parent_top"/>
    </contour>
    <contour>
      <point x="446" y="0" type="move" name="bottom"/>
    </contour>
    <contour>
      <point x="928" y="1600" type="move" name="top_dd"/>
    </contour>
    <contour>
      <point x="928" y="-407" type="move" name="bottom_dd"/>
    </contour>
    <contour>
      <point x="928" y="1292" type="move" name="top0315"/>
    </contour>
    <contour>
      <point x="502" y="1524" type="move" name="top"/>
    </contour>
  </outline>
</glyph>
<glyph name="adieresis" format="1">
  <advance width="948"/>
  <unicode hex="00E4"/>
  <outline>
    <contour>
      <point x="505" y="1292" type="move" name="parent_top"/>
    </contour>
    <contour>
      <point x="446" y="0" type="move" name="bottom"/>
    </contour>
    <contour>
      <point x="928" y="1600" type="move" name="top_dd"/>
    </contour>
    <contour>
      <point x="928" y="-407" type="move" name="bottom_dd"/>
    </contour>
    <contour>
      <point x="928" y="1292" type="move" name="top0315"/>
    </contour>
    <contour>
      <point x="506" y="1539" type="move" name="top"/>
    </contour>
    <component base="a"/>
    <component base="dieresis" xOffset="107" yOffset="-1"/>
  </outline>
</glyph>
<glyph name="aring" format="1">
  <advance width="948"/>
  <unicode hex="00E5"/>
  <outline>
    <component base="a"/>
    <component base="ring" xOffset="247" yOffset="-1"/>
    <contour>
      <point x="505" y="1292" type="move" name="parent_top"/>
    </contour>
    <contour>
      <point x="446" y="0" type="move" name="bottom"/>
    </contour>
    <contour>
      <point x="928" y="1600" type="move" name="top_dd"/>
    </contour>
    <contour>
      <point x="928" y="-407" type="move" name="bottom_dd"/>
    </contour>
    <contour>
      <point x="928" y="1292" type="move" name="top0315"/>
    </contour>
    <contour>
      <point x="505" y="1616" type="move" name="top"/>
    </contour>
  </outline>
</glyph>
<glyph name="ae" format="1">
  <advance width="1497"/>
  <unicode hex="00E6"/>
  <outline>
    <contour>
      <point x="742" y="1291" type="move" name="top"/>
    </contour>
    <contour>
      <point x="1477" y="1600" type="move" name="top_dd"/>
    </contour>
    <contour>
      <point x="1477" y="1291" type="move" name="top0315"/>
    </contour>
    <contour>
      <point x="703" y="183" type="line"/>
      <point x="749" y="218" type="line"/>
      <point x="749" y="718" type="line"/>
      <point x="749" y="973"/>
      <point x="635" y="1102"/>
      <point x="458" y="1102" type="curve" smooth="yes"/>
      <point x="252" y="1102"/>
      <point x="122" y="965"/>
      <point x="122" y="778" type="curve"/>
      <point x="166" y="771" type="line"/>
      <point x="166" y="929"/>
      <point x="272" y="1048"/>
      <point x="458" y="1048" type="curve" smooth="yes"/>
      <point x="624" y="1048"/>
      <point x="703" y="928"/>
      <point x="703" y="720" type="curve"/>
    </contour>
    <contour>
      <point x="724" y="630" type="line"/>
      <point x="459" y="630" type="line"/>
      <point x="222" y="630"/>
      <point x="98" y="489"/>
      <point x="98" y="284" type="curve" smooth="yes"/>
      <point x="98" y="100"/>
      <point x="205" y="-20"/>
      <point x="396" y="-20" type="curve" smooth="yes"/>
      <point x="592" y="-20"/>
      <point x="709" y="111"/>
      <point x="750" y="218" type="curve"/>
      <point x="704" y="229" type="line"/>
      <point x="687" y="158"/>
      <point x="558" y="32"/>
      <point x="395" y="32" type="curve" smooth="yes"/>
      <point x="233" y="32"/>
      <point x="144" y="126"/>
      <point x="144" y="280" type="curve" smooth="yes"/>
      <point x="144" y="438"/>
      <point x="243" y="575"/>
      <point x="461" y="575" type="curve"/>
      <point x="724" y="575" type="line"/>
    </contour>
    <contour>
      <point x="1085" y="-20" type="curve"/>
      <point x="1246" y="-20"/>
      <point x="1330" y="50"/>
      <point x="1389" y="122" type="curve"/>
      <point x="1364" y="164" type="line"/>
      <point x="1299" y="86"/>
      <point x="1204" y="34"/>
      <point x="1085" y="34" type="curve" smooth="yes"/>
      <point x="851" y="34"/>
      <point x="751" y="241"/>
      <point x="751" y="500" type="curve" smooth="yes"/>
      <point x="751" y="564" type="line" smooth="yes"/>
      <point x="751" y="832"/>
      <point x="873" y="1048"/>
      <point x="1073" y="1048" type="curve"/>
      <point x="1267" y="1048"/>
      <point x="1367" y="880"/>
      <point x="1367" y="664" type="curve"/>
      <point x="1367" y="632" type="line"/>
      <point x="734" y="632" type="line"/>
      <point x="734" y="577" type="line"/>
      <point x="1412" y="577" type="line"/>
      <point x="1412" y="660" type="line" smooth="yes"/>
      <point x="1412" y="934"/>
      <point x="1284" y="1102"/>
      <point x="1073" y="1102" type="curve" smooth="yes"/>
      <point x="863" y="1102"/>
      <point x="705" y="880"/>
      <point x="705" y="564" type="curve" smooth="yes"/>
      <point x="705" y="500" type="line" smooth="yes"/>
      <point x="705" y="198"/>
      <point x="840" y="-20"/>
    </contour>
  </outline>
</glyph>
<glyph name="egrave" format="1">
  <advance width="907"/>
  <unicode hex="00E8"/>
  <outline>
    <component base="e"/>
    <component base="grave" xOffset="174" yOffset="-2"/>
    <contour>
      <point x="496" y="1291" type="move" name="parent_top"/>
    </contour>
    <contour>
      <point x="495" y="4" type="move" name="bottom"/>
    </contour>
    <contour>
      <point x="887" y="1600" type="move" name="top_dd"/>
    </contour>
    <contour>
      <point x="887" y="-407" type="move" name="bottom_dd"/>
    </contour>
    <contour>
      <point x="887" y="1291" type="move" name="top0315"/>
    </contour>
    <contour>
      <point x="496" y="1541" type="move" name="top"/>
    </contour>
  </outline>
</glyph>
<glyph name="eacute" format="1">
  <advance width="907"/>
  <unicode hex="00E9"/>
  <outline>
    <contour>
      <point x="496" y="1291" type="move" name="parent_top"/>
    </contour>
    <contour>
      <point x="495" y="4" type="move" name="bottom"/>
    </contour>
    <contour>
      <point x="887" y="1600" type="move" name="top_dd"/>
    </contour>
    <contour>
      <point x="887" y="-407" type="move" name="bottom_dd"/>
    </contour>
    <contour>
      <point x="887" y="1291" type="move" name="top0315"/>
    </contour>
    <contour>
      <point x="496" y="1541" type="move" name="top"/>
    </contour>
    <component base="e"/>
    <component base="acute" xOffset="337" yOffset="-2"/>
  </outline>
</glyph>
<glyph name="igrave" format="1">
  <advance width="381"/>
  <unicode hex="00EC"/>
  <outline>
    <component base="dotlessi"/>
    <component base="grave" xOffset="-127" yOffset="-24"/>
    <contour>
      <point x="196" y="1269" type="move" name="parent_top"/>
    </contour>
    <contour>
      <point x="196" y="10" type="move" name="bottom"/>
    </contour>
    <contour>
      <point x="361" y="1269" type="move" name="top0315"/>
    </contour>
    <contour>
      <point x="196" y="1519" type="move" name="top"/>
    </contour>
  </outline>
</glyph>
<glyph name="iacute" format="1">
  <advance width="381"/>
  <unicode hex="00ED"/>
  <outline>
    <component base="dotlessi"/>
    <component base="acute" xOffset="36" yOffset="-24"/>
    <contour>
      <point x="196" y="1269" type="move" name="parent_top"/>
    </contour>
    <contour>
      <point x="196" y="10" type="move" name="bottom"/>
    </contour>
    <contour>
      <point x="361" y="1269" type="move" name="top0315"/>
    </contour>
    <contour>
      <point x="196" y="1519" type="move" name="top"/>
    </contour>
  </outline>
</glyph>
<glyph name="icircumflex" format="1">
  <advance width="381"/>
  <unicode hex="00EE"/>
  <outline>
    <contour>
      <point x="196" y="1269" type="move" name="parent_top"/>
    </contour>
    <contour>
      <point x="196" y="10" type="move" name="bottom"/>
    </contour>
    <contour>
      <point x="361" y="1269" type="move" name="top0315"/>
    </contour>
    <contour>
      <point x="196" y="1582" type="move" name="top"/>
    </contour>
    <component base="dotlessi"/>
    <component base="circumflex" xOffset="-162" yOffset="-24"/>
  </outline>
</glyph>
<glyph name="idieresis" format="1">
  <advance width="381"/>
  <unicode hex="00EF"/>
  <outline>
    <component base="dotlessi"/>
    <component base="dieresis" xOffset="-202" yOffset="-24"/>
    <contour>
      <point x="196" y="1269" type="move" name="parent_top"/>
    </contour>
    <contour>
      <point x="196" y="10" type="move" name="bottom"/>
    </contour>
    <contour>
      <point x="361" y="1269" type="move" name="top0315"/>
    </contour>
    <contour>
      <point x="196" y="1516" type="move" name="top"/>
    </contour>
  </outline>
</glyph>
<glyph name="eth" format="1">
  <advance width="1034"/>
  <unicode hex="00F0"/>
  <outline>
    <contour>
      <point x="304" y="1527" type="line"/>
      <point x="612" y="1390"/>
      <point x="849" y="1167"/>
      <point x="849" y="617" type="curve" smooth="yes"/>
      <point x="849" y="535" type="line" smooth="yes"/>
      <point x="849" y="246"/>
      <point x="734" y="38"/>
      <point x="552" y="38" type="curve" smooth="yes"/>
      <point x="332" y="38"/>
      <point x="212" y="251"/>
      <point x="212" y="465" type="curve"/>
      <point x="212" y="705"/>
      <point x="305" y="895"/>
      <point x="525" y="895" type="curve"/>
      <point x="761" y="895"/>
      <point x="867" y="699"/>
      <point x="867" y="574" type="curve"/>
      <point x="893" y="583" type="line"/>
      <point x="893" y="819"/>
      <point x="712" y="953"/>
      <point x="525" y="953" type="curve"/>
      <point x="300" y="953"/>
      <point x="165" y="775"/>
      <point x="165" y="465" type="curve"/>
      <point x="165" y="194"/>
      <point x="323" y="-20"/>
      <point x="548" y="-20" type="curve" smooth="yes"/>
      <point x="750" y="-20"/>
      <point x="894" y="206"/>
      <point x="894" y="535" type="curve"/>
      <point x="894" y="615" type="line"/>
      <point x="894" y="1128"/>
      <point x="705" y="1409"/>
      <point x="321" y="1577" type="curve"/>
    </contour>
    <contour>
      <point x="852" y="1413" type="line"/>
      <point x="828" y="1461" type="line"/>
      <point x="431" y="1197" type="line"/>
      <point x="454" y="1149" type="line"/>
    </contour>
  </outline>
</glyph>
<glyph name="ntilde" format="1">
  <advance width="982"/>
  <unicode hex="00F1"/>
  <outline>
    <component base="n"/>
    <component base="tilde" xOffset="149" yOffset="12"/>
    <contour>
      <point x="506" y="1290" type="move" name="parent_top"/>
    </contour>
    <contour>
      <point x="506" y="10" type="move" name="bottom"/>
    </contour>
    <contour>
      <point x="962" y="1600" type="move" name="top_dd"/>
    </contour>
    <contour>
      <point x="962" y="-407" type="move" name="bottom_dd"/>
    </contour>
    <contour>
      <point x="962" y="1290" type="move" name="top0315"/>
    </contour>
    <contour>
      <point x="503" y="1522" type="move" name="top"/>
    </contour>
  </outline>
</glyph>
<glyph name="ograve" format="1">
  <advance width="987"/>
  <unicode hex="00F2"/>
  <outline>
    <contour>
      <point x="496" y="1290" type="move" name="parent_top"/>
    </contour>
    <contour>
      <point x="496" y="-10" type="move" name="bottom"/>
    </contour>
    <contour>
      <point x="967" y="1600" type="move" name="top_dd"/>
    </contour>
    <contour>
      <point x="967" y="-407" type="move" name="bottom_dd"/>
    </contour>
    <contour>
      <point x="967" y="1290" type="move" name="top0315"/>
    </contour>
    <contour>
      <point x="496" y="1540" type="move" name="top"/>
    </contour>
    <component base="o"/>
    <component base="grave" xOffset="174" yOffset="-3"/>
  </outline>
</glyph>
<glyph name="oacute" format="1">
  <advance width="987"/>
  <unicode hex="00F3"/>
  <outline>
    <contour>
      <point x="496" y="1290" type="move" name="parent_top"/>
    </contour>
    <contour>
      <point x="496" y="-10" type="move" name="bottom"/>
    </contour>
    <contour>
      <point x="967" y="1600" type="move" name="top_dd"/>
    </contour>
    <contour>
      <point x="967" y="-407" type="move" name="bottom_dd"/>
    </contour>
    <contour>
      <point x="967" y="1290" type="move" name="top0315"/>
    </contour>
    <contour>
      <point x="496" y="1540" type="move" name="top"/>
    </contour>
    <component base="o"/>
    <component base="acute" xOffset="337" yOffset="-3"/>
  </outline>
</glyph>
<glyph name="otilde" format="1">
  <advance width="987"/>
  <unicode hex="00F5"/>
  <outline>
    <contour>
      <point x="496" y="1290" type="move" name="parent_top"/>
    </contour>
    <contour>
      <point x="496" y="-10" type="move" name="bottom"/>
    </contour>
    <contour>
      <point x="967" y="1600" type="move" name="top_dd"/>
    </contour>
    <contour>
      <point x="967" y="-407" type="move" name="bottom_dd"/>
    </contour>
    <contour>
      <point x="967" y="1290" type="move" name="top0315"/>
    </contour>
    <contour>
      <point x="494" y="1522" type="move" name="top"/>
    </contour>
    <component base="o"/>
    <component base="tilde" xOffset="139" yOffset="12"/>
  </outline>
</glyph>
<glyph name="odieresis" format="1">
  <advance width="987"/>
  <unicode hex="00F6"/>
  <outline>
    <component base="o"/>
    <component base="dieresis" xOffset="98" yOffset="-3"/>
    <contour>
      <point x="496" y="1290" type="move" name="parent_top"/>
    </contour>
    <contour>
      <point x="496" y="-10" type="move" name="bottom"/>
    </contour>
    <contour>
      <point x="967" y="1600" type="move" name="top_dd"/>
    </contour>
    <contour>
      <point x="967" y="-407" type="move" name="bottom_dd"/>
    </contour>
    <contour>
      <point x="967" y="1290" type="move" name="top0315"/>
    </contour>
    <contour>
      <point x="497" y="1537" type="move" name="top"/>
    </contour>
  </outline>
</glyph>
<glyph name="divide" format="1">
  <advance width="1014"/>
  <unicode hex="00F7"/>
  <outline>
    <contour>
      <point x="920" y="738" type="line"/>
      <point x="81" y="738" type="line"/>
      <point x="81" y="686" type="line"/>
      <point x="920" y="686" type="line"/>
    </contour>
    <contour>
      <point x="464" y="1079" type="curve" smooth="yes"/>
      <point x="464" y="1048"/>
      <point x="485" y="1024"/>
      <point x="511" y="1024" type="curve" smooth="yes"/>
      <point x="537" y="1024"/>
      <point x="558" y="1048"/>
      <point x="558" y="1079" type="curve" smooth="yes"/>
      <point x="558" y="1110"/>
      <point x="537" y="1135"/>
      <point x="511" y="1135" type="curve" smooth="yes"/>
      <point x="485" y="1135"/>
      <point x="464" y="1110"/>
    </contour>
    <contour>
      <point x="464" y="301" type="curve" smooth="yes"/>
      <point x="464" y="270"/>
      <point x="485" y="246"/>
      <point x="511" y="246" type="curve" smooth="yes"/>
      <point x="537" y="246"/>
      <point x="558" y="270"/>
      <point x="558" y="301" type="curve" smooth="yes"/>
      <point x="558" y="332"/>
      <point x="537" y="357"/>
      <point x="511" y="357" type="curve" smooth="yes"/>
      <point x="485" y="357"/>
      <point x="464" y="332"/>
    </contour>
  </outline>
</glyph>
<glyph name="oslash" format="1">
  <advance width="982"/>
  <unicode hex="00F8"/>
  <outline>
    <contour>
      <point x="448" y="1289" type="move" name="top"/>
    </contour>
    <contour>
      <point x="962" y="1600" type="move" name="top_dd"/>
    </contour>
    <contour>
      <point x="962" y="1289" type="move" name="top0315"/>
    </contour>
    <contour>
      <point x="802" y="1219" type="line"/>
      <point x="749" y="1219" type="line"/>
      <point x="192" y="-145" type="line"/>
      <point x="245" y="-145" type="line"/>
    </contour>
    <contour>
      <point x="93" y="520" type="line"/>
      <point x="93" y="203"/>
      <point x="255" y="-20"/>
      <point x="492" y="-20" type="curve" smooth="yes"/>
      <point x="728" y="-20"/>
      <point x="889" y="203"/>
      <point x="889" y="520" type="curve"/>
      <point x="889" y="562" type="line"/>
      <point x="889" y="879"/>
      <point x="728" y="1102"/>
      <point x="490" y="1102" type="curve" smooth="yes"/>
      <point x="255" y="1102"/>
      <point x="93" y="879"/>
      <point x="93" y="562" type="curve"/>
    </contour>
    <contour>
      <point x="138" y="562" type="line"/>
      <point x="138" y="815"/>
      <point x="269" y="1048"/>
      <point x="490" y="1048" type="curve" smooth="yes"/>
      <point x="713" y="1048"/>
      <point x="843" y="815"/>
      <point x="843" y="562" type="curve"/>
      <point x="843" y="520" type="line"/>
      <point x="843" y="261"/>
      <point x="713" y="34"/>
      <point x="492" y="34" type="curve" smooth="yes"/>
      <point x="269" y="34"/>
      <point x="138" y="261"/>
      <point x="138" y="520" type="curve"/>
    </contour>
  </outline>
</glyph>
<glyph name="udieresis" format="1">
  <advance width="982"/>
  <unicode hex="00FC"/>
  <outline>
    <component base="u"/>
    <component base="dieresis" xOffset="109"/>
    <contour>
      <point x="507" y="1293" type="move" name="parent_top"/>
    </contour>
    <contour>
      <point x="962" y="1600" type="move" name="top_dd"/>
    </contour>
    <contour>
      <point x="962" y="-407" type="move" name="bottom_dd"/>
    </contour>
    <contour>
      <point x="962" y="1293" type="move" name="top0315"/>
    </contour>
    <contour>
      <point x="490" y="0" type="move" name="bottom"/>
    </contour>
    <contour>
      <point x="508" y="1540" type="move" name="top"/>
    </contour>
  </outline>
</glyph>
<glyph name="yacute" format="1">
  <advance width="862"/>
  <unicode hex="00FD"/>
  <outline>
    <contour>
      <point x="456" y="1293" type="move" name="parent_top"/>
    </contour>
    <contour>
      <point x="622" y="-158" type="move" name="bottom"/>
    </contour>
    <contour>
      <point x="842" y="1600" type="move" name="top_dd"/>
    </contour>
    <contour>
      <point x="842" y="-407" type="move" name="bottom_dd"/>
    </contour>
    <contour>
      <point x="842" y="1293" type="move" name="top0315"/>
    </contour>
    <contour>
      <point x="456" y="1543" type="move" name="top"/>
    </contour>
    <component base="y"/>
    <component base="acute" xOffset="297"/>
  </outline>
</glyph>
<glyph name="thorn" format="1">
  <advance width="982"/>
  <unicode hex="00FE"/>
  <outline>
    <contour>
      <point x="208" y="1536" type="line"/>
      <point x="163" y="1536" type="line"/>
      <point x="163" y="-416" type="line"/>
      <point x="208" y="-416" type="line"/>
    </contour>
    <contour>
      <point x="859" y="552" type="line"/>
      <point x="859" y="893"/>
      <point x="732" y="1102"/>
      <point x="516" y="1102" type="curve" smooth="yes"/>
      <point x="319" y="1102"/>
      <point x="202" y="948"/>
      <point x="163" y="745" type="curve"/>
      <point x="163" y="305" type="line"/>
      <point x="191" y="133"/>
      <point x="313" y="-20"/>
      <point x="518" y="-20" type="curve" smooth="yes"/>
      <point x="733" y="-20"/>
      <point x="859" y="201"/>
      <point x="859" y="531" type="curve" smooth="yes"/>
    </contour>
    <contour>
      <point x="813" y="531" type="line"/>
      <point x="813" y="243"/>
      <point x="717" y="34"/>
      <point x="519" y="34" type="curve" smooth="yes"/>
      <point x="328" y="34"/>
      <point x="223" y="166"/>
      <point x="193" y="330" type="curve"/>
      <point x="193" y="709" type="line"/>
      <point x="217" y="843"/>
      <point x="289" y="1048"/>
      <point x="517" y="1048" type="curve" smooth="yes"/>
      <point x="717" y="1048"/>
      <point x="813" y="839"/>
      <point x="813" y="552" type="curve" smooth="yes"/>
    </contour>
  </outline>
</glyph>
<glyph name="ydieresis" format="1">
  <advance width="862"/>
  <unicode hex="00FF"/>
  <outline>
    <contour>
      <point x="456" y="1293" type="move" name="parent_top"/>
    </contour>
    <contour>
      <point x="622" y="-158" type="move" name="bottom"/>
    </contour>
    <contour>
      <point x="842" y="1600" type="move" name="top_dd"/>
    </contour>
    <contour>
      <point x="842" y="-407" type="move" name="bottom_dd"/>
    </contour>
    <contour>
      <point x="842" y="1293" type="move" name="top0315"/>
    </contour>
    <contour>
      <point x="457" y="1540" type="move" name="top"/>
    </contour>
    <component base="y"/>
    <component base="dieresis" xOffset="58"/>
  </outline>
</glyph>
<glyph name="amacron" format="1">
  <advance width="948"/>
  <unicode hex="0101"/>
  <outline>
    <contour>
      <point x="505" y="1292" type="move" name="parent_top"/>
    </contour>
    <contour>
      <point x="446" y="0" type="move" name="bottom"/>
    </contour>
    <contour>
      <point x="928" y="1600" type="move" name="top_dd"/>
    </contour>
    <contour>
      <point x="928" y="-407" type="move" name="bottom_dd"/>
    </contour>
    <contour>
      <point x="928" y="1292" type="move" name="top0315"/>
    </contour>
    <contour>
      <point x="505" y="1550" type="move" name="top"/>
    </contour>
    <component base="a"/>
    <component base="macron" xOffset="138" yOffset="10"/>
  </outline>
</glyph>
<glyph name="Aogonek" format="1">
  <advance width="1067"/>
  <unicode hex="0104"/>
  <outline>
    <component base="A"/>
    <component base="ogonek" xOffset="736"/>
    <contour>
      <point x="534" y="1612" type="move" name="parent_top"/>
    </contour>
    <contour>
      <point x="556" y="0" type="move" name="bottom"/>
    </contour>
    <contour>
      <point x="1047" y="1600" type="move" name="top_dd"/>
    </contour>
    <contour>
      <point x="1047" y="-407" type="move" name="bottom_dd"/>
    </contour>
    <contour>
      <point x="1047" y="1612" type="move" name="top0315"/>
    </contour>
    <contour>
      <point x="534" y="1612" type="move" name="top"/>
    </contour>
  </outline>
</glyph>
<glyph name="cacute" format="1">
  <advance width="913"/>
  <unicode hex="0107"/>
  <outline>
    <contour>
      <point x="479" y="1290" type="move" name="parent_top"/>
    </contour>
    <contour>
      <point x="479" y="-10" type="move" name="bottom"/>
    </contour>
    <contour>
      <point x="893" y="1600" type="move" name="top_dd"/>
    </contour>
    <contour>
      <point x="893" y="-407" type="move" name="bottom_dd"/>
    </contour>
    <contour>
      <point x="893" y="1290" type="move" name="top0315"/>
    </contour>
    <contour>
      <point x="479" y="1540" type="move" name="top"/>
    </contour>
    <component base="c"/>
    <component base="acute" xOffset="320" yOffset="-3"/>
  </outline>
</glyph>
<glyph name="Ccircumflex" format="1">
  <advance width="1155"/>
  <unicode hex="0108"/>
  <outline>
    <component base="C"/>
    <component base="circumflex" xOffset="232" yOffset="340"/>
    <contour>
      <point x="590" y="1633" type="move" name="parent_top"/>
    </contour>
    <contour>
      <point x="590" y="-10" type="move" name="bottom"/>
    </contour>
    <contour>
      <point x="1135" y="1600" type="move" name="top_dd"/>
    </contour>
    <contour>
      <point x="1135" y="-407" type="move" name="bottom_dd"/>
    </contour>
    <contour>
      <point x="1135" y="1633" type="move" name="top0315"/>
    </contour>
    <contour>
      <point x="590" y="1946" type="move" name="top"/>
    </contour>
  </outline>
</glyph>
<glyph name="ccircumflex" format="1">
  <advance width="913"/>
  <unicode hex="0109"/>
  <outline>
    <component base="c"/>
    <component base="circumflex" xOffset="122" yOffset="-3"/>
    <contour>
      <point x="479" y="1290" type="move" name="parent_top"/>
    </contour>
    <contour>
      <point x="479" y="-10" type="move" name="bottom"/>
    </contour>
    <contour>
      <point x="893" y="1600" type="move" name="top_dd"/>
    </contour>
    <contour>
      <point x="893" y="-407" type="move" name="bottom_dd"/>
    </contour>
    <contour>
      <point x="893" y="1290" type="move" name="top0315"/>
    </contour>
    <contour>
      <point x="479" y="1603" type="move" name="top"/>
    </contour>
  </outline>
</glyph>
<glyph name="uni010A" format="1">
  <advance width="1155"/>
  <unicode hex="010A"/>
  <outline>
    <component base="C"/>
    <component base="dotaccent" xOffset="392" yOffset="340"/>
    <contour>
      <point x="590" y="1633" type="move" name="parent_top"/>
    </contour>
    <contour>
      <point x="590" y="-10" type="move" name="bottom"/>
    </contour>
    <contour>
      <point x="1135" y="1600" type="move" name="top_dd"/>
    </contour>
    <contour>
      <point x="1135" y="-407" type="move" name="bottom_dd"/>
    </contour>
    <contour>
      <point x="1135" y="1633" type="move" name="top0315"/>
    </contour>
    <contour>
      <point x="590" y="1853" type="move" name="top"/>
    </contour>
  </outline>
</glyph>
<glyph name="uni010B" format="1">
  <advance width="913"/>
  <unicode hex="010B"/>
  <outline>
    <contour>
      <point x="479" y="1290" type="move" name="parent_top"/>
    </contour>
    <contour>
      <point x="479" y="-10" type="move" name="bottom"/>
    </contour>
    <contour>
      <point x="893" y="1600" type="move" name="top_dd"/>
    </contour>
    <contour>
      <point x="893" y="-407" type="move" name="bottom_dd"/>
    </contour>
    <contour>
      <point x="893" y="1290" type="move" name="top0315"/>
    </contour>
    <contour>
      <point x="479" y="1510" type="move" name="top"/>
    </contour>
    <component base="c"/>
    <component base="dotaccent" xOffset="282" yOffset="-3"/>
  </outline>
</glyph>
<glyph name="Ccaron" format="1">
  <advance width="1155"/>
  <unicode hex="010C"/>
  <outline>
    <contour>
      <point x="590" y="1633" type="move" name="parent_top"/>
    </contour>
    <contour>
      <point x="590" y="-10" type="move" name="bottom"/>
    </contour>
    <contour>
      <point x="1135" y="1600" type="move" name="top_dd"/>
    </contour>
    <contour>
      <point x="1135" y="-407" type="move" name="bottom_dd"/>
    </contour>
    <contour>
      <point x="1135" y="1633" type="move" name="top0315"/>
    </contour>
    <contour>
      <point x="590" y="1885" type="move" name="top"/>
    </contour>
    <component base="C"/>
    <component base="caron" xOffset="236" yOffset="345"/>
  </outline>
</glyph>
<glyph name="ccaron" format="1">
  <advance width="913"/>
  <unicode hex="010D"/>
  <outline>
    <component base="c"/>
    <component base="caron" xOffset="126" yOffset="2"/>
    <contour>
      <point x="479" y="1290" type="move" name="parent_top"/>
    </contour>
    <contour>
      <point x="479" y="-10" type="move" name="bottom"/>
    </contour>
    <contour>
      <point x="893" y="1600" type="move" name="top_dd"/>
    </contour>
    <contour>
      <point x="893" y="-407" type="move" name="bottom_dd"/>
    </contour>
    <contour>
      <point x="893" y="1290" type="move" name="top0315"/>
    </contour>
    <contour>
      <point x="479" y="1542" type="move" name="top"/>
    </contour>
  </outline>
</glyph>
<glyph name="Dcaron" format="1">
  <advance width="1166"/>
  <unicode hex="010E"/>
  <outline>
    <component base="D"/>
    <component base="caron" xOffset="162" yOffset="324"/>
    <contour>
      <point x="516" y="1612" type="move" name="parent_top"/>
    </contour>
    <contour>
      <point x="516" y="10" type="move" name="bottom"/>
    </contour>
    <contour>
      <point x="1146" y="1600" type="move" name="top_dd"/>
    </contour>
    <contour>
      <point x="1146" y="-407" type="move" name="bottom_dd"/>
    </contour>
    <contour>
      <point x="1146" y="1612" type="move" name="top0315"/>
    </contour>
    <contour>
      <point x="516" y="1864" type="move" name="top"/>
    </contour>
  </outline>
</glyph>
<glyph name="dcaron" format="1">
  <advance width="1108"/>
  <unicode hex="010F"/>
  <outline>
    <contour>
      <point x="521" y="0" type="move" name="bottom"/>
    </contour>
    <contour>
      <point x="470" y="1620" type="move" name="parent_top"/>
    </contour>
    <contour>
      <point x="1088" y="1600" type="move" name="top_dd"/>
    </contour>
    <contour>
      <point x="1088" y="-407" type="move" name="bottom_dd"/>
    </contour>
    <contour>
      <point x="1088" y="1620" type="move" name="top0315"/>
    </contour>
    <contour>
      <point x="470" y="1620" type="move" name="top"/>
    </contour>
    <component base="d"/>
    <component base="commaaccent" xOffset="775" yOffset="1420"/>
  </outline>
</glyph>
<glyph name="dcroat" format="1">
  <advance width="982"/>
  <unicode hex="0111"/>
  <outline>
    <contour>
      <point x="773" y="210" type="line"/>
      <point x="773" y="0" type="line"/>
      <point x="819" y="0" type="line"/>
      <point x="819" y="1536" type="line"/>
      <point x="773" y="1536" type="line"/>
    </contour>
    <contour>
      <point x="122" y="531" type="line"/>
      <point x="122" y="201"/>
      <point x="248" y="-20"/>
      <point x="464" y="-20" type="curve" smooth="yes"/>
      <point x="668" y="-20"/>
      <point x="787" y="133"/>
      <point x="815" y="304" type="curve"/>
      <point x="815" y="745" type="line"/>
      <point x="776" y="948"/>
      <point x="663" y="1102"/>
      <point x="465" y="1102" type="curve" smooth="yes"/>
      <point x="249" y="1102"/>
      <point x="122" y="893"/>
      <point x="122" y="552" type="curve" smooth="yes"/>
    </contour>
    <contour>
      <point x="170" y="552" type="line"/>
      <point x="170" y="839"/>
      <point x="264" y="1048"/>
      <point x="464" y="1048" type="curve" smooth="yes"/>
      <point x="693" y="1048"/>
      <point x="764" y="843"/>
      <point x="789" y="709" type="curve"/>
      <point x="789" y="329" type="line"/>
      <point x="758" y="166"/>
      <point x="653" y="34"/>
      <point x="463" y="34" type="curve" smooth="yes"/>
      <point x="264" y="34"/>
      <point x="170" y="243"/>
      <point x="170" y="531" type="curve" smooth="yes"/>
    </contour>
    <contour>
      <point x="953" y="1335" type="line"/>
      <point x="460" y="1335" type="line"/>
      <point x="460" y="1281" type="line"/>
      <point x="953" y="1281" type="line"/>
    </contour>
    <contour>
      <point x="946" y="1536" type="move" name="caron"/>
    </contour>
    <contour>
      <point x="521" y="0" type="move" name="bottom"/>
    </contour>
    <contour>
      <point x="470" y="1612" type="move" name="top"/>
    </contour>
    <contour>
      <point x="962" y="1600" type="move" name="top_dd"/>
    </contour>
    <contour>
      <point x="962" y="-407" type="move" name="bottom_dd"/>
    </contour>
    <contour>
      <point x="521" y="0" type="move" name="markbottom"/>
    </contour>
    <contour>
      <point x="962" y="1612" type="move" name="top0315"/>
    </contour>
    <contour>
      <point x="705" y="1307" type="move" name="parenthesses.w2"/>
    </contour>
  </outline>
</glyph>
<glyph name="ebreve" format="1">
  <advance width="907"/>
  <unicode hex="0115"/>
  <outline>
    <contour>
      <point x="496" y="1291" type="move" name="parent_top"/>
    </contour>
    <contour>
      <point x="495" y="4" type="move" name="bottom"/>
    </contour>
    <contour>
      <point x="887" y="1600" type="move" name="top_dd"/>
    </contour>
    <contour>
      <point x="887" y="-407" type="move" name="bottom_dd"/>
    </contour>
    <contour>
      <point x="887" y="1291" type="move" name="top0315"/>
    </contour>
    <contour>
      <point x="496" y="1517" type="move" name="top"/>
    </contour>
    <component base="e"/>
    <component base="breve" xOffset="118" yOffset="3"/>
  </outline>
</glyph>
<glyph name="Edotaccent" format="1">
  <advance width="1019"/>
  <unicode hex="0116"/>
  <outline>
    <component base="E"/>
    <component base="dotaccent" xOffset="343" yOffset="319"/>
    <contour>
      <point x="540" y="1612" type="move" name="parent_top"/>
    </contour>
    <contour>
      <point x="540" y="10" type="move" name="bottom"/>
    </contour>
    <contour>
      <point x="999" y="1600" type="move" name="top_dd"/>
    </contour>
    <contour>
      <point x="999" y="-407" type="move" name="bottom_dd"/>
    </contour>
    <contour>
      <point x="999" y="1612" type="move" name="top0315"/>
    </contour>
    <contour>
      <point x="540" y="1832" type="move" name="top"/>
    </contour>
  </outline>
</glyph>
<glyph name="eogonek" format="1">
  <advance width="907"/>
  <unicode hex="0119"/>
  <outline>
    <component base="e"/>
    <component base="ogonek" xOffset="436" yOffset="58"/>
    <contour>
      <point x="496" y="1291" type="move" name="parent_top"/>
    </contour>
    <contour>
      <point x="495" y="4" type="move" name="bottom"/>
    </contour>
    <contour>
      <point x="887" y="1600" type="move" name="top_dd"/>
    </contour>
    <contour>
      <point x="887" y="-407" type="move" name="bottom_dd"/>
    </contour>
    <contour>
      <point x="887" y="1291" type="move" name="top0315"/>
    </contour>
    <contour>
      <point x="496" y="1291" type="move" name="top"/>
    </contour>
  </outline>
</glyph>
<glyph name="ecaron" format="1">
  <advance width="907"/>
  <unicode hex="011B"/>
  <outline>
    <component base="e"/>
    <component base="caron" xOffset="143" yOffset="3"/>
    <contour>
      <point x="496" y="1291" type="move" name="parent_top"/>
    </contour>
    <contour>
      <point x="495" y="4" type="move" name="bottom"/>
    </contour>
    <contour>
      <point x="887" y="1600" type="move" name="top_dd"/>
    </contour>
    <contour>
      <point x="887" y="-407" type="move" name="bottom_dd"/>
    </contour>
    <contour>
      <point x="887" y="1291" type="move" name="top0315"/>
    </contour>
    <contour>
      <point x="496" y="1543" type="move" name="top"/>
    </contour>
  </outline>
</glyph>
